solid new effoctor
facet normal 0.965925826289067 0.0 0.258819045102527
outer loop
vertex 122.991256850043 7.64104811352327 2.61177143234622
vertex 122.940145589477 4.64104811352327 3.0
vertex 122.991256850043 4.64104811352327 2.61177143234622
endloop
endfacet
facet normal 1.0 0.0 -2.22777747391172e-16
outer loop
vertex 122.940145589477 4.64104811352327 3.0
vertex 122.991256850043 7.64104811352327 2.61177143234622
vertex 122.940145589477 7.64104811352327 3.0
endloop
endfacet
facet normal -1.0 0.0 0.0
outer loop
vertex 121.490145589477 24.6410481135233 6.0
vertex 121.490145589477 21.6410481135233 3.52495810318487e-16
vertex 121.490145589477 21.6410481135233 6.0
endloop
endfacet
facet normal -1.0 0.0 0.0
outer loop
vertex 121.490145589477 21.6410481135233 3.52495810318487e-16
vertex 121.490145589477 24.6410481135233 6.0
vertex 121.490145589477 24.6410481135233 -3.52495810318487e-16
endloop
endfacet
facet normal -1.65005301120632e-18 -5.75465861194944e-18 -1.0
outer loop
vertex 129.802569808663 26.8912492875592 0.0
vertex 130.460345144437 3.56190671002612 0.0
vertex 129.743145144437 1.95100671002612 0.0
endloop
endfacet
facet normal -1.65005301120632e-18 -5.75465861194944e-18 -1.0
outer loop
vertex 130.460345144437 3.56190671002612 0.0
vertex 129.802569808663 26.8912492875592 0.0
vertex 131.112969808663 25.7113492875592 0.0
endloop
endfacet
facet normal -1.65005301120632e-18 -5.75465861194944e-18 -1.0
outer loop
vertex 130.460345144437 3.56190671002612 0.0
vertex 131.112969808663 25.7113492875592 0.0
vertex 132.214045144437 3.37760671002612 0.0
endloop
endfacet
facet normal -1.65005301120632e-18 -5.75465861194944e-18 -1.0
outer loop
vertex 132.214045144437 3.37760671002612 0.0
vertex 131.112969808663 25.7113492875592 0.0
vertex 132.640169808663 26.5930492875592 0.0
endloop
endfacet
facet normal -1.65005301120632e-18 -5.75465861194944e-18 -1.0
outer loop
vertex 132.214045144437 3.37760671002612 0.0
vertex 132.640169808663 26.5930492875592 0.0
vertex 132.580745144437 1.65280671002612 0.0
endloop
endfacet
facet normal -1.65005301120632e-18 -5.75465861194944e-18 -1.0
outer loop
vertex 127.449465145167 30.1410481135233 -3.52495810318487e-16
vertex 130.519769808663 28.5021492875592 0.0
vertex 127.449465145167 24.6410481135233 -3.52495810318487e-16
endloop
endfacet
facet normal -1.65005301120632e-18 -5.75465861194944e-18 -1.0
outer loop
vertex 130.519769808663 28.5021492875592 0.0
vertex 127.449465145167 30.1410481135233 -3.52495810318487e-16
vertex 134.240145589477 30.1410481135233 0.0
endloop
endfacet
facet normal -1.65005301120632e-18 -5.75465861194944e-18 -1.0
outer loop
vertex 127.449465145167 24.6410481135233 -3.52495810318487e-16
vertex 130.519769808663 28.5021492875592 0.0
vertex 129.802569808663 26.8912492875592 0.0
endloop
endfacet
facet normal -1.65005301120632e-18 -5.75465861194944e-18 -1.0
outer loop
vertex 127.449465145167 24.6410481135233 -3.52495810318487e-16
vertex 129.802569808663 26.8912492875592 0.0
vertex 129.490145589477 21.6410481135233 3.52495810318487e-16
endloop
endfacet
facet normal -1.65005301120632e-18 -5.75465861194944e-18 -1.0
outer loop
vertex 129.490145589477 21.6410481135233 3.52495810318487e-16
vertex 129.802569808663 26.8912492875592 0.0
vertex 129.490145589477 7.64104811352327 3.52495810318487e-16
endloop
endfacet
facet normal -1.65005301120632e-18 -5.75465861194944e-18 -1.0
outer loop
vertex 129.490145589477 7.64104811352327 3.52495810318487e-16
vertex 129.802569808663 26.8912492875592 0.0
vertex 129.743145144437 1.95100671002612 0.0
endloop
endfacet
facet normal -1.65005301120632e-18 -5.75465861194944e-18 -1.0
outer loop
vertex 130.519769808663 28.5021492875592 0.0
vertex 134.240145589477 30.1410481135233 0.0
vertex 132.273469808663 28.3178492875592 0.0
endloop
endfacet
facet normal -1.65005301120632e-18 -5.75465861194944e-18 -1.0
outer loop
vertex 132.273469808663 28.3178492875592 0.0
vertex 134.240145589477 30.1410481135233 0.0
vertex 132.640169808663 26.5930492875592 0.0
endloop
endfacet
facet normal -1.65005301120632e-18 -5.75465861194944e-18 -1.0
outer loop
vertex 129.490145589477 7.64104811352327 3.52495810318487e-16
vertex 121.490145589477 4.64104811352327 0.0
vertex 121.490145589477 7.64104811352327 3.52495810318487e-16
endloop
endfacet
facet normal -1.65005301120632e-18 -5.75465861194944e-18 -1.0
outer loop
vertex 121.490145589477 4.64104811352327 0.0
vertex 129.490145589477 7.64104811352327 3.52495810318487e-16
vertex 127.411457023389 4.64104811352327 0.0
endloop
endfacet
facet normal -1.65005301120632e-18 -5.75465861194944e-18 -1.0
outer loop
vertex 127.411457023389 4.64104811352327 0.0
vertex 129.490145589477 7.64104811352327 3.52495810318487e-16
vertex 127.411457023389 -0.85895188647672 0.0
endloop
endfacet
facet normal -1.65005301120632e-18 -5.75465861194944e-18 -1.0
outer loop
vertex 127.411457023389 -0.85895188647672 0.0
vertex 129.490145589477 7.64104811352327 3.52495810318487e-16
vertex 129.743145144437 1.95100671002612 0.0
endloop
endfacet
facet normal -1.65005301120632e-18 -5.75465861194944e-18 -1.0
outer loop
vertex 127.411457023389 -0.85895188647672 0.0
vertex 129.743145144437 1.95100671002612 0.0
vertex 131.053545144437 0.771106710026119 0.0
endloop
endfacet
facet normal -1.65005301120632e-18 -5.75465861194944e-18 -1.0
outer loop
vertex 127.411457023389 -0.85895188647672 0.0
vertex 131.053545144437 0.771106710026119 0.0
vertex 134.240145589477 -0.85895188647672 0.0
endloop
endfacet
facet normal -1.65005301120632e-18 -5.75465861194944e-18 -1.0
outer loop
vertex 134.240145589477 -0.85895188647672 0.0
vertex 131.053545144437 0.771106710026119 0.0
vertex 132.580745144437 1.65280671002612 0.0
endloop
endfacet
facet normal -1.65005301120632e-18 -5.75465861194944e-18 -1.0
outer loop
vertex 134.240145589477 -0.85895188647672 0.0
vertex 132.580745144437 1.65280671002612 0.0
vertex 132.640169808663 26.5930492875592 0.0
endloop
endfacet
facet normal -1.65005301120632e-18 -5.75465861194944e-18 -1.0
outer loop
vertex 134.240145589477 -0.85895188647672 0.0
vertex 132.640169808663 26.5930492875592 0.0
vertex 134.240145589477 30.1410481135233 0.0
endloop
endfacet
facet normal -1.65005301120632e-18 -5.75465861194944e-18 -1.0
outer loop
vertex 127.449465145167 24.6410481135233 -3.52495810318487e-16
vertex 121.490145589477 21.6410481135233 3.52495810318487e-16
vertex 121.490145589477 24.6410481135233 -3.52495810318487e-16
endloop
endfacet
facet normal -1.65005301120632e-18 -5.75465861194944e-18 -1.0
outer loop
vertex 121.490145589477 21.6410481135233 3.52495810318487e-16
vertex 127.449465145167 24.6410481135233 -3.52495810318487e-16
vertex 129.490145589477 21.6410481135233 3.52495810318487e-16
endloop
endfacet
facet normal 0.965925826289067 0.0 -0.258819045102527
outer loop
vertex 123.041256850043 24.6410481135233 3.38822856765378
vertex 123.1911074838 21.6410481135233 3.75
vertex 123.041256850043 21.6410481135233 3.38822856765378
endloop
endfacet
facet normal 0.866025403784439 0.0 -0.5
outer loop
vertex 123.1911074838 21.6410481135233 3.75
vertex 123.041256850043 24.6410481135233 3.38822856765378
vertex 123.1911074838 24.6410481135233 3.75
endloop
endfacet
facet normal -0.707106781186546 0.0 -0.707106781186549
outer loop
vertex 125.500805761256 7.64104811352327 4.06066017177982
vertex 125.739183695153 4.64104811352327 3.75
vertex 125.500805761256 4.64104811352327 4.06066017177982
endloop
endfacet
facet normal -0.866025403784439 0.0 -0.5
outer loop
vertex 125.739183695153 4.64104811352327 3.75
vertex 125.500805761256 7.64104811352327 4.06066017177982
vertex 125.739183695153 7.64104811352327 3.75
endloop
endfacet
facet normal -0.866025403784439 0.0 -0.5
outer loop
vertex 125.739183695153 7.64104811352327 3.75
vertex 125.88903432891 4.64104811352327 3.38822856765378
vertex 125.739183695153 4.64104811352327 3.75
endloop
endfacet
facet normal -0.965925826289067 0.0 -0.258819045102527
outer loop
vertex 125.88903432891 4.64104811352327 3.38822856765378
vertex 125.739183695153 7.64104811352327 3.75
vertex 125.88903432891 7.64104811352327 3.38822856765378
endloop
endfacet
facet normal 0.499999999999999 0.0 -0.866025403784439
outer loop
vertex 123.690145589477 7.64104811352327 4.29903810567666
vertex 123.379485417697 4.64104811352327 4.06066017177982
vertex 123.379485417697 7.64104811352327 4.06066017177982
endloop
endfacet
facet normal 0.707106781186558 0.0 -0.707106781186536
outer loop
vertex 123.379485417697 4.64104811352327 4.06066017177982
vertex 123.690145589477 7.64104811352327 4.29903810567666
vertex 123.690145589477 4.64104811352327 4.29903810567666
endloop
endfacet
facet normal 0.499999999999993 0.0 0.866025403784443
outer loop
vertex 123.740145589477 21.6410481135233 1.70096189432334
vertex 123.429485417697 24.6410481135233 1.93933982822018
vertex 123.429485417697 21.6410481135233 1.93933982822018
endloop
endfacet
facet normal 0.707106781186546 0.0 0.707106781186549
outer loop
vertex 123.429485417697 24.6410481135233 1.93933982822018
vertex 123.740145589477 21.6410481135233 1.70096189432334
vertex 123.740145589477 24.6410481135233 1.70096189432334
endloop
endfacet
facet normal 0.669133907537324 0.743141853069676 0.0
outer loop
vertex 129.802569808663 26.8912492875592 6.0
vertex 131.112969808663 25.7113492875592 0.0
vertex 129.802569808663 26.8912492875592 0.0
endloop
endfacet
facet normal 0.669133907537324 0.743141853069676 0.0
outer loop
vertex 131.112969808663 25.7113492875592 0.0
vertex 129.802569808663 26.8912492875592 6.0
vertex 131.112969808663 25.7113492875592 6.0
endloop
endfacet
facet normal 0.499999999999993 0.0 0.866025403784442
outer loop
vertex 123.690145589477 4.64104811352327 1.70096189432334
vertex 123.379485417697 7.64104811352327 1.93933982822018
vertex 123.379485417697 4.64104811352327 1.93933982822018
endloop
endfacet
facet normal 0.707106781186546 0.0 0.707106781186549
outer loop
vertex 123.379485417697 7.64104811352327 1.93933982822018
vertex 123.690145589477 4.64104811352327 1.70096189432334
vertex 123.690145589477 7.64104811352327 1.70096189432334
endloop
endfacet
facet normal -1.0 0.0 5.34666593738814e-17
outer loop
vertex 125.940145589477 7.64104811352327 3.0
vertex 125.88903432891 4.64104811352327 2.61177143234622
vertex 125.940145589477 4.64104811352327 3.0
endloop
endfacet
facet normal -0.965925826289067 0.0 0.258819045102527
outer loop
vertex 125.88903432891 4.64104811352327 2.61177143234622
vertex 125.940145589477 7.64104811352327 3.0
vertex 125.88903432891 7.64104811352327 2.61177143234622
endloop
endfacet
facet normal -0.499999999999999 0.0 0.866025403784439
outer loop
vertex 125.240145589477 21.6410481135233 1.70096189432334
vertex 124.87837415713 24.6410481135233 1.5511112605664
vertex 124.87837415713 21.6410481135233 1.5511112605664
endloop
endfacet
facet normal -0.258819045102515 0.0 0.96592582628907
outer loop
vertex 124.87837415713 24.6410481135233 1.5511112605664
vertex 125.240145589477 21.6410481135233 1.70096189432334
vertex 125.240145589477 24.6410481135233 1.70096189432334
endloop
endfacet
facet normal -6.59422132277871e-16 0.0 1.0
outer loop
vertex 124.490145589476 21.6410481135233 1.5
vertex 124.101917021823 24.6410481135233 1.5511112605664
vertex 124.101917021823 21.6410481135233 1.5511112605664
endloop
endfacet
facet normal 0.258819045102525 0.0 0.965925826289067
outer loop
vertex 124.101917021823 24.6410481135233 1.5511112605664
vertex 124.490145589476 21.6410481135233 1.5
vertex 124.490145589476 24.6410481135233 1.5
endloop
endfacet
facet normal -0.707106781186558 0.0 0.707106781186537
outer loop
vertex 125.550805761256 21.6410481135233 1.93933982822018
vertex 125.240145589477 24.6410481135233 1.70096189432334
vertex 125.240145589477 21.6410481135233 1.70096189432334
endloop
endfacet
facet normal -0.499999999999999 0.0 0.866025403784439
outer loop
vertex 125.240145589477 24.6410481135233 1.70096189432334
vertex 125.550805761256 21.6410481135233 1.93933982822018
vertex 125.550805761256 24.6410481135233 1.93933982822018
endloop
endfacet
facet normal -0.0 1.0 -0.0
outer loop
vertex 121.490145589477 24.6410481135233 -3.52495810318487e-16
vertex 123.740145589477 24.6410481135233 1.70096189432334
vertex 127.449465145167 24.6410481135233 -3.52495810318487e-16
endloop
endfacet
facet normal -0.0 1.0 -0.0
outer loop
vertex 123.740145589477 24.6410481135233 1.70096189432334
vertex 121.490145589477 24.6410481135233 -3.52495810318487e-16
vertex 123.429485417697 24.6410481135233 1.93933982822018
endloop
endfacet
facet normal -0.0 1.0 -0.0
outer loop
vertex 123.429485417697 24.6410481135233 1.93933982822018
vertex 121.490145589477 24.6410481135233 -3.52495810318487e-16
vertex 123.1911074838 24.6410481135233 2.25
endloop
endfacet
facet normal -0.0 1.0 -0.0
outer loop
vertex 123.1911074838 24.6410481135233 2.25
vertex 121.490145589477 24.6410481135233 -3.52495810318487e-16
vertex 121.490145589477 24.6410481135233 6.0
endloop
endfacet
facet normal -0.0 1.0 -0.0
outer loop
vertex 127.449465145167 24.6410481135233 -3.52495810318487e-16
vertex 123.740145589477 24.6410481135233 1.70096189432334
vertex 124.101917021823 24.6410481135233 1.5511112605664
endloop
endfacet
facet normal -0.0 1.0 -0.0
outer loop
vertex 127.449465145167 24.6410481135233 -3.52495810318487e-16
vertex 124.101917021823 24.6410481135233 1.5511112605664
vertex 124.490145589476 24.6410481135233 1.5
endloop
endfacet
facet normal -0.0 1.0 -0.0
outer loop
vertex 123.1911074838 24.6410481135233 2.25
vertex 121.490145589477 24.6410481135233 6.0
vertex 123.041256850043 24.6410481135233 2.61177143234622
endloop
endfacet
facet normal -0.0 1.0 -0.0
outer loop
vertex 123.041256850043 24.6410481135233 2.61177143234622
vertex 121.490145589477 24.6410481135233 6.0
vertex 122.990145589477 24.6410481135233 3.0
endloop
endfacet
facet normal -0.0 1.0 -0.0
outer loop
vertex 122.990145589477 24.6410481135233 3.0
vertex 121.490145589477 24.6410481135233 6.0
vertex 123.041256850043 24.6410481135233 3.38822856765378
endloop
endfacet
facet normal -0.0 1.0 -0.0
outer loop
vertex 123.041256850043 24.6410481135233 3.38822856765378
vertex 121.490145589477 24.6410481135233 6.0
vertex 123.1911074838 24.6410481135233 3.75
endloop
endfacet
facet normal -0.0 1.0 -0.0
outer loop
vertex 123.1911074838 24.6410481135233 3.75
vertex 121.490145589477 24.6410481135233 6.0
vertex 123.429485417697 24.6410481135233 4.06066017177982
endloop
endfacet
facet normal -0.0 1.0 -0.0
outer loop
vertex 123.429485417697 24.6410481135233 4.06066017177982
vertex 121.490145589477 24.6410481135233 6.0
vertex 123.740145589476 24.6410481135233 4.29903810567666
endloop
endfacet
facet normal -0.0 1.0 -0.0
outer loop
vertex 123.740145589476 24.6410481135233 4.29903810567666
vertex 121.490145589477 24.6410481135233 6.0
vertex 124.101917021823 24.6410481135233 4.4488887394336
endloop
endfacet
facet normal -0.0 1.0 -0.0
outer loop
vertex 124.101917021823 24.6410481135233 4.4488887394336
vertex 121.490145589477 24.6410481135233 6.0
vertex 124.490145589476 24.6410481135233 4.5
endloop
endfacet
facet normal -0.0 1.0 -0.0
outer loop
vertex 127.449465145167 24.6410481135233 -3.52495810318487e-16
vertex 125.789183695153 24.6410481135233 2.25
vertex 127.449465145167 24.6410481135233 6.0
endloop
endfacet
facet normal -0.0 1.0 -0.0
outer loop
vertex 125.789183695153 24.6410481135233 2.25
vertex 127.449465145167 24.6410481135233 -3.52495810318487e-16
vertex 125.550805761256 24.6410481135233 1.93933982822018
endloop
endfacet
facet normal -0.0 1.0 -0.0
outer loop
vertex 125.550805761256 24.6410481135233 1.93933982822018
vertex 127.449465145167 24.6410481135233 -3.52495810318487e-16
vertex 125.240145589477 24.6410481135233 1.70096189432334
endloop
endfacet
facet normal -0.0 1.0 -0.0
outer loop
vertex 125.240145589477 24.6410481135233 1.70096189432334
vertex 127.449465145167 24.6410481135233 -3.52495810318487e-16
vertex 124.87837415713 24.6410481135233 1.5511112605664
endloop
endfacet
facet normal -0.0 1.0 -0.0
outer loop
vertex 124.87837415713 24.6410481135233 1.5511112605664
vertex 127.449465145167 24.6410481135233 -3.52495810318487e-16
vertex 124.490145589476 24.6410481135233 1.5
endloop
endfacet
facet normal -0.0 1.0 -0.0
outer loop
vertex 127.449465145167 24.6410481135233 6.0
vertex 125.789183695153 24.6410481135233 2.25
vertex 125.93903432891 24.6410481135233 2.61177143234622
endloop
endfacet
facet normal -0.0 1.0 -0.0
outer loop
vertex 127.449465145167 24.6410481135233 6.0
vertex 125.93903432891 24.6410481135233 2.61177143234622
vertex 125.990145589476 24.6410481135233 3.0
endloop
endfacet
facet normal -0.0 1.0 -0.0
outer loop
vertex 127.449465145167 24.6410481135233 6.0
vertex 125.990145589476 24.6410481135233 3.0
vertex 125.93903432891 24.6410481135233 3.38822856765378
endloop
endfacet
facet normal -0.0 1.0 -0.0
outer loop
vertex 127.449465145167 24.6410481135233 6.0
vertex 125.93903432891 24.6410481135233 3.38822856765378
vertex 125.789183695153 24.6410481135233 3.75
endloop
endfacet
facet normal -0.0 1.0 -0.0
outer loop
vertex 127.449465145167 24.6410481135233 6.0
vertex 125.789183695153 24.6410481135233 3.75
vertex 125.550805761256 24.6410481135233 4.06066017177982
endloop
endfacet
facet normal -0.0 1.0 -0.0
outer loop
vertex 127.449465145167 24.6410481135233 6.0
vertex 125.550805761256 24.6410481135233 4.06066017177982
vertex 125.240145589476 24.6410481135233 4.29903810567666
endloop
endfacet
facet normal -0.0 1.0 -0.0
outer loop
vertex 127.449465145167 24.6410481135233 6.0
vertex 125.240145589476 24.6410481135233 4.29903810567666
vertex 124.87837415713 24.6410481135233 4.4488887394336
endloop
endfacet
facet normal -0.0 1.0 -0.0
outer loop
vertex 127.449465145167 24.6410481135233 6.0
vertex 124.87837415713 24.6410481135233 4.4488887394336
vertex 124.490145589476 24.6410481135233 4.5
endloop
endfacet
facet normal -0.0 1.0 -0.0
outer loop
vertex 127.449465145167 24.6410481135233 6.0
vertex 124.490145589476 24.6410481135233 4.5
vertex 121.490145589477 24.6410481135233 6.0
endloop
endfacet
facet normal -0.866025403784439 0.0 0.499999999999999
outer loop
vertex 125.789183695153 24.6410481135233 2.25
vertex 125.550805761256 21.6410481135233 1.93933982822018
vertex 125.789183695153 21.6410481135233 2.25
endloop
endfacet
facet normal -0.707106781186558 0.0 0.707106781186537
outer loop
vertex 125.550805761256 21.6410481135233 1.93933982822018
vertex 125.789183695153 24.6410481135233 2.25
vertex 125.550805761256 24.6410481135233 1.93933982822018
endloop
endfacet
facet normal -0.499999999999993 0.0 -0.866025403784443
outer loop
vertex 125.240145589476 24.6410481135233 4.29903810567666
vertex 124.87837415713 21.6410481135233 4.4488887394336
vertex 124.87837415713 24.6410481135233 4.4488887394336
endloop
endfacet
facet normal -0.258819045102525 0.0 -0.965925826289067
outer loop
vertex 124.87837415713 21.6410481135233 4.4488887394336
vertex 125.240145589476 24.6410481135233 4.29903810567666
vertex 125.240145589476 21.6410481135233 4.29903810567666
endloop
endfacet
facet normal -6.59422132277871e-16 0.0 1.0
outer loop
vertex 124.440145589477 4.64104811352327 1.5
vertex 124.051917021823 7.64104811352327 1.5511112605664
vertex 124.051917021823 4.64104811352327 1.5511112605664
endloop
endfacet
facet normal 0.258819045102525 0.0 0.965925826289067
outer loop
vertex 124.051917021823 7.64104811352327 1.5511112605664
vertex 124.440145589477 4.64104811352327 1.5
vertex 124.440145589477 7.64104811352327 1.5
endloop
endfacet
facet normal -0.978138091571903 -0.20795642287767 -0.0
outer loop
vertex 132.214045144437 3.37760671002612 6.0
vertex 132.580745144437 1.65280671002612 0.0
vertex 132.580745144437 1.65280671002612 6.0
endloop
endfacet
facet normal -0.978138091571903 -0.20795642287767 -0.0
outer loop
vertex 132.580745144437 1.65280671002612 0.0
vertex 132.214045144437 3.37760671002612 6.0
vertex 132.214045144437 3.37760671002612 0.0
endloop
endfacet
facet normal -0.707106781186546 0.0 -0.707106781186549
outer loop
vertex 125.550805761256 24.6410481135233 4.06066017177982
vertex 125.789183695153 21.6410481135233 3.75
vertex 125.550805761256 21.6410481135233 4.06066017177982
endloop
endfacet
facet normal -0.866025403784439 0.0 -0.499999999999999
outer loop
vertex 125.789183695153 21.6410481135233 3.75
vertex 125.550805761256 24.6410481135233 4.06066017177982
vertex 125.789183695153 24.6410481135233 3.75
endloop
endfacet
facet normal 0.669133907537323 0.743141853069677 0.0
outer loop
vertex 129.743145144437 1.95100671002612 6.0
vertex 131.053545144437 0.771106710026119 0.0
vertex 129.743145144437 1.95100671002612 0.0
endloop
endfacet
facet normal 0.669133907537323 0.743141853069677 0.0
outer loop
vertex 131.053545144437 0.771106710026119 0.0
vertex 129.743145144437 1.95100671002612 6.0
vertex 131.053545144437 0.771106710026119 6.0
endloop
endfacet
facet normal -0.965925826289067 0.0 0.258819045102527
outer loop
vertex 125.88903432891 7.64104811352327 2.61177143234622
vertex 125.739183695153 4.64104811352327 2.25
vertex 125.88903432891 4.64104811352327 2.61177143234622
endloop
endfacet
facet normal -0.866025403784439 0.0 0.5
outer loop
vertex 125.739183695153 4.64104811352327 2.25
vertex 125.88903432891 7.64104811352327 2.61177143234622
vertex 125.739183695153 7.64104811352327 2.25
endloop
endfacet
facet normal 0.866025403784439 0.0 0.5
outer loop
vertex 123.1411074838 7.64104811352327 2.25
vertex 122.991256850043 4.64104811352327 2.61177143234622
vertex 123.1411074838 4.64104811352327 2.25
endloop
endfacet
facet normal 0.965925826289067 0.0 0.258819045102527
outer loop
vertex 122.991256850043 4.64104811352327 2.61177143234622
vertex 123.1411074838 7.64104811352327 2.25
vertex 122.991256850043 7.64104811352327 2.61177143234622
endloop
endfacet
facet normal -1.0 0.0 -0.0
outer loop
vertex 129.490145589477 21.6410481135233 6.0
vertex 129.490145589477 7.64104811352327 3.52495810318487e-16
vertex 129.490145589477 7.64104811352327 6.0
endloop
endfacet
facet normal -1.0 0.0 -0.0
outer loop
vertex 129.490145589477 7.64104811352327 3.52495810318487e-16
vertex 129.490145589477 21.6410481135233 6.0
vertex 129.490145589477 21.6410481135233 3.52495810318487e-16
endloop
endfacet
facet normal 0.0 0.0 -1.0
outer loop
vertex 124.440145589477 7.64104811352327 4.5
vertex 124.051917021823 4.64104811352327 4.4488887394336
vertex 124.051917021823 7.64104811352327 4.4488887394336
endloop
endfacet
facet normal 0.258819045102515 0.0 -0.96592582628907
outer loop
vertex 124.051917021823 4.64104811352327 4.4488887394336
vertex 124.440145589477 7.64104811352327 4.5
vertex 124.440145589477 4.64104811352327 4.5
endloop
endfacet
facet normal -1.0 0.0 0.0
outer loop
vertex 127.411457023389 4.64104811352327 6.0
vertex 127.411457023389 -0.85895188647672 0.0
vertex 127.411457023389 -0.85895188647672 6.0
endloop
endfacet
facet normal -1.0 0.0 0.0
outer loop
vertex 127.411457023389 -0.85895188647672 0.0
vertex 127.411457023389 4.64104811352327 6.0
vertex 127.411457023389 4.64104811352327 0.0
endloop
endfacet
facet normal -0.0 -0.0 1.0
outer loop
vertex 127.411457023389 -0.85895188647672 6.0
vertex 129.743145144437 1.95100671002612 6.0
vertex 127.411457023389 4.64104811352327 6.0
endloop
endfacet
facet normal -0.0 -0.0 1.0
outer loop
vertex 129.743145144437 1.95100671002612 6.0
vertex 127.411457023389 -0.85895188647672 6.0
vertex 131.053545144437 0.771106710026119 6.0
endloop
endfacet
facet normal -0.0 -0.0 1.0
outer loop
vertex 131.053545144437 0.771106710026119 6.0
vertex 127.411457023389 -0.85895188647672 6.0
vertex 134.240145589477 -0.85895188647672 6.0
endloop
endfacet
facet normal -0.0 -0.0 1.0
outer loop
vertex 127.411457023389 4.64104811352327 6.0
vertex 129.743145144437 1.95100671002612 6.0
vertex 129.490145589477 7.64104811352327 6.0
endloop
endfacet
facet normal -0.0 -0.0 1.0
outer loop
vertex 129.490145589477 7.64104811352327 6.0
vertex 129.743145144437 1.95100671002612 6.0
vertex 129.490145589477 21.6410481135233 6.0
endloop
endfacet
facet normal -0.0 -0.0 1.0
outer loop
vertex 131.053545144437 0.771106710026119 6.0
vertex 134.240145589477 -0.85895188647672 6.0
vertex 132.580745144437 1.65280671002612 6.0
endloop
endfacet
facet normal -0.0 -0.0 1.0
outer loop
vertex 132.580745144437 1.65280671002612 6.0
vertex 134.240145589477 -0.85895188647672 6.0
vertex 132.640169808663 26.5930492875592 6.0
endloop
endfacet
facet normal -0.0 -0.0 1.0
outer loop
vertex 129.490145589477 21.6410481135233 6.0
vertex 121.490145589477 24.6410481135233 6.0
vertex 121.490145589477 21.6410481135233 6.0
endloop
endfacet
facet normal -0.0 -0.0 1.0
outer loop
vertex 121.490145589477 24.6410481135233 6.0
vertex 129.490145589477 21.6410481135233 6.0
vertex 127.449465145167 24.6410481135233 6.0
endloop
endfacet
facet normal -0.0 -0.0 1.0
outer loop
vertex 127.449465145167 24.6410481135233 6.0
vertex 129.490145589477 21.6410481135233 6.0
vertex 127.449465145167 30.1410481135233 6.0
endloop
endfacet
facet normal -0.0 -0.0 1.0
outer loop
vertex 127.449465145167 30.1410481135233 6.0
vertex 129.490145589477 21.6410481135233 6.0
vertex 129.802569808663 26.8912492875592 6.0
endloop
endfacet
facet normal -0.0 -0.0 1.0
outer loop
vertex 127.449465145167 30.1410481135233 6.0
vertex 129.802569808663 26.8912492875592 6.0
vertex 130.519769808663 28.5021492875592 6.0
endloop
endfacet
facet normal -0.0 -0.0 1.0
outer loop
vertex 127.449465145167 30.1410481135233 6.0
vertex 130.519769808663 28.5021492875592 6.0
vertex 134.240145589477 30.1410481135233 6.0
endloop
endfacet
facet normal -0.0 -0.0 1.0
outer loop
vertex 129.802569808663 26.8912492875592 6.0
vertex 129.490145589477 21.6410481135233 6.0
vertex 129.743145144437 1.95100671002612 6.0
endloop
endfacet
facet normal -0.0 -0.0 1.0
outer loop
vertex 134.240145589477 30.1410481135233 6.0
vertex 130.519769808663 28.5021492875592 6.0
vertex 132.273469808663 28.3178492875592 6.0
endloop
endfacet
facet normal -0.0 -0.0 1.0
outer loop
vertex 134.240145589477 30.1410481135233 6.0
vertex 132.273469808663 28.3178492875592 6.0
vertex 132.640169808663 26.5930492875592 6.0
endloop
endfacet
facet normal -0.0 -0.0 1.0
outer loop
vertex 134.240145589477 30.1410481135233 6.0
vertex 132.640169808663 26.5930492875592 6.0
vertex 134.240145589477 -0.85895188647672 6.0
endloop
endfacet
facet normal -0.0 -0.0 1.0
outer loop
vertex 130.460345144437 3.56190671002612 6.0
vertex 129.802569808663 26.8912492875592 6.0
vertex 129.743145144437 1.95100671002612 6.0
endloop
endfacet
facet normal -0.0 -0.0 1.0
outer loop
vertex 129.802569808663 26.8912492875592 6.0
vertex 130.460345144437 3.56190671002612 6.0
vertex 131.112969808663 25.7113492875592 6.0
endloop
endfacet
facet normal -0.0 -0.0 1.0
outer loop
vertex 131.112969808663 25.7113492875592 6.0
vertex 130.460345144437 3.56190671002612 6.0
vertex 132.214045144437 3.37760671002612 6.0
endloop
endfacet
facet normal -0.0 -0.0 1.0
outer loop
vertex 131.112969808663 25.7113492875592 6.0
vertex 132.214045144437 3.37760671002612 6.0
vertex 132.640169808663 26.5930492875592 6.0
endloop
endfacet
facet normal -0.0 -0.0 1.0
outer loop
vertex 132.640169808663 26.5930492875592 6.0
vertex 132.214045144437 3.37760671002612 6.0
vertex 132.580745144437 1.65280671002612 6.0
endloop
endfacet
facet normal -0.0 -0.0 1.0
outer loop
vertex 127.411457023389 4.64104811352327 6.0
vertex 121.490145589477 7.64104811352327 6.0
vertex 121.490145589477 4.64104811352327 6.0
endloop
endfacet
facet normal -0.0 -0.0 1.0
outer loop
vertex 121.490145589477 7.64104811352327 6.0
vertex 127.411457023389 4.64104811352327 6.0
vertex 129.490145589477 7.64104811352327 6.0
endloop
endfacet
facet normal -0.499999999999993 0.0 -0.866025403784442
outer loop
vertex 125.190145589477 7.64104811352327 4.29903810567666
vertex 124.82837415713 4.64104811352327 4.4488887394336
vertex 124.82837415713 7.64104811352327 4.4488887394336
endloop
endfacet
facet normal -0.258819045102525 0.0 -0.965925826289067
outer loop
vertex 124.82837415713 4.64104811352327 4.4488887394336
vertex 125.190145589477 7.64104811352327 4.29903810567666
vertex 125.190145589477 4.64104811352327 4.29903810567666
endloop
endfacet
facet normal 0.866025403784439 0.0 0.5
outer loop
vertex 123.1911074838 24.6410481135233 2.25
vertex 123.041256850043 21.6410481135233 2.61177143234622
vertex 123.1911074838 21.6410481135233 2.25
endloop
endfacet
facet normal 0.965925826289067 0.0 0.258819045102527
outer loop
vertex 123.041256850043 21.6410481135233 2.61177143234622
vertex 123.1911074838 24.6410481135233 2.25
vertex 123.041256850043 24.6410481135233 2.61177143234622
endloop
endfacet
facet normal -0.707106781186546 0.0 -0.707106781186549
outer loop
vertex 125.500805761256 7.64104811352327 4.06066017177982
vertex 125.190145589477 4.64104811352327 4.29903810567666
vertex 125.190145589477 7.64104811352327 4.29903810567666
endloop
endfacet
facet normal -0.499999999999993 0.0 -0.866025403784442
outer loop
vertex 125.190145589477 4.64104811352327 4.29903810567666
vertex 125.500805761256 7.64104811352327 4.06066017177982
vertex 125.500805761256 4.64104811352327 4.06066017177982
endloop
endfacet
facet normal -0.499999999999999 0.0 0.866025403784439
outer loop
vertex 125.190145589477 4.64104811352327 1.70096189432334
vertex 124.82837415713 7.64104811352327 1.5511112605664
vertex 124.82837415713 4.64104811352327 1.5511112605664
endloop
endfacet
facet normal -0.258819045102515 0.0 0.96592582628907
outer loop
vertex 124.82837415713 7.64104811352327 1.5511112605664
vertex 125.190145589477 4.64104811352327 1.70096189432334
vertex 125.190145589477 7.64104811352327 1.70096189432334
endloop
endfacet
facet normal -0.499987525307689 0.866032605931608 -0.0
outer loop
vertex 131.112969808663 25.7113492875592 6.0
vertex 132.640169808663 26.5930492875592 0.0
vertex 131.112969808663 25.7113492875592 0.0
endloop
endfacet
facet normal -0.499987525307689 0.866032605931608 -0.0
outer loop
vertex 132.640169808663 26.5930492875592 0.0
vertex 131.112969808663 25.7113492875592 6.0
vertex 132.640169808663 26.5930492875592 6.0
endloop
endfacet
facet normal -0.866025403784439 0.0 0.5
outer loop
vertex 125.739183695153 7.64104811352327 2.25
vertex 125.500805761256 4.64104811352327 1.93933982822018
vertex 125.739183695153 4.64104811352327 2.25
endloop
endfacet
facet normal -0.707106781186558 0.0 0.707106781186537
outer loop
vertex 125.500805761256 4.64104811352327 1.93933982822018
vertex 125.739183695153 7.64104811352327 2.25
vertex 125.500805761256 7.64104811352327 1.93933982822018
endloop
endfacet
facet normal 0.0 -1.0 0.0
outer loop
vertex 129.490145589477 21.6410481135233 3.52495810318487e-16
vertex 125.240145589477 21.6410481135233 1.70096189432334
vertex 121.490145589477 21.6410481135233 3.52495810318487e-16
endloop
endfacet
facet normal 0.0 -1.0 0.0
outer loop
vertex 125.240145589477 21.6410481135233 1.70096189432334
vertex 129.490145589477 21.6410481135233 3.52495810318487e-16
vertex 125.550805761256 21.6410481135233 1.93933982822018
endloop
endfacet
facet normal 0.0 -1.0 0.0
outer loop
vertex 125.550805761256 21.6410481135233 1.93933982822018
vertex 129.490145589477 21.6410481135233 3.52495810318487e-16
vertex 129.490145589477 21.6410481135233 6.0
endloop
endfacet
facet normal 0.0 -1.0 0.0
outer loop
vertex 121.490145589477 21.6410481135233 3.52495810318487e-16
vertex 125.240145589477 21.6410481135233 1.70096189432334
vertex 124.87837415713 21.6410481135233 1.5511112605664
endloop
endfacet
facet normal 0.0 -1.0 0.0
outer loop
vertex 121.490145589477 21.6410481135233 3.52495810318487e-16
vertex 124.87837415713 21.6410481135233 1.5511112605664
vertex 124.490145589476 21.6410481135233 1.5
endloop
endfacet
facet normal 0.0 -1.0 0.0
outer loop
vertex 125.550805761256 21.6410481135233 1.93933982822018
vertex 129.490145589477 21.6410481135233 6.0
vertex 125.789183695153 21.6410481135233 2.25
endloop
endfacet
facet normal 0.0 -1.0 0.0
outer loop
vertex 125.789183695153 21.6410481135233 2.25
vertex 129.490145589477 21.6410481135233 6.0
vertex 125.93903432891 21.6410481135233 2.61177143234622
endloop
endfacet
facet normal 0.0 -1.0 0.0
outer loop
vertex 125.93903432891 21.6410481135233 2.61177143234622
vertex 129.490145589477 21.6410481135233 6.0
vertex 125.990145589476 21.6410481135233 3.0
endloop
endfacet
facet normal 0.0 -1.0 0.0
outer loop
vertex 125.990145589476 21.6410481135233 3.0
vertex 129.490145589477 21.6410481135233 6.0
vertex 125.93903432891 21.6410481135233 3.38822856765378
endloop
endfacet
facet normal 0.0 -1.0 0.0
outer loop
vertex 125.93903432891 21.6410481135233 3.38822856765378
vertex 129.490145589477 21.6410481135233 6.0
vertex 125.789183695153 21.6410481135233 3.75
endloop
endfacet
facet normal 0.0 -1.0 0.0
outer loop
vertex 125.789183695153 21.6410481135233 3.75
vertex 129.490145589477 21.6410481135233 6.0
vertex 125.550805761256 21.6410481135233 4.06066017177982
endloop
endfacet
facet normal 0.0 -1.0 0.0
outer loop
vertex 125.550805761256 21.6410481135233 4.06066017177982
vertex 129.490145589477 21.6410481135233 6.0
vertex 125.240145589476 21.6410481135233 4.29903810567666
endloop
endfacet
facet normal 0.0 -1.0 0.0
outer loop
vertex 125.240145589476 21.6410481135233 4.29903810567666
vertex 129.490145589477 21.6410481135233 6.0
vertex 124.87837415713 21.6410481135233 4.4488887394336
endloop
endfacet
facet normal 0.0 -1.0 0.0
outer loop
vertex 124.87837415713 21.6410481135233 4.4488887394336
vertex 129.490145589477 21.6410481135233 6.0
vertex 124.490145589476 21.6410481135233 4.5
endloop
endfacet
facet normal 0.0 -1.0 0.0
outer loop
vertex 121.490145589477 21.6410481135233 3.52495810318487e-16
vertex 123.1911074838 21.6410481135233 2.25
vertex 121.490145589477 21.6410481135233 6.0
endloop
endfacet
facet normal 0.0 -1.0 0.0
outer loop
vertex 123.1911074838 21.6410481135233 2.25
vertex 121.490145589477 21.6410481135233 3.52495810318487e-16
vertex 123.429485417697 21.6410481135233 1.93933982822018
endloop
endfacet
facet normal 0.0 -1.0 0.0
outer loop
vertex 123.429485417697 21.6410481135233 1.93933982822018
vertex 121.490145589477 21.6410481135233 3.52495810318487e-16
vertex 123.740145589477 21.6410481135233 1.70096189432334
endloop
endfacet
facet normal 0.0 -1.0 0.0
outer loop
vertex 123.740145589477 21.6410481135233 1.70096189432334
vertex 121.490145589477 21.6410481135233 3.52495810318487e-16
vertex 124.101917021823 21.6410481135233 1.5511112605664
endloop
endfacet
facet normal 0.0 -1.0 0.0
outer loop
vertex 124.101917021823 21.6410481135233 1.5511112605664
vertex 121.490145589477 21.6410481135233 3.52495810318487e-16
vertex 124.490145589476 21.6410481135233 1.5
endloop
endfacet
facet normal 0.0 -1.0 0.0
outer loop
vertex 121.490145589477 21.6410481135233 6.0
vertex 123.1911074838 21.6410481135233 2.25
vertex 123.041256850043 21.6410481135233 2.61177143234622
endloop
endfacet
facet normal 0.0 -1.0 0.0
outer loop
vertex 121.490145589477 21.6410481135233 6.0
vertex 123.041256850043 21.6410481135233 2.61177143234622
vertex 122.990145589477 21.6410481135233 3.0
endloop
endfacet
facet normal 0.0 -1.0 0.0
outer loop
vertex 121.490145589477 21.6410481135233 6.0
vertex 122.990145589477 21.6410481135233 3.0
vertex 123.041256850043 21.6410481135233 3.38822856765378
endloop
endfacet
facet normal 0.0 -1.0 0.0
outer loop
vertex 121.490145589477 21.6410481135233 6.0
vertex 123.041256850043 21.6410481135233 3.38822856765378
vertex 123.1911074838 21.6410481135233 3.75
endloop
endfacet
facet normal 0.0 -1.0 0.0
outer loop
vertex 121.490145589477 21.6410481135233 6.0
vertex 123.1911074838 21.6410481135233 3.75
vertex 123.429485417697 21.6410481135233 4.06066017177982
endloop
endfacet
facet normal 0.0 -1.0 0.0
outer loop
vertex 121.490145589477 21.6410481135233 6.0
vertex 123.429485417697 21.6410481135233 4.06066017177982
vertex 123.740145589476 21.6410481135233 4.29903810567666
endloop
endfacet
facet normal 0.0 -1.0 0.0
outer loop
vertex 121.490145589477 21.6410481135233 6.0
vertex 123.740145589476 21.6410481135233 4.29903810567666
vertex 124.101917021823 21.6410481135233 4.4488887394336
endloop
endfacet
facet normal 0.0 -1.0 0.0
outer loop
vertex 121.490145589477 21.6410481135233 6.0
vertex 124.101917021823 21.6410481135233 4.4488887394336
vertex 124.490145589476 21.6410481135233 4.5
endloop
endfacet
facet normal 0.0 -1.0 0.0
outer loop
vertex 121.490145589477 21.6410481135233 6.0
vertex 124.490145589476 21.6410481135233 4.5
vertex 129.490145589477 21.6410481135233 6.0
endloop
endfacet
facet normal 0.258819045102515 0.0 -0.96592582628907
outer loop
vertex 124.051917021823 7.64104811352327 4.4488887394336
vertex 123.690145589477 4.64104811352327 4.29903810567666
vertex 123.690145589477 7.64104811352327 4.29903810567666
endloop
endfacet
facet normal 0.499999999999999 0.0 -0.866025403784439
outer loop
vertex 123.690145589477 4.64104811352327 4.29903810567666
vertex 124.051917021823 7.64104811352327 4.4488887394336
vertex 124.051917021823 4.64104811352327 4.4488887394336
endloop
endfacet
facet normal 0.965925826289067 0.0 0.258819045102527
outer loop
vertex 123.041256850043 24.6410481135233 2.61177143234622
vertex 122.990145589477 21.6410481135233 3.0
vertex 123.041256850043 21.6410481135233 2.61177143234622
endloop
endfacet
facet normal 1.0 0.0 -1.69311088017291e-16
outer loop
vertex 122.990145589477 21.6410481135233 3.0
vertex 123.041256850043 24.6410481135233 2.61177143234622
vertex 122.990145589477 24.6410481135233 3.0
endloop
endfacet
facet normal 0.707106781186546 0.0 0.707106781186549
outer loop
vertex 123.429485417697 24.6410481135233 1.93933982822018
vertex 123.1911074838 21.6410481135233 2.25
vertex 123.429485417697 21.6410481135233 1.93933982822018
endloop
endfacet
facet normal 0.866025403784439 0.0 0.5
outer loop
vertex 123.1911074838 21.6410481135233 2.25
vertex 123.429485417697 24.6410481135233 1.93933982822018
vertex 123.1911074838 24.6410481135233 2.25
endloop
endfacet
facet normal -0.707106781186558 0.0 0.707106781186537
outer loop
vertex 125.500805761256 4.64104811352327 1.93933982822018
vertex 125.190145589477 7.64104811352327 1.70096189432334
vertex 125.190145589477 4.64104811352327 1.70096189432334
endloop
endfacet
facet normal -0.499999999999999 0.0 0.866025403784439
outer loop
vertex 125.190145589477 7.64104811352327 1.70096189432334
vertex 125.500805761256 4.64104811352327 1.93933982822018
vertex 125.500805761256 7.64104811352327 1.93933982822018
endloop
endfacet
facet normal 0.707106781186546 0.0 0.707106781186549
outer loop
vertex 123.379485417697 7.64104811352327 1.93933982822018
vertex 123.1411074838 4.64104811352327 2.25
vertex 123.379485417697 4.64104811352327 1.93933982822018
endloop
endfacet
facet normal 0.866025403784439 0.0 0.5
outer loop
vertex 123.1411074838 4.64104811352327 2.25
vertex 123.379485417697 7.64104811352327 1.93933982822018
vertex 123.1411074838 7.64104811352327 2.25
endloop
endfacet
facet normal -0.104516517478149 -0.994523150848807 -0.0
outer loop
vertex 132.273469808663 28.3178492875592 6.0
vertex 130.519769808663 28.5021492875592 0.0
vertex 132.273469808663 28.3178492875592 0.0
endloop
endfacet
facet normal -0.104516517478149 -0.994523150848807 -0.0
outer loop
vertex 130.519769808663 28.5021492875592 0.0
vertex 132.273469808663 28.3178492875592 6.0
vertex 130.519769808663 28.5021492875592 6.0
endloop
endfacet
facet normal -0.258819045102515 0.0 0.96592582628907
outer loop
vertex 124.82837415713 4.64104811352327 1.5511112605664
vertex 124.440145589477 7.64104811352327 1.5
vertex 124.440145589477 4.64104811352327 1.5
endloop
endfacet
facet normal -6.59422132277871e-16 0.0 1.0
outer loop
vertex 124.440145589477 7.64104811352327 1.5
vertex 124.82837415713 4.64104811352327 1.5511112605664
vertex 124.82837415713 7.64104811352327 1.5511112605664
endloop
endfacet
facet normal 0.0 0.0 -1.0
outer loop
vertex 124.490145589476 24.6410481135233 4.5
vertex 124.101917021823 21.6410481135233 4.4488887394336
vertex 124.101917021823 24.6410481135233 4.4488887394336
endloop
endfacet
facet normal 0.258819045102514 0.0 -0.96592582628907
outer loop
vertex 124.101917021823 21.6410481135233 4.4488887394336
vertex 124.490145589476 24.6410481135233 4.5
vertex 124.490145589476 21.6410481135233 4.5
endloop
endfacet
facet normal -0.0 1.0 -0.0
outer loop
vertex 127.449465145167 30.1410481135233 6.0
vertex 134.240145589477 30.1410481135233 0.0
vertex 127.449465145167 30.1410481135233 -3.52495810318487e-16
endloop
endfacet
facet normal -0.0 1.0 -0.0
outer loop
vertex 134.240145589477 30.1410481135233 0.0
vertex 127.449465145167 30.1410481135233 6.0
vertex 134.240145589477 30.1410481135233 6.0
endloop
endfacet
facet normal -0.258819045102515 0.0 0.96592582628907
outer loop
vertex 124.87837415713 21.6410481135233 1.5511112605664
vertex 124.490145589476 24.6410481135233 1.5
vertex 124.490145589476 21.6410481135233 1.5
endloop
endfacet
facet normal -6.59422132277871e-16 0.0 1.0
outer loop
vertex 124.490145589476 24.6410481135233 1.5
vertex 124.87837415713 21.6410481135233 1.5511112605664
vertex 124.87837415713 24.6410481135233 1.5511112605664
endloop
endfacet
facet normal -0.866025403784439 0.0 -0.499999999999999
outer loop
vertex 125.789183695153 24.6410481135233 3.75
vertex 125.93903432891 21.6410481135233 3.38822856765378
vertex 125.789183695153 21.6410481135233 3.75
endloop
endfacet
facet normal -0.965925826289067 0.0 -0.258819045102526
outer loop
vertex 125.93903432891 21.6410481135233 3.38822856765378
vertex 125.789183695153 24.6410481135233 3.75
vertex 125.93903432891 24.6410481135233 3.38822856765378
endloop
endfacet
facet normal -0.258819045102525 0.0 -0.965925826289067
outer loop
vertex 124.82837415713 7.64104811352327 4.4488887394336
vertex 124.440145589477 4.64104811352327 4.5
vertex 124.440145589477 7.64104811352327 4.5
endloop
endfacet
facet normal 0.0 0.0 -1.0
outer loop
vertex 124.440145589477 4.64104811352327 4.5
vertex 124.82837415713 7.64104811352327 4.4488887394336
vertex 124.82837415713 4.64104811352327 4.4488887394336
endloop
endfacet
facet normal 0.866025403784439 0.0 -0.499999999999999
outer loop
vertex 123.1411074838 7.64104811352327 3.75
vertex 123.379485417697 4.64104811352327 4.06066017177982
vertex 123.1411074838 4.64104811352327 3.75
endloop
endfacet
facet normal 0.707106781186558 0.0 -0.707106781186536
outer loop
vertex 123.379485417697 4.64104811352327 4.06066017177982
vertex 123.1411074838 7.64104811352327 3.75
vertex 123.379485417697 7.64104811352327 4.06066017177982
endloop
endfacet
facet normal -0.965925826289067 0.0 -0.258819045102527
outer loop
vertex 125.88903432891 7.64104811352327 3.38822856765378
vertex 125.940145589477 4.64104811352327 3.0
vertex 125.88903432891 4.64104811352327 3.38822856765378
endloop
endfacet
facet normal -1.0 0.0 5.34666593738814e-17
outer loop
vertex 125.940145589477 4.64104811352327 3.0
vertex 125.88903432891 7.64104811352327 3.38822856765378
vertex 125.940145589477 7.64104811352327 3.0
endloop
endfacet
facet normal 0.913549437934192 -0.406727703076792 -0.0
outer loop
vertex 130.519769808663 28.5021492875592 0.0
vertex 129.802569808663 26.8912492875592 6.0
vertex 129.802569808663 26.8912492875592 0.0
endloop
endfacet
facet normal 0.913549437934192 -0.406727703076792 -0.0
outer loop
vertex 129.802569808663 26.8912492875592 6.0
vertex 130.519769808663 28.5021492875592 0.0
vertex 130.519769808663 28.5021492875592 6.0
endloop
endfacet
facet normal -0.965925826289067 0.0 0.258819045102527
outer loop
vertex 125.93903432891 24.6410481135233 2.61177143234622
vertex 125.789183695153 21.6410481135233 2.25
vertex 125.93903432891 21.6410481135233 2.61177143234622
endloop
endfacet
facet normal -0.866025403784439 0.0 0.499999999999999
outer loop
vertex 125.789183695153 21.6410481135233 2.25
vertex 125.93903432891 24.6410481135233 2.61177143234622
vertex 125.789183695153 24.6410481135233 2.25
endloop
endfacet
facet normal -1.0 0.0 0.0
outer loop
vertex 125.990145589476 24.6410481135233 3.0
vertex 125.93903432891 21.6410481135233 2.61177143234622
vertex 125.990145589476 21.6410481135233 3.0
endloop
endfacet
facet normal -0.965925826289067 0.0 0.258819045102527
outer loop
vertex 125.93903432891 21.6410481135233 2.61177143234622
vertex 125.990145589476 24.6410481135233 3.0
vertex 125.93903432891 24.6410481135233 2.61177143234622
endloop
endfacet
facet normal 0.258819045102525 0.0 0.965925826289067
outer loop
vertex 124.051917021823 4.64104811352327 1.5511112605664
vertex 123.690145589477 7.64104811352327 1.70096189432334
vertex 123.690145589477 4.64104811352327 1.70096189432334
endloop
endfacet
facet normal 0.499999999999993 0.0 0.866025403784442
outer loop
vertex 123.690145589477 7.64104811352327 1.70096189432334
vertex 124.051917021823 4.64104811352327 1.5511112605664
vertex 124.051917021823 7.64104811352327 1.5511112605664
endloop
endfacet
facet normal -0.978138091571903 -0.207956422877669 -0.0
outer loop
vertex 132.273469808663 28.3178492875592 6.0
vertex 132.640169808663 26.5930492875592 0.0
vertex 132.640169808663 26.5930492875592 6.0
endloop
endfacet
facet normal -0.978138091571903 -0.207956422877669 -0.0
outer loop
vertex 132.640169808663 26.5930492875592 0.0
vertex 132.273469808663 28.3178492875592 6.0
vertex 132.273469808663 28.3178492875592 0.0
endloop
endfacet
facet normal 1.0 0.0 -2.22777747391172e-16
outer loop
vertex 122.940145589477 7.64104811352327 3.0
vertex 122.991256850043 4.64104811352327 3.38822856765378
vertex 122.940145589477 4.64104811352327 3.0
endloop
endfacet
facet normal 0.965925826289067 0.0 -0.258819045102527
outer loop
vertex 122.991256850043 4.64104811352327 3.38822856765378
vertex 122.940145589477 7.64104811352327 3.0
vertex 122.991256850043 7.64104811352327 3.38822856765378
endloop
endfacet
facet normal 0.499999999999999 0.0 -0.866025403784439
outer loop
vertex 123.740145589476 24.6410481135233 4.29903810567666
vertex 123.429485417697 21.6410481135233 4.06066017177982
vertex 123.429485417697 24.6410481135233 4.06066017177982
endloop
endfacet
facet normal 0.707106781186559 0.0 -0.707106781186536
outer loop
vertex 123.429485417697 21.6410481135233 4.06066017177982
vertex 123.740145589476 24.6410481135233 4.29903810567666
vertex 123.740145589476 21.6410481135233 4.29903810567666
endloop
endfacet
facet normal 0.913549437934192 -0.40672770307679 -0.0
outer loop
vertex 130.460345144437 3.56190671002612 0.0
vertex 129.743145144437 1.95100671002612 6.0
vertex 129.743145144437 1.95100671002612 0.0
endloop
endfacet
facet normal 0.913549437934192 -0.40672770307679 -0.0
outer loop
vertex 129.743145144437 1.95100671002612 6.0
vertex 130.460345144437 3.56190671002612 0.0
vertex 130.460345144437 3.56190671002612 6.0
endloop
endfacet
facet normal -0.49998752530769 0.866032605931608 -0.0
outer loop
vertex 131.053545144437 0.771106710026119 6.0
vertex 132.580745144437 1.65280671002612 0.0
vertex 131.053545144437 0.771106710026119 0.0
endloop
endfacet
facet normal -0.49998752530769 0.866032605931608 -0.0
outer loop
vertex 132.580745144437 1.65280671002612 0.0
vertex 131.053545144437 0.771106710026119 6.0
vertex 132.580745144437 1.65280671002612 6.0
endloop
endfacet
facet normal 0.258819045102514 0.0 -0.96592582628907
outer loop
vertex 124.101917021823 24.6410481135233 4.4488887394336
vertex 123.740145589476 21.6410481135233 4.29903810567666
vertex 123.740145589476 24.6410481135233 4.29903810567666
endloop
endfacet
facet normal 0.499999999999999 0.0 -0.866025403784439
outer loop
vertex 123.740145589476 21.6410481135233 4.29903810567666
vertex 124.101917021823 24.6410481135233 4.4488887394336
vertex 124.101917021823 21.6410481135233 4.4488887394336
endloop
endfacet
facet normal -0.965925826289067 0.0 -0.258819045102526
outer loop
vertex 125.93903432891 24.6410481135233 3.38822856765378
vertex 125.990145589476 21.6410481135233 3.0
vertex 125.93903432891 21.6410481135233 3.38822856765378
endloop
endfacet
facet normal -1.0 0.0 0.0
outer loop
vertex 125.990145589476 21.6410481135233 3.0
vertex 125.93903432891 24.6410481135233 3.38822856765378
vertex 125.990145589476 24.6410481135233 3.0
endloop
endfacet
facet normal 0.866025403784439 0.0 -0.5
outer loop
vertex 123.1911074838 24.6410481135233 3.75
vertex 123.429485417697 21.6410481135233 4.06066017177982
vertex 123.1911074838 21.6410481135233 3.75
endloop
endfacet
facet normal 0.707106781186559 0.0 -0.707106781186536
outer loop
vertex 123.429485417697 21.6410481135233 4.06066017177982
vertex 123.1911074838 24.6410481135233 3.75
vertex 123.429485417697 24.6410481135233 4.06066017177982
endloop
endfacet
facet normal 1.0 0.0 0.0
outer loop
vertex 134.240145589477 30.1410481135233 0.0
vertex 134.240145589477 -0.85895188647672 6.0
vertex 134.240145589477 -0.85895188647672 0.0
endloop
endfacet
facet normal 1.0 0.0 0.0
outer loop
vertex 134.240145589477 -0.85895188647672 6.0
vertex 134.240145589477 30.1410481135233 0.0
vertex 134.240145589477 30.1410481135233 6.0
endloop
endfacet
facet normal -0.104516517478151 -0.994523150848807 -0.0
outer loop
vertex 132.214045144437 3.37760671002612 6.0
vertex 130.460345144437 3.56190671002612 0.0
vertex 132.214045144437 3.37760671002612 0.0
endloop
endfacet
facet normal -0.104516517478151 -0.994523150848807 -0.0
outer loop
vertex 130.460345144437 3.56190671002612 0.0
vertex 132.214045144437 3.37760671002612 6.0
vertex 130.460345144437 3.56190671002612 6.0
endloop
endfacet
facet normal 0.965925826289067 0.0 -0.258819045102527
outer loop
vertex 122.991256850043 7.64104811352327 3.38822856765378
vertex 123.1411074838 4.64104811352327 3.75
vertex 122.991256850043 4.64104811352327 3.38822856765378
endloop
endfacet
facet normal 0.866025403784439 0.0 -0.499999999999999
outer loop
vertex 123.1411074838 4.64104811352327 3.75
vertex 122.991256850043 7.64104811352327 3.38822856765378
vertex 123.1411074838 7.64104811352327 3.75
endloop
endfacet
facet normal -0.258819045102525 0.0 -0.965925826289067
outer loop
vertex 124.87837415713 24.6410481135233 4.4488887394336
vertex 124.490145589476 21.6410481135233 4.5
vertex 124.490145589476 24.6410481135233 4.5
endloop
endfacet
facet normal 0.0 0.0 -1.0
outer loop
vertex 124.490145589476 21.6410481135233 4.5
vertex 124.87837415713 24.6410481135233 4.4488887394336
vertex 124.87837415713 21.6410481135233 4.4488887394336
endloop
endfacet
facet normal 1.0 0.0 -1.69311088017291e-16
outer loop
vertex 122.990145589477 24.6410481135233 3.0
vertex 123.041256850043 21.6410481135233 3.38822856765378
vertex 122.990145589477 21.6410481135233 3.0
endloop
endfacet
facet normal 0.965925826289067 0.0 -0.258819045102527
outer loop
vertex 123.041256850043 21.6410481135233 3.38822856765378
vertex 122.990145589477 24.6410481135233 3.0
vertex 123.041256850043 24.6410481135233 3.38822856765378
endloop
endfacet
facet normal -1.0 0.0 0.0
outer loop
vertex 121.490145589477 7.64104811352327 6.0
vertex 121.490145589477 4.64104811352327 0.0
vertex 121.490145589477 4.64104811352327 6.0
endloop
endfacet
facet normal -1.0 0.0 0.0
outer loop
vertex 121.490145589477 4.64104811352327 0.0
vertex 121.490145589477 7.64104811352327 6.0
vertex 121.490145589477 7.64104811352327 3.52495810318487e-16
endloop
endfacet
facet normal 0.0 -1.0 0.0
outer loop
vertex 134.240145589477 -0.85895188647672 6.0
vertex 127.411457023389 -0.85895188647672 0.0
vertex 134.240145589477 -0.85895188647672 0.0
endloop
endfacet
facet normal 0.0 -1.0 0.0
outer loop
vertex 127.411457023389 -0.85895188647672 0.0
vertex 134.240145589477 -0.85895188647672 6.0
vertex 127.411457023389 -0.85895188647672 6.0
endloop
endfacet
facet normal 0.0 1.0 0.0
outer loop
vertex 121.490145589477 7.64104811352327 3.52495810318487e-16
vertex 124.051917021823 7.64104811352327 1.5511112605664
vertex 129.490145589477 7.64104811352327 3.52495810318487e-16
endloop
endfacet
facet normal 0.0 1.0 0.0
outer loop
vertex 124.051917021823 7.64104811352327 1.5511112605664
vertex 121.490145589477 7.64104811352327 3.52495810318487e-16
vertex 123.690145589477 7.64104811352327 1.70096189432334
endloop
endfacet
facet normal 0.0 1.0 0.0
outer loop
vertex 123.690145589477 7.64104811352327 1.70096189432334
vertex 121.490145589477 7.64104811352327 3.52495810318487e-16
vertex 123.379485417697 7.64104811352327 1.93933982822018
endloop
endfacet
facet normal 0.0 1.0 0.0
outer loop
vertex 123.379485417697 7.64104811352327 1.93933982822018
vertex 121.490145589477 7.64104811352327 3.52495810318487e-16
vertex 123.1411074838 7.64104811352327 2.25
endloop
endfacet
facet normal 0.0 1.0 0.0
outer loop
vertex 123.1411074838 7.64104811352327 2.25
vertex 121.490145589477 7.64104811352327 3.52495810318487e-16
vertex 121.490145589477 7.64104811352327 6.0
endloop
endfacet
facet normal 0.0 1.0 0.0
outer loop
vertex 129.490145589477 7.64104811352327 3.52495810318487e-16
vertex 124.051917021823 7.64104811352327 1.5511112605664
vertex 124.440145589477 7.64104811352327 1.5
endloop
endfacet
facet normal 0.0 1.0 0.0
outer loop
vertex 123.1411074838 7.64104811352327 2.25
vertex 121.490145589477 7.64104811352327 6.0
vertex 122.991256850043 7.64104811352327 2.61177143234622
endloop
endfacet
facet normal 0.0 1.0 0.0
outer loop
vertex 122.991256850043 7.64104811352327 2.61177143234622
vertex 121.490145589477 7.64104811352327 6.0
vertex 122.940145589477 7.64104811352327 3.0
endloop
endfacet
facet normal 0.0 1.0 0.0
outer loop
vertex 122.940145589477 7.64104811352327 3.0
vertex 121.490145589477 7.64104811352327 6.0
vertex 122.991256850043 7.64104811352327 3.38822856765378
endloop
endfacet
facet normal 0.0 1.0 0.0
outer loop
vertex 122.991256850043 7.64104811352327 3.38822856765378
vertex 121.490145589477 7.64104811352327 6.0
vertex 123.1411074838 7.64104811352327 3.75
endloop
endfacet
facet normal 0.0 1.0 0.0
outer loop
vertex 123.1411074838 7.64104811352327 3.75
vertex 121.490145589477 7.64104811352327 6.0
vertex 123.379485417697 7.64104811352327 4.06066017177982
endloop
endfacet
facet normal 0.0 1.0 0.0
outer loop
vertex 123.379485417697 7.64104811352327 4.06066017177982
vertex 121.490145589477 7.64104811352327 6.0
vertex 123.690145589477 7.64104811352327 4.29903810567666
endloop
endfacet
facet normal 0.0 1.0 0.0
outer loop
vertex 123.690145589477 7.64104811352327 4.29903810567666
vertex 121.490145589477 7.64104811352327 6.0
vertex 124.051917021823 7.64104811352327 4.4488887394336
endloop
endfacet
facet normal 0.0 1.0 0.0
outer loop
vertex 124.051917021823 7.64104811352327 4.4488887394336
vertex 121.490145589477 7.64104811352327 6.0
vertex 124.440145589477 7.64104811352327 4.5
endloop
endfacet
facet normal 0.0 1.0 0.0
outer loop
vertex 129.490145589477 7.64104811352327 3.52495810318487e-16
vertex 125.500805761256 7.64104811352327 1.93933982822018
vertex 129.490145589477 7.64104811352327 6.0
endloop
endfacet
facet normal 0.0 1.0 0.0
outer loop
vertex 125.500805761256 7.64104811352327 1.93933982822018
vertex 129.490145589477 7.64104811352327 3.52495810318487e-16
vertex 125.190145589477 7.64104811352327 1.70096189432334
endloop
endfacet
facet normal 0.0 1.0 0.0
outer loop
vertex 125.190145589477 7.64104811352327 1.70096189432334
vertex 129.490145589477 7.64104811352327 3.52495810318487e-16
vertex 124.82837415713 7.64104811352327 1.5511112605664
endloop
endfacet
facet normal 0.0 1.0 0.0
outer loop
vertex 124.82837415713 7.64104811352327 1.5511112605664
vertex 129.490145589477 7.64104811352327 3.52495810318487e-16
vertex 124.440145589477 7.64104811352327 1.5
endloop
endfacet
facet normal 0.0 1.0 0.0
outer loop
vertex 129.490145589477 7.64104811352327 6.0
vertex 125.500805761256 7.64104811352327 1.93933982822018
vertex 125.739183695153 7.64104811352327 2.25
endloop
endfacet
facet normal 0.0 1.0 0.0
outer loop
vertex 129.490145589477 7.64104811352327 6.0
vertex 125.739183695153 7.64104811352327 2.25
vertex 125.88903432891 7.64104811352327 2.61177143234622
endloop
endfacet
facet normal 0.0 1.0 0.0
outer loop
vertex 129.490145589477 7.64104811352327 6.0
vertex 125.88903432891 7.64104811352327 2.61177143234622
vertex 125.940145589477 7.64104811352327 3.0
endloop
endfacet
facet normal 0.0 1.0 0.0
outer loop
vertex 129.490145589477 7.64104811352327 6.0
vertex 125.940145589477 7.64104811352327 3.0
vertex 125.88903432891 7.64104811352327 3.38822856765378
endloop
endfacet
facet normal 0.0 1.0 0.0
outer loop
vertex 129.490145589477 7.64104811352327 6.0
vertex 125.88903432891 7.64104811352327 3.38822856765378
vertex 125.739183695153 7.64104811352327 3.75
endloop
endfacet
facet normal 0.0 1.0 0.0
outer loop
vertex 129.490145589477 7.64104811352327 6.0
vertex 125.739183695153 7.64104811352327 3.75
vertex 125.500805761256 7.64104811352327 4.06066017177982
endloop
endfacet
facet normal 0.0 1.0 0.0
outer loop
vertex 129.490145589477 7.64104811352327 6.0
vertex 125.500805761256 7.64104811352327 4.06066017177982
vertex 125.190145589477 7.64104811352327 4.29903810567666
endloop
endfacet
facet normal 0.0 1.0 0.0
outer loop
vertex 129.490145589477 7.64104811352327 6.0
vertex 125.190145589477 7.64104811352327 4.29903810567666
vertex 124.82837415713 7.64104811352327 4.4488887394336
endloop
endfacet
facet normal 0.0 1.0 0.0
outer loop
vertex 129.490145589477 7.64104811352327 6.0
vertex 124.82837415713 7.64104811352327 4.4488887394336
vertex 124.440145589477 7.64104811352327 4.5
endloop
endfacet
facet normal 0.0 1.0 0.0
outer loop
vertex 129.490145589477 7.64104811352327 6.0
vertex 124.440145589477 7.64104811352327 4.5
vertex 121.490145589477 7.64104811352327 6.0
endloop
endfacet
facet normal -0.707106781186546 0.0 -0.707106781186549
outer loop
vertex 125.550805761256 24.6410481135233 4.06066017177982
vertex 125.240145589476 21.6410481135233 4.29903810567666
vertex 125.240145589476 24.6410481135233 4.29903810567666
endloop
endfacet
facet normal -0.499999999999993 0.0 -0.866025403784443
outer loop
vertex 125.240145589476 21.6410481135233 4.29903810567666
vertex 125.550805761256 24.6410481135233 4.06066017177982
vertex 125.550805761256 21.6410481135233 4.06066017177982
endloop
endfacet
facet normal -1.0 0.0 0.0
outer loop
vertex 127.449465145167 30.1410481135233 6.0
vertex 127.449465145167 24.6410481135233 -3.52495810318487e-16
vertex 127.449465145167 24.6410481135233 6.0
endloop
endfacet
facet normal -1.0 0.0 0.0
outer loop
vertex 127.449465145167 24.6410481135233 -3.52495810318487e-16
vertex 127.449465145167 30.1410481135233 6.0
vertex 127.449465145167 30.1410481135233 -3.52495810318487e-16
endloop
endfacet
facet normal 0.258819045102525 0.0 0.965925826289067
outer loop
vertex 124.101917021823 21.6410481135233 1.5511112605664
vertex 123.740145589477 24.6410481135233 1.70096189432334
vertex 123.740145589477 21.6410481135233 1.70096189432334
endloop
endfacet
facet normal 0.499999999999993 0.0 0.866025403784443
outer loop
vertex 123.740145589477 24.6410481135233 1.70096189432334
vertex 124.101917021823 21.6410481135233 1.5511112605664
vertex 124.101917021823 24.6410481135233 1.5511112605664
endloop
endfacet
facet normal 0.0 -1.0 0.0
outer loop
vertex 127.411457023389 4.64104811352327 0.0
vertex 125.190145589477 4.64104811352327 1.70096189432334
vertex 121.490145589477 4.64104811352327 0.0
endloop
endfacet
facet normal 0.0 -1.0 0.0
outer loop
vertex 125.190145589477 4.64104811352327 1.70096189432334
vertex 127.411457023389 4.64104811352327 0.0
vertex 125.500805761256 4.64104811352327 1.93933982822018
endloop
endfacet
facet normal 0.0 -1.0 0.0
outer loop
vertex 125.500805761256 4.64104811352327 1.93933982822018
vertex 127.411457023389 4.64104811352327 0.0
vertex 125.739183695153 4.64104811352327 2.25
endloop
endfacet
facet normal 0.0 -1.0 0.0
outer loop
vertex 125.739183695153 4.64104811352327 2.25
vertex 127.411457023389 4.64104811352327 0.0
vertex 127.411457023389 4.64104811352327 6.0
endloop
endfacet
facet normal 0.0 -1.0 0.0
outer loop
vertex 121.490145589477 4.64104811352327 0.0
vertex 125.190145589477 4.64104811352327 1.70096189432334
vertex 124.82837415713 4.64104811352327 1.5511112605664
endloop
endfacet
facet normal 0.0 -1.0 0.0
outer loop
vertex 121.490145589477 4.64104811352327 0.0
vertex 124.82837415713 4.64104811352327 1.5511112605664
vertex 124.440145589477 4.64104811352327 1.5
endloop
endfacet
facet normal 0.0 -1.0 0.0
outer loop
vertex 125.739183695153 4.64104811352327 2.25
vertex 127.411457023389 4.64104811352327 6.0
vertex 125.88903432891 4.64104811352327 2.61177143234622
endloop
endfacet
facet normal 0.0 -1.0 0.0
outer loop
vertex 125.88903432891 4.64104811352327 2.61177143234622
vertex 127.411457023389 4.64104811352327 6.0
vertex 125.940145589477 4.64104811352327 3.0
endloop
endfacet
facet normal 0.0 -1.0 0.0
outer loop
vertex 125.940145589477 4.64104811352327 3.0
vertex 127.411457023389 4.64104811352327 6.0
vertex 125.88903432891 4.64104811352327 3.38822856765378
endloop
endfacet
facet normal 0.0 -1.0 0.0
outer loop
vertex 125.88903432891 4.64104811352327 3.38822856765378
vertex 127.411457023389 4.64104811352327 6.0
vertex 125.739183695153 4.64104811352327 3.75
endloop
endfacet
facet normal 0.0 -1.0 0.0
outer loop
vertex 125.739183695153 4.64104811352327 3.75
vertex 127.411457023389 4.64104811352327 6.0
vertex 125.500805761256 4.64104811352327 4.06066017177982
endloop
endfacet
facet normal 0.0 -1.0 0.0
outer loop
vertex 125.500805761256 4.64104811352327 4.06066017177982
vertex 127.411457023389 4.64104811352327 6.0
vertex 125.190145589477 4.64104811352327 4.29903810567666
endloop
endfacet
facet normal 0.0 -1.0 0.0
outer loop
vertex 125.190145589477 4.64104811352327 4.29903810567666
vertex 127.411457023389 4.64104811352327 6.0
vertex 124.82837415713 4.64104811352327 4.4488887394336
endloop
endfacet
facet normal 0.0 -1.0 0.0
outer loop
vertex 124.82837415713 4.64104811352327 4.4488887394336
vertex 127.411457023389 4.64104811352327 6.0
vertex 124.440145589477 4.64104811352327 4.5
endloop
endfacet
facet normal 0.0 -1.0 0.0
outer loop
vertex 121.490145589477 4.64104811352327 0.0
vertex 123.1411074838 4.64104811352327 2.25
vertex 121.490145589477 4.64104811352327 6.0
endloop
endfacet
facet normal 0.0 -1.0 0.0
outer loop
vertex 123.1411074838 4.64104811352327 2.25
vertex 121.490145589477 4.64104811352327 0.0
vertex 123.379485417697 4.64104811352327 1.93933982822018
endloop
endfacet
facet normal 0.0 -1.0 0.0
outer loop
vertex 123.379485417697 4.64104811352327 1.93933982822018
vertex 121.490145589477 4.64104811352327 0.0
vertex 123.690145589477 4.64104811352327 1.70096189432334
endloop
endfacet
facet normal 0.0 -1.0 0.0
outer loop
vertex 123.690145589477 4.64104811352327 1.70096189432334
vertex 121.490145589477 4.64104811352327 0.0
vertex 124.051917021823 4.64104811352327 1.5511112605664
endloop
endfacet
facet normal 0.0 -1.0 0.0
outer loop
vertex 124.051917021823 4.64104811352327 1.5511112605664
vertex 121.490145589477 4.64104811352327 0.0
vertex 124.440145589477 4.64104811352327 1.5
endloop
endfacet
facet normal 0.0 -1.0 0.0
outer loop
vertex 121.490145589477 4.64104811352327 6.0
vertex 123.1411074838 4.64104811352327 2.25
vertex 122.991256850043 4.64104811352327 2.61177143234622
endloop
endfacet
facet normal 0.0 -1.0 0.0
outer loop
vertex 121.490145589477 4.64104811352327 6.0
vertex 122.991256850043 4.64104811352327 2.61177143234622
vertex 122.940145589477 4.64104811352327 3.0
endloop
endfacet
facet normal 0.0 -1.0 0.0
outer loop
vertex 121.490145589477 4.64104811352327 6.0
vertex 122.940145589477 4.64104811352327 3.0
vertex 122.991256850043 4.64104811352327 3.38822856765378
endloop
endfacet
facet normal 0.0 -1.0 0.0
outer loop
vertex 121.490145589477 4.64104811352327 6.0
vertex 122.991256850043 4.64104811352327 3.38822856765378
vertex 123.1411074838 4.64104811352327 3.75
endloop
endfacet
facet normal 0.0 -1.0 0.0
outer loop
vertex 121.490145589477 4.64104811352327 6.0
vertex 123.1411074838 4.64104811352327 3.75
vertex 123.379485417697 4.64104811352327 4.06066017177982
endloop
endfacet
facet normal 0.0 -1.0 0.0
outer loop
vertex 121.490145589477 4.64104811352327 6.0
vertex 123.379485417697 4.64104811352327 4.06066017177982
vertex 123.690145589477 4.64104811352327 4.29903810567666
endloop
endfacet
facet normal 0.0 -1.0 0.0
outer loop
vertex 121.490145589477 4.64104811352327 6.0
vertex 123.690145589477 4.64104811352327 4.29903810567666
vertex 124.051917021823 4.64104811352327 4.4488887394336
endloop
endfacet
facet normal 0.0 -1.0 0.0
outer loop
vertex 121.490145589477 4.64104811352327 6.0
vertex 124.051917021823 4.64104811352327 4.4488887394336
vertex 124.440145589477 4.64104811352327 4.5
endloop
endfacet
facet normal 0.0 -1.0 0.0
outer loop
vertex 121.490145589477 4.64104811352327 6.0
vertex 124.440145589477 4.64104811352327 4.5
vertex 127.411457023389 4.64104811352327 6.0
endloop
endfacet
endsolid new effoctor
