solid new effoctor
facet normal 1.0 0.0 0.0
outer loop
vertex 115.758275582178 99.7568198714762 0.0
vertex 115.792349755889 99.4980008263737 3.0
vertex 115.792349755889 99.4980008263737 0.0
endloop
endfacet
facet normal 0.965925826289066 0.258819045102529 0.0
outer loop
vertex 115.792349755889 99.4980008263737 3.0
vertex 115.758275582178 99.7568198714762 0.0
vertex 115.758275582178 99.7568198714762 3.0
endloop
endfacet
facet normal -0.670517372324856 -0.741893828934147 0.0
outer loop
vertex 110.132844875059 109.114582555972 3.0
vertex 109.595685930577 109.485240673041 0.0
vertex 110.132844875059 109.114582555972 0.0
endloop
endfacet
facet normal -0.45565379453187 -0.890157075761749 0.0
outer loop
vertex 109.595685930577 109.485240673041 0.0
vertex 110.132844875059 109.114582555972 3.0
vertex 109.595685930577 109.485240673041 3.0
endloop
endfacet
facet normal 0.741893828934147 -0.670517372324856 0.0
outer loop
vertex 106.601816871912 108.936141414449 0.0
vertex 106.231158754843 108.398982469966 3.0
vertex 106.231158754843 108.398982469966 0.0
endloop
endfacet
facet normal 0.890157075761749 -0.45565379453187 0.0
outer loop
vertex 106.231158754843 108.398982469966 3.0
vertex 106.601816871912 108.936141414449 0.0
vertex 106.601816871912 108.936141414449 3.0
endloop
endfacet
facet normal 0.977757588930309 -0.20973816364503 0.0
outer loop
vertex 106.012157471921 107.784193392749 0.0
vertex 105.959737598662 107.133671042423 3.0
vertex 105.959737598662 107.133671042423 0.0
endloop
endfacet
facet normal 0.998725538234079 0.0504707764855105 0.0
outer loop
vertex 105.959737598662 107.133671042423 3.0
vertex 106.012157471921 107.784193392749 0.0
vertex 106.012157471921 107.784193392749 3.0
endloop
endfacet
facet normal -0.951631992579184 -0.307240216605464 0.0
outer loop
vertex 110.835631425695 108.02794852515 3.0
vertex 110.953365289832 107.38602492485 0.0
vertex 110.953365289832 107.38602492485 3.0
endloop
endfacet
facet normal -0.998725538234079 -0.0504707764855105 0.0
outer loop
vertex 110.953365289832 107.38602492485 0.0
vertex 110.835631425695 108.02794852515 3.0
vertex 110.835631425695 108.02794852515 0.0
endloop
endfacet
facet normal 0.0 0.0 -1.0
outer loop
vertex 93.956551444247 119.241721097527 0.0
vertex 96.7906256179579 117.189236595524 0.0
vertex 93.956551444247 107.259847983637 0.0
endloop
endfacet
facet normal 0.0 0.0 -1.0
outer loop
vertex 96.7906256179579 117.189236595524 0.0
vertex 93.956551444247 119.241721097527 0.0
vertex 96.8905260404625 117.430417550421 0.0
endloop
endfacet
facet normal 0.0 0.0 -1.0
outer loop
vertex 96.8905260404625 117.430417550421 0.0
vertex 93.956551444247 119.241721097527 0.0
vertex 97.0494446630604 117.637524331608 0.0
endloop
endfacet
facet normal 0.0 0.0 -1.0
outer loop
vertex 97.0494446630604 117.637524331608 0.0
vertex 93.956551444247 119.241721097527 0.0
vertex 97.256551444247 117.796442954206 0.0
endloop
endfacet
facet normal 0.0 0.0 -1.0
outer loop
vertex 97.256551444247 117.796442954206 0.0
vertex 93.956551444247 119.241721097527 0.0
vertex 100.456551444247 119.241721097527 0.0
endloop
endfacet
facet normal 0.0 0.0 -1.0
outer loop
vertex 93.956551444247 107.259847983637 0.0
vertex 96.7906256179579 117.189236595524 0.0
vertex 94.4506269630555 103.50697182965 0.0
endloop
endfacet
facet normal 0.0 0.0 -1.0
outer loop
vertex 94.4506269630555 103.50697182965 0.0
vertex 96.7906256179579 117.189236595524 0.0
vertex 96.756551444247 116.930417550421 0.0
endloop
endfacet
facet normal 0.0 0.0 -1.0
outer loop
vertex 94.4506269630555 103.50697182965 0.0
vertex 96.756551444247 116.930417550421 0.0
vertex 95.8991830893727 100.009847983637 0.0
endloop
endfacet
facet normal 0.0 0.0 -1.0
outer loop
vertex 97.256551444247 117.796442954206 0.0
vertex 100.456551444247 119.241721097527 0.0
vertex 97.4977323991445 117.89634337671 0.0
endloop
endfacet
facet normal 0.0 0.0 -1.0
outer loop
vertex 97.4977323991445 117.89634337671 0.0
vertex 100.456551444247 119.241721097527 0.0
vertex 97.756551444247 117.930417550421 0.0
endloop
endfacet
facet normal 0.0 0.0 -1.0
outer loop
vertex 97.756551444247 117.930417550421 0.0
vertex 100.456551444247 119.241721097527 0.0
vertex 98.0153704893495 117.89634337671 0.0
endloop
endfacet
facet normal 0.0 0.0 -1.0
outer loop
vertex 98.0153704893495 117.89634337671 0.0
vertex 100.456551444247 119.241721097527 0.0
vertex 98.256551444247 117.796442954206 0.0
endloop
endfacet
facet normal 0.0 0.0 -1.0
outer loop
vertex 98.256551444247 117.796442954206 0.0
vertex 100.456551444247 119.241721097527 0.0
vertex 98.4147898706525 117.675022339089 0.0
endloop
endfacet
facet normal 0.0 0.0 -1.0
outer loop
vertex 98.4147898706525 117.675022339089 0.0
vertex 100.456551444247 119.241721097527 0.0
vertex 98.4636582254335 117.637524331608 0.0
endloop
endfacet
facet normal 0.0 0.0 -1.0
outer loop
vertex 98.4636582254335 117.637524331608 0.0
vertex 100.456551444247 119.241721097527 0.0
vertex 98.6225768480314 117.430417550421 0.0
endloop
endfacet
facet normal 0.0 0.0 -1.0
outer loop
vertex 98.6225768480314 117.430417550421 0.0
vertex 100.456551444247 119.241721097527 0.0
vertex 98.722477270536 117.189236595524 0.0
endloop
endfacet
facet normal 0.0 0.0 -1.0
outer loop
vertex 98.722477270536 117.189236595524 0.0
vertex 100.456551444247 119.241721097527 0.0
vertex 98.756551444247 116.930417550421 0.0
endloop
endfacet
facet normal 0.0 0.0 -1.0
outer loop
vertex 96.756551444247 116.930417550421 0.0
vertex 98.2035031170421 97.0067996564318 0.0
vertex 95.8991830893727 100.009847983637 0.0
endloop
endfacet
facet normal 0.0 0.0 -1.0
outer loop
vertex 98.2035031170421 97.0067996564318 0.0
vertex 96.756551444247 116.930417550421 0.0
vertex 96.7906256179579 116.671598505319 0.0
endloop
endfacet
facet normal 0.0 0.0 -1.0
outer loop
vertex 98.2035031170421 97.0067996564318 0.0
vertex 96.7906256179579 116.671598505319 0.0
vertex 96.8905260404625 116.430417550421 0.0
endloop
endfacet
facet normal 0.0 0.0 -1.0
outer loop
vertex 98.2035031170421 97.0067996564318 0.0
vertex 96.8905260404625 116.430417550421 0.0
vertex 97.0494446630604 116.223310769235 0.0
endloop
endfacet
facet normal 0.0 0.0 -1.0
outer loop
vertex 98.2035031170421 97.0067996564318 0.0
vertex 97.0494446630604 116.223310769235 0.0
vertex 97.1529980536537 116.143851457936 0.0
endloop
endfacet
facet normal 0.0 0.0 -1.0
outer loop
vertex 98.2035031170421 97.0067996564318 0.0
vertex 97.1529980536537 116.143851457936 0.0
vertex 97.256551444247 116.064392146637 0.0
endloop
endfacet
facet normal 0.0 0.0 -1.0
outer loop
vertex 98.2035031170421 97.0067996564318 0.0
vertex 97.256551444247 116.064392146637 0.0
vertex 97.4977323991445 115.964491724132 0.0
endloop
endfacet
facet normal 0.0 0.0 -1.0
outer loop
vertex 98.2035031170421 97.0067996564318 0.0
vertex 97.4977323991445 115.964491724132 0.0
vertex 97.756551444247 115.930417550421 0.0
endloop
endfacet
facet normal 0.0 0.0 -1.0
outer loop
vertex 98.2035031170421 97.0067996564318 0.0
vertex 97.756551444247 115.930417550421 0.0
vertex 98.0153704893495 115.964491724132 0.0
endloop
endfacet
facet normal 0.0 0.0 -1.0
outer loop
vertex 98.2035031170421 97.0067996564318 0.0
vertex 98.0153704893495 115.964491724132 0.0
vertex 98.256551444247 116.064392146637 0.0
endloop
endfacet
facet normal 0.0 0.0 -1.0
outer loop
vertex 98.2035031170421 97.0067996564318 0.0
vertex 98.256551444247 116.064392146637 0.0
vertex 101.206551444247 94.7024796287623 0.0
endloop
endfacet
facet normal 0.0 0.0 -1.0
outer loop
vertex 101.206551444247 94.7024796287623 0.0
vertex 98.256551444247 116.064392146637 0.0
vertex 98.4636582254335 116.223310769235 0.0
endloop
endfacet
facet normal 0.0 0.0 -1.0
outer loop
vertex 101.206551444247 94.7024796287623 0.0
vertex 98.4636582254335 116.223310769235 0.0
vertex 98.4944824787297 116.263481718229 0.0
endloop
endfacet
facet normal 0.0 0.0 -1.0
outer loop
vertex 101.206551444247 94.7024796287623 0.0
vertex 98.4944824787297 116.263481718229 0.0
vertex 98.6225768480314 116.430417550421 0.0
endloop
endfacet
facet normal 0.0 0.0 -1.0
outer loop
vertex 101.206551444247 94.7024796287623 0.0
vertex 98.6225768480314 116.430417550421 0.0
vertex 98.722477270536 116.671598505319 0.0
endloop
endfacet
facet normal 0.0 0.0 -1.0
outer loop
vertex 101.206551444247 94.7024796287623 0.0
vertex 98.722477270536 116.671598505319 0.0
vertex 98.756551444247 116.930417550421 0.0
endloop
endfacet
facet normal 0.0 0.0 -1.0
outer loop
vertex 101.206551444247 94.7024796287623 0.0
vertex 98.756551444247 116.930417550421 0.0
vertex 100.456551444247 119.241721097527 0.0
endloop
endfacet
facet normal 0.0 0.0 -1.0
outer loop
vertex 101.206551444247 94.7024796287623 0.0
vertex 100.456551444247 119.241721097527 0.0
vertex 106.231158754843 108.398982469966 0.0
endloop
endfacet
facet normal 0.0 0.0 -1.0
outer loop
vertex 106.231158754843 108.398982469966 0.0
vertex 100.456551444247 119.241721097527 0.0
vertex 106.601816871912 108.936141414449 0.0
endloop
endfacet
facet normal 0.0 0.0 -1.0
outer loop
vertex 106.601816871912 108.936141414449 0.0
vertex 100.456551444247 119.241721097527 0.0
vertex 107.098872084991 109.359063731827 0.0
endloop
endfacet
facet normal 0.0 0.0 -1.0
outer loop
vertex 107.098872084991 109.359063731827 0.0
vertex 100.456551444247 119.241721097527 0.0
vertex 107.688450902733 109.638927965085 0.0
endloop
endfacet
facet normal 0.0 0.0 -1.0
outer loop
vertex 107.688450902733 109.638927965085 0.0
vertex 100.456551444247 119.241721097527 0.0
vertex 119.156551444247 113.259847983637 0.0
endloop
endfacet
facet normal 0.0 0.0 -1.0
outer loop
vertex 101.206551444247 94.7024796287623 0.0
vertex 106.231158754843 108.398982469966 0.0
vertex 106.012157471921 107.784193392749 0.0
endloop
endfacet
facet normal 0.0 0.0 -1.0
outer loop
vertex 101.206551444247 94.7024796287623 0.0
vertex 106.012157471921 107.784193392749 0.0
vertex 104.70367529026 93.2539235024452 0.0
endloop
endfacet
facet normal 0.0 0.0 -1.0
outer loop
vertex 104.70367529026 93.2539235024452 0.0
vertex 106.012157471921 107.784193392749 0.0
vertex 105.959737598662 107.133671042423 0.0
endloop
endfacet
facet normal 0.0 0.0 -1.0
outer loop
vertex 107.688450902733 109.638927965085 0.0
vertex 119.156551444247 113.259847983637 0.0
vertex 108.330374503033 109.756661829222 0.0
endloop
endfacet
facet normal 0.0 0.0 -1.0
outer loop
vertex 108.330374503033 109.756661829222 0.0
vertex 119.156551444247 113.259847983637 0.0
vertex 108.98089685336 109.704241955962 0.0
endloop
endfacet
facet normal 0.0 0.0 -1.0
outer loop
vertex 108.98089685336 109.704241955962 0.0
vertex 119.156551444247 113.259847983637 0.0
vertex 109.595685930577 109.485240673041 0.0
endloop
endfacet
facet normal 0.0 0.0 -1.0
outer loop
vertex 109.595685930577 109.485240673041 0.0
vertex 119.156551444247 113.259847983637 0.0
vertex 110.132844875059 109.114582555972 0.0
endloop
endfacet
facet normal 0.0 0.0 -1.0
outer loop
vertex 110.132844875059 109.114582555972 0.0
vertex 119.156551444247 113.259847983637 0.0
vertex 110.555767192438 108.617527342892 0.0
endloop
endfacet
facet normal 0.0 0.0 -1.0
outer loop
vertex 110.555767192438 108.617527342892 0.0
vertex 119.156551444247 113.259847983637 0.0
vertex 110.835631425695 108.02794852515 0.0
endloop
endfacet
facet normal 0.0 0.0 -1.0
outer loop
vertex 110.835631425695 108.02794852515 0.0
vertex 119.156551444247 113.259847983637 0.0
vertex 110.953365289832 107.38602492485 0.0
endloop
endfacet
facet normal 0.0 0.0 -1.0
outer loop
vertex 110.953365289832 107.38602492485 0.0
vertex 119.156551444247 113.259847983637 0.0
vertex 112.209427598234 93.2539235024452 0.0
endloop
endfacet
facet normal 0.0 0.0 -1.0
outer loop
vertex 112.209427598234 93.2539235024452 0.0
vertex 119.156551444247 113.259847983637 0.0
vertex 115.792349755889 100.015638916579 0.0
endloop
endfacet
facet normal 0.0 0.0 -1.0
outer loop
vertex 112.209427598234 93.2539235024452 0.0
vertex 115.792349755889 100.015638916579 0.0
vertex 115.758275582178 99.7568198714762 0.0
endloop
endfacet
facet normal 0.0 0.0 -1.0
outer loop
vertex 112.209427598234 93.2539235024452 0.0
vertex 115.758275582178 99.7568198714762 0.0
vertex 115.706551444247 94.7024796287623 0.0
endloop
endfacet
facet normal 0.0 0.0 -1.0
outer loop
vertex 115.792349755889 100.015638916579 0.0
vertex 119.156551444247 113.259847983637 0.0
vertex 115.892250178394 100.256819871476 0.0
endloop
endfacet
facet normal 0.0 0.0 -1.0
outer loop
vertex 115.892250178394 100.256819871476 0.0
vertex 119.156551444247 113.259847983637 0.0
vertex 116.020344547695 100.423755703668 0.0
endloop
endfacet
facet normal 0.0 0.0 -1.0
outer loop
vertex 116.020344547695 100.423755703668 0.0
vertex 119.156551444247 113.259847983637 0.0
vertex 116.051168800992 100.463926652663 0.0
endloop
endfacet
facet normal 0.0 0.0 -1.0
outer loop
vertex 116.051168800992 100.463926652663 0.0
vertex 119.156551444247 113.259847983637 0.0
vertex 116.258275582178 100.622845275261 0.0
endloop
endfacet
facet normal 0.0 0.0 -1.0
outer loop
vertex 116.258275582178 100.622845275261 0.0
vertex 119.156551444247 113.259847983637 0.0
vertex 116.499456537076 100.722745697765 0.0
endloop
endfacet
facet normal 0.0 0.0 -1.0
outer loop
vertex 116.499456537076 100.722745697765 0.0
vertex 119.156551444247 113.259847983637 0.0
vertex 116.758275582178 100.756819871476 0.0
endloop
endfacet
facet normal 0.0 0.0 -1.0
outer loop
vertex 116.758275582178 100.756819871476 0.0
vertex 119.156551444247 113.259847983637 0.0
vertex 117.017094627281 100.722745697765 0.0
endloop
endfacet
facet normal 0.0 0.0 -1.0
outer loop
vertex 117.017094627281 100.722745697765 0.0
vertex 119.156551444247 113.259847983637 0.0
vertex 117.258275582178 100.622845275261 0.0
endloop
endfacet
facet normal 0.0 0.0 -1.0
outer loop
vertex 117.258275582178 100.622845275261 0.0
vertex 119.156551444247 113.259847983637 0.0
vertex 117.465382363365 100.463926652663 0.0
endloop
endfacet
facet normal 0.0 0.0 -1.0
outer loop
vertex 117.465382363365 100.463926652663 0.0
vertex 119.156551444247 113.259847983637 0.0
vertex 117.624300985962 100.256819871476 0.0
endloop
endfacet
facet normal 0.0 0.0 -1.0
outer loop
vertex 117.624300985962 100.256819871476 0.0
vertex 119.156551444247 113.259847983637 0.0
vertex 117.724201408467 100.015638916579 0.0
endloop
endfacet
facet normal 0.0 0.0 -1.0
outer loop
vertex 117.724201408467 100.015638916579 0.0
vertex 119.156551444247 113.259847983637 0.0
vertex 117.758275582178 99.7568198714762 0.0
endloop
endfacet
facet normal 0.0 0.0 -1.0
outer loop
vertex 117.758275582178 99.7568198714762 0.0
vertex 119.156551444247 113.259847983637 0.0
vertex 118.709599771452 97.0067996564318 0.0
endloop
endfacet
facet normal 0.0 0.0 -1.0
outer loop
vertex 118.709599771452 97.0067996564318 0.0
vertex 119.156551444247 113.259847983637 0.0
vertex 119.156551444247 97.5892784168521 0.0
endloop
endfacet
facet normal 0.0 0.0 -1.0
outer loop
vertex 115.706551444247 94.7024796287623 0.0
vertex 116.051168800992 99.0497130902897 0.0
vertex 118.709599771452 97.0067996564318 0.0
endloop
endfacet
facet normal 0.0 0.0 -1.0
outer loop
vertex 116.051168800992 99.0497130902897 0.0
vertex 115.706551444247 94.7024796287623 0.0
vertex 115.892250178394 99.2568198714763 0.0
endloop
endfacet
facet normal 0.0 0.0 -1.0
outer loop
vertex 115.892250178394 99.2568198714763 0.0
vertex 115.706551444247 94.7024796287623 0.0
vertex 115.792349755889 99.4980008263737 0.0
endloop
endfacet
facet normal 0.0 0.0 -1.0
outer loop
vertex 115.792349755889 99.4980008263737 0.0
vertex 115.706551444247 94.7024796287623 0.0
vertex 115.758275582178 99.7568198714762 0.0
endloop
endfacet
facet normal 0.0 0.0 -1.0
outer loop
vertex 118.709599771452 97.0067996564318 0.0
vertex 116.051168800992 99.0497130902897 0.0
vertex 116.258275582178 98.8907944676918 0.0
endloop
endfacet
facet normal 0.0 0.0 -1.0
outer loop
vertex 118.709599771452 97.0067996564318 0.0
vertex 116.258275582178 98.8907944676918 0.0
vertex 116.499456537076 98.7908940451872 0.0
endloop
endfacet
facet normal 0.0 0.0 -1.0
outer loop
vertex 118.709599771452 97.0067996564318 0.0
vertex 116.499456537076 98.7908940451872 0.0
vertex 116.758275582178 98.7568198714763 0.0
endloop
endfacet
facet normal 0.0 0.0 -1.0
outer loop
vertex 118.709599771452 97.0067996564318 0.0
vertex 116.758275582178 98.7568198714763 0.0
vertex 117.017094627281 98.7908940451872 0.0
endloop
endfacet
facet normal 0.0 0.0 -1.0
outer loop
vertex 118.709599771452 97.0067996564318 0.0
vertex 117.017094627281 98.7908940451872 0.0
vertex 117.258275582178 98.8907944676918 0.0
endloop
endfacet
facet normal 0.0 0.0 -1.0
outer loop
vertex 118.709599771452 97.0067996564318 0.0
vertex 117.258275582178 98.8907944676918 0.0
vertex 117.465382363365 99.0497130902897 0.0
endloop
endfacet
facet normal 0.0 0.0 -1.0
outer loop
vertex 118.709599771452 97.0067996564318 0.0
vertex 117.465382363365 99.0497130902897 0.0
vertex 117.496206616661 99.0898840392842 0.0
endloop
endfacet
facet normal 0.0 0.0 -1.0
outer loop
vertex 118.709599771452 97.0067996564318 0.0
vertex 117.496206616661 99.0898840392842 0.0
vertex 117.624300985962 99.2568198714763 0.0
endloop
endfacet
facet normal 0.0 0.0 -1.0
outer loop
vertex 118.709599771452 97.0067996564318 0.0
vertex 117.624300985962 99.2568198714763 0.0
vertex 117.724201408467 99.4980008263737 0.0
endloop
endfacet
facet normal 0.0 0.0 -1.0
outer loop
vertex 118.709599771452 97.0067996564318 0.0
vertex 117.724201408467 99.4980008263737 0.0
vertex 117.758275582178 99.7568198714762 0.0
endloop
endfacet
facet normal 0.0 0.0 -1.0
outer loop
vertex 105.959737598662 107.133671042423 0.0
vertex 108.456551444247 92.7598479836367 0.0
vertex 104.70367529026 93.2539235024452 0.0
endloop
endfacet
facet normal 0.0 0.0 -1.0
outer loop
vertex 108.456551444247 92.7598479836367 0.0
vertex 105.959737598662 107.133671042423 0.0
vertex 106.077471462799 106.491747442123 0.0
endloop
endfacet
facet normal 0.0 0.0 -1.0
outer loop
vertex 108.456551444247 92.7598479836367 0.0
vertex 106.077471462799 106.491747442123 0.0
vertex 106.357335696056 105.902168624381 0.0
endloop
endfacet
facet normal 0.0 0.0 -1.0
outer loop
vertex 108.456551444247 92.7598479836367 0.0
vertex 106.357335696056 105.902168624381 0.0
vertex 106.780258013435 105.405113411301 0.0
endloop
endfacet
facet normal 0.0 0.0 -1.0
outer loop
vertex 108.456551444247 92.7598479836367 0.0
vertex 106.780258013435 105.405113411301 0.0
vertex 107.317416957917 105.034455294232 0.0
endloop
endfacet
facet normal 0.0 0.0 -1.0
outer loop
vertex 108.456551444247 92.7598479836367 0.0
vertex 107.317416957917 105.034455294232 0.0
vertex 107.932206035134 104.815454011311 0.0
endloop
endfacet
facet normal 0.0 0.0 -1.0
outer loop
vertex 108.456551444247 92.7598479836367 0.0
vertex 107.932206035134 104.815454011311 0.0
vertex 108.582728385461 104.763034138051 0.0
endloop
endfacet
facet normal 0.0 0.0 -1.0
outer loop
vertex 108.456551444247 92.7598479836367 0.0
vertex 108.582728385461 104.763034138051 0.0
vertex 112.209427598234 93.2539235024452 0.0
endloop
endfacet
facet normal 0.0 0.0 -1.0
outer loop
vertex 112.209427598234 93.2539235024452 0.0
vertex 108.582728385461 104.763034138051 0.0
vertex 109.224651985761 104.880768002189 0.0
endloop
endfacet
facet normal 0.0 0.0 -1.0
outer loop
vertex 112.209427598234 93.2539235024452 0.0
vertex 109.224651985761 104.880768002189 0.0
vertex 109.814230803503 105.160632235446 0.0
endloop
endfacet
facet normal 0.0 0.0 -1.0
outer loop
vertex 112.209427598234 93.2539235024452 0.0
vertex 109.814230803503 105.160632235446 0.0
vertex 110.311286016582 105.583554552825 0.0
endloop
endfacet
facet normal 0.0 0.0 -1.0
outer loop
vertex 112.209427598234 93.2539235024452 0.0
vertex 110.311286016582 105.583554552825 0.0
vertex 110.681944133651 106.120713497307 0.0
endloop
endfacet
facet normal 0.0 0.0 -1.0
outer loop
vertex 112.209427598234 93.2539235024452 0.0
vertex 110.681944133651 106.120713497307 0.0
vertex 110.900945416573 106.735502574524 0.0
endloop
endfacet
facet normal 0.0 0.0 -1.0
outer loop
vertex 112.209427598234 93.2539235024452 0.0
vertex 110.900945416573 106.735502574524 0.0
vertex 110.953365289832 107.38602492485 0.0
endloop
endfacet
facet normal -0.130526192220053 -0.99144486137381 -0.0
outer loop
vertex 108.456551444247 92.7598479836367 3.0
vertex 104.70367529026 93.2539235024452 0.0
vertex 108.456551444247 92.7598479836367 0.0
endloop
endfacet
facet normal -0.258819045102521 -0.965925826289068 0.0
outer loop
vertex 104.70367529026 93.2539235024452 0.0
vertex 108.456551444247 92.7598479836367 3.0
vertex 104.70367529026 93.2539235024452 3.0
endloop
endfacet
facet normal 0.866025403784432 -0.500000000000011 0.0
outer loop
vertex 96.8905260404625 117.430417550421 0.0
vertex 96.7906256179579 117.189236595524 3.0
vertex 96.7906256179579 117.189236595524 0.0
endloop
endfacet
facet normal 0.965925826289065 -0.258819045102533 0.0
outer loop
vertex 96.7906256179579 117.189236595524 3.0
vertex 96.8905260404625 117.430417550421 0.0
vertex 96.8905260404625 117.430417550421 3.0
endloop
endfacet
facet normal -0.258819045102529 0.965925826289066 0.0
outer loop
vertex 98.0153704893495 115.964491724132 3.0
vertex 98.256551444247 116.064392146637 0.0
vertex 98.0153704893495 115.964491724132 0.0
endloop
endfacet
facet normal -0.499999999999986 0.866025403784446 0.0
outer loop
vertex 98.256551444247 116.064392146637 0.0
vertex 98.0153704893495 115.964491724132 3.0
vertex 98.256551444247 116.064392146637 3.0
endloop
endfacet
facet normal -0.5 -0.866025403784438 0.0
outer loop
vertex 101.206551444247 94.7024796287623 3.0
vertex 98.2035031170421 97.0067996564318 0.0
vertex 101.206551444247 94.7024796287623 0.0
endloop
endfacet
facet normal -0.707106781186548 -0.707106781186548 0.0
outer loop
vertex 98.2035031170421 97.0067996564318 0.0
vertex 101.206551444247 94.7024796287623 3.0
vertex 98.2035031170421 97.0067996564318 3.0
endloop
endfacet
facet normal -0.670517372324856 -0.741893828934147 0.0
outer loop
vertex 110.132844875059 109.114582555972 3.0
vertex 110.555767192438 108.617527342892 0.0
vertex 110.555767192438 108.617527342892 3.0
endloop
endfacet
facet normal -0.839686299276246 -0.543071743702214 0.0
outer loop
vertex 110.555767192438 108.617527342892 0.0
vertex 110.132844875059 109.114582555972 3.0
vertex 110.132844875059 109.114582555972 0.0
endloop
endfacet
facet normal -0.866025403784446 -0.499999999999986 0.0
outer loop
vertex 117.624300985962 100.256819871476 3.0
vertex 117.724201408467 100.015638916579 0.0
vertex 117.724201408467 100.015638916579 3.0
endloop
endfacet
facet normal -0.965925826289066 -0.258819045102529 0.0
outer loop
vertex 117.724201408467 100.015638916579 0.0
vertex 117.624300985962 100.256819871476 3.0
vertex 117.624300985962 100.256819871476 0.0
endloop
endfacet
facet normal 0.0 0.0 1.0
outer loop
vertex 108.456551444247 92.7598479836367 3.0
vertex 105.959737598662 107.133671042423 3.0
vertex 104.70367529026 93.2539235024452 3.0
endloop
endfacet
facet normal 0.0 0.0 1.0
outer loop
vertex 105.959737598662 107.133671042423 3.0
vertex 108.456551444247 92.7598479836367 3.0
vertex 106.077471462799 106.491747442123 3.0
endloop
endfacet
facet normal 0.0 0.0 1.0
outer loop
vertex 106.077471462799 106.491747442123 3.0
vertex 108.456551444247 92.7598479836367 3.0
vertex 106.357335696056 105.902168624381 3.0
endloop
endfacet
facet normal 0.0 0.0 1.0
outer loop
vertex 106.357335696056 105.902168624381 3.0
vertex 108.456551444247 92.7598479836367 3.0
vertex 106.780258013435 105.405113411301 3.0
endloop
endfacet
facet normal 0.0 0.0 1.0
outer loop
vertex 106.780258013435 105.405113411301 3.0
vertex 108.456551444247 92.7598479836367 3.0
vertex 107.317416957917 105.034455294232 3.0
endloop
endfacet
facet normal 0.0 0.0 1.0
outer loop
vertex 107.317416957917 105.034455294232 3.0
vertex 108.456551444247 92.7598479836367 3.0
vertex 107.932206035134 104.815454011311 3.0
endloop
endfacet
facet normal 0.0 0.0 1.0
outer loop
vertex 107.932206035134 104.815454011311 3.0
vertex 108.456551444247 92.7598479836367 3.0
vertex 108.582728385461 104.763034138051 3.0
endloop
endfacet
facet normal 0.0 0.0 1.0
outer loop
vertex 108.582728385461 104.763034138051 3.0
vertex 108.456551444247 92.7598479836367 3.0
vertex 112.209427598234 93.2539235024452 3.0
endloop
endfacet
facet normal 0.0 0.0 1.0
outer loop
vertex 108.582728385461 104.763034138051 3.0
vertex 112.209427598234 93.2539235024452 3.0
vertex 109.224651985761 104.880768002189 3.0
endloop
endfacet
facet normal 0.0 0.0 1.0
outer loop
vertex 109.224651985761 104.880768002189 3.0
vertex 112.209427598234 93.2539235024452 3.0
vertex 109.814230803503 105.160632235446 3.0
endloop
endfacet
facet normal 0.0 0.0 1.0
outer loop
vertex 109.814230803503 105.160632235446 3.0
vertex 112.209427598234 93.2539235024452 3.0
vertex 110.311286016582 105.583554552825 3.0
endloop
endfacet
facet normal 0.0 0.0 1.0
outer loop
vertex 110.311286016582 105.583554552825 3.0
vertex 112.209427598234 93.2539235024452 3.0
vertex 110.681944133651 106.120713497307 3.0
endloop
endfacet
facet normal 0.0 0.0 1.0
outer loop
vertex 110.681944133651 106.120713497307 3.0
vertex 112.209427598234 93.2539235024452 3.0
vertex 110.900945416573 106.735502574524 3.0
endloop
endfacet
facet normal 0.0 0.0 1.0
outer loop
vertex 110.900945416573 106.735502574524 3.0
vertex 112.209427598234 93.2539235024452 3.0
vertex 110.953365289832 107.38602492485 3.0
endloop
endfacet
facet normal 0.0 0.0 1.0
outer loop
vertex 115.706551444247 94.7024796287623 3.0
vertex 115.792349755889 99.4980008263737 3.0
vertex 115.758275582178 99.7568198714762 3.0
endloop
endfacet
facet normal 0.0 0.0 1.0
outer loop
vertex 115.792349755889 99.4980008263737 3.0
vertex 115.706551444247 94.7024796287623 3.0
vertex 115.892250178394 99.2568198714763 3.0
endloop
endfacet
facet normal 0.0 0.0 1.0
outer loop
vertex 115.892250178394 99.2568198714763 3.0
vertex 115.706551444247 94.7024796287623 3.0
vertex 116.051168800992 99.0497130902897 3.0
endloop
endfacet
facet normal 0.0 0.0 1.0
outer loop
vertex 116.051168800992 99.0497130902897 3.0
vertex 115.706551444247 94.7024796287623 3.0
vertex 118.709599771452 97.0067996564318 3.0
endloop
endfacet
facet normal 0.0 0.0 1.0
outer loop
vertex 116.051168800992 99.0497130902897 3.0
vertex 118.709599771452 97.0067996564318 3.0
vertex 116.258275582178 98.8907944676918 3.0
endloop
endfacet
facet normal 0.0 0.0 1.0
outer loop
vertex 116.258275582178 98.8907944676918 3.0
vertex 118.709599771452 97.0067996564318 3.0
vertex 116.499456537076 98.7908940451872 3.0
endloop
endfacet
facet normal 0.0 0.0 1.0
outer loop
vertex 116.499456537076 98.7908940451872 3.0
vertex 118.709599771452 97.0067996564318 3.0
vertex 116.758275582178 98.7568198714763 3.0
endloop
endfacet
facet normal 0.0 0.0 1.0
outer loop
vertex 116.758275582178 98.7568198714763 3.0
vertex 118.709599771452 97.0067996564318 3.0
vertex 117.017094627281 98.7908940451872 3.0
endloop
endfacet
facet normal 0.0 0.0 1.0
outer loop
vertex 117.017094627281 98.7908940451872 3.0
vertex 118.709599771452 97.0067996564318 3.0
vertex 117.258275582178 98.8907944676918 3.0
endloop
endfacet
facet normal 0.0 0.0 1.0
outer loop
vertex 117.258275582178 98.8907944676918 3.0
vertex 118.709599771452 97.0067996564318 3.0
vertex 117.465382363365 99.0497130902897 3.0
endloop
endfacet
facet normal 0.0 0.0 1.0
outer loop
vertex 117.465382363365 99.0497130902897 3.0
vertex 118.709599771452 97.0067996564318 3.0
vertex 117.496206616661 99.0898840392842 3.0
endloop
endfacet
facet normal 0.0 0.0 1.0
outer loop
vertex 117.496206616661 99.0898840392842 3.0
vertex 118.709599771452 97.0067996564318 3.0
vertex 117.624300985962 99.2568198714763 3.0
endloop
endfacet
facet normal 0.0 0.0 1.0
outer loop
vertex 117.624300985962 99.2568198714763 3.0
vertex 118.709599771452 97.0067996564318 3.0
vertex 117.724201408467 99.4980008263737 3.0
endloop
endfacet
facet normal 0.0 0.0 1.0
outer loop
vertex 117.724201408467 99.4980008263737 3.0
vertex 118.709599771452 97.0067996564318 3.0
vertex 117.758275582178 99.7568198714762 3.0
endloop
endfacet
facet normal 0.0 0.0 1.0
outer loop
vertex 98.2035031170421 97.0067996564318 3.0
vertex 96.756551444247 116.930417550421 3.0
vertex 95.8991830893727 100.009847983637 3.0
endloop
endfacet
facet normal 0.0 0.0 1.0
outer loop
vertex 96.756551444247 116.930417550421 3.0
vertex 98.2035031170421 97.0067996564318 3.0
vertex 96.7906256179579 116.671598505319 3.0
endloop
endfacet
facet normal 0.0 0.0 1.0
outer loop
vertex 96.7906256179579 116.671598505319 3.0
vertex 98.2035031170421 97.0067996564318 3.0
vertex 96.8905260404625 116.430417550421 3.0
endloop
endfacet
facet normal 0.0 0.0 1.0
outer loop
vertex 96.8905260404625 116.430417550421 3.0
vertex 98.2035031170421 97.0067996564318 3.0
vertex 97.0494446630604 116.223310769235 3.0
endloop
endfacet
facet normal 0.0 0.0 1.0
outer loop
vertex 97.0494446630604 116.223310769235 3.0
vertex 98.2035031170421 97.0067996564318 3.0
vertex 97.1529980536537 116.143851457936 3.0
endloop
endfacet
facet normal 0.0 0.0 1.0
outer loop
vertex 97.1529980536537 116.143851457936 3.0
vertex 98.2035031170421 97.0067996564318 3.0
vertex 97.256551444247 116.064392146637 3.0
endloop
endfacet
facet normal 0.0 0.0 1.0
outer loop
vertex 97.256551444247 116.064392146637 3.0
vertex 98.2035031170421 97.0067996564318 3.0
vertex 97.4977323991445 115.964491724132 3.0
endloop
endfacet
facet normal 0.0 0.0 1.0
outer loop
vertex 97.4977323991445 115.964491724132 3.0
vertex 98.2035031170421 97.0067996564318 3.0
vertex 97.756551444247 115.930417550421 3.0
endloop
endfacet
facet normal 0.0 0.0 1.0
outer loop
vertex 97.756551444247 115.930417550421 3.0
vertex 98.2035031170421 97.0067996564318 3.0
vertex 98.0153704893495 115.964491724132 3.0
endloop
endfacet
facet normal 0.0 0.0 1.0
outer loop
vertex 98.0153704893495 115.964491724132 3.0
vertex 98.2035031170421 97.0067996564318 3.0
vertex 98.256551444247 116.064392146637 3.0
endloop
endfacet
facet normal 0.0 0.0 1.0
outer loop
vertex 98.256551444247 116.064392146637 3.0
vertex 98.2035031170421 97.0067996564318 3.0
vertex 101.206551444247 94.7024796287623 3.0
endloop
endfacet
facet normal 0.0 0.0 1.0
outer loop
vertex 98.256551444247 116.064392146637 3.0
vertex 101.206551444247 94.7024796287623 3.0
vertex 98.4636582254335 116.223310769235 3.0
endloop
endfacet
facet normal 0.0 0.0 1.0
outer loop
vertex 98.4636582254335 116.223310769235 3.0
vertex 101.206551444247 94.7024796287623 3.0
vertex 98.4944824787297 116.263481718229 3.0
endloop
endfacet
facet normal 0.0 0.0 1.0
outer loop
vertex 98.4944824787297 116.263481718229 3.0
vertex 101.206551444247 94.7024796287623 3.0
vertex 98.6225768480314 116.430417550421 3.0
endloop
endfacet
facet normal 0.0 0.0 1.0
outer loop
vertex 98.6225768480314 116.430417550421 3.0
vertex 101.206551444247 94.7024796287623 3.0
vertex 98.722477270536 116.671598505319 3.0
endloop
endfacet
facet normal 0.0 0.0 1.0
outer loop
vertex 98.722477270536 116.671598505319 3.0
vertex 101.206551444247 94.7024796287623 3.0
vertex 98.756551444247 116.930417550421 3.0
endloop
endfacet
facet normal 0.0 0.0 1.0
outer loop
vertex 98.756551444247 116.930417550421 3.0
vertex 101.206551444247 94.7024796287623 3.0
vertex 100.456551444247 119.241721097527 3.0
endloop
endfacet
facet normal 0.0 0.0 1.0
outer loop
vertex 100.456551444247 119.241721097527 3.0
vertex 101.206551444247 94.7024796287623 3.0
vertex 106.231158754843 108.398982469966 3.0
endloop
endfacet
facet normal 0.0 0.0 1.0
outer loop
vertex 100.456551444247 119.241721097527 3.0
vertex 106.231158754843 108.398982469966 3.0
vertex 106.601816871912 108.936141414449 3.0
endloop
endfacet
facet normal 0.0 0.0 1.0
outer loop
vertex 100.456551444247 119.241721097527 3.0
vertex 106.601816871912 108.936141414449 3.0
vertex 107.098872084991 109.359063731827 3.0
endloop
endfacet
facet normal 0.0 0.0 1.0
outer loop
vertex 100.456551444247 119.241721097527 3.0
vertex 107.098872084991 109.359063731827 3.0
vertex 107.688450902733 109.638927965085 3.0
endloop
endfacet
facet normal 0.0 0.0 1.0
outer loop
vertex 100.456551444247 119.241721097527 3.0
vertex 107.688450902733 109.638927965085 3.0
vertex 119.156551444247 113.259847983637 3.0
endloop
endfacet
facet normal 0.0 0.0 1.0
outer loop
vertex 106.231158754843 108.398982469966 3.0
vertex 101.206551444247 94.7024796287623 3.0
vertex 106.012157471921 107.784193392749 3.0
endloop
endfacet
facet normal 0.0 0.0 1.0
outer loop
vertex 106.012157471921 107.784193392749 3.0
vertex 101.206551444247 94.7024796287623 3.0
vertex 104.70367529026 93.2539235024452 3.0
endloop
endfacet
facet normal 0.0 0.0 1.0
outer loop
vertex 106.012157471921 107.784193392749 3.0
vertex 104.70367529026 93.2539235024452 3.0
vertex 105.959737598662 107.133671042423 3.0
endloop
endfacet
facet normal 0.0 0.0 1.0
outer loop
vertex 119.156551444247 113.259847983637 3.0
vertex 107.688450902733 109.638927965085 3.0
vertex 108.330374503033 109.756661829222 3.0
endloop
endfacet
facet normal 0.0 0.0 1.0
outer loop
vertex 119.156551444247 113.259847983637 3.0
vertex 108.330374503033 109.756661829222 3.0
vertex 108.98089685336 109.704241955962 3.0
endloop
endfacet
facet normal 0.0 0.0 1.0
outer loop
vertex 119.156551444247 113.259847983637 3.0
vertex 108.98089685336 109.704241955962 3.0
vertex 109.595685930577 109.485240673041 3.0
endloop
endfacet
facet normal 0.0 0.0 1.0
outer loop
vertex 119.156551444247 113.259847983637 3.0
vertex 109.595685930577 109.485240673041 3.0
vertex 110.132844875059 109.114582555972 3.0
endloop
endfacet
facet normal 0.0 0.0 1.0
outer loop
vertex 119.156551444247 113.259847983637 3.0
vertex 110.132844875059 109.114582555972 3.0
vertex 110.555767192438 108.617527342892 3.0
endloop
endfacet
facet normal 0.0 0.0 1.0
outer loop
vertex 119.156551444247 113.259847983637 3.0
vertex 110.555767192438 108.617527342892 3.0
vertex 110.835631425695 108.02794852515 3.0
endloop
endfacet
facet normal 0.0 0.0 1.0
outer loop
vertex 119.156551444247 113.259847983637 3.0
vertex 110.835631425695 108.02794852515 3.0
vertex 110.953365289832 107.38602492485 3.0
endloop
endfacet
facet normal 0.0 0.0 1.0
outer loop
vertex 119.156551444247 113.259847983637 3.0
vertex 110.953365289832 107.38602492485 3.0
vertex 112.209427598234 93.2539235024452 3.0
endloop
endfacet
facet normal 0.0 0.0 1.0
outer loop
vertex 119.156551444247 113.259847983637 3.0
vertex 112.209427598234 93.2539235024452 3.0
vertex 115.792349755889 100.015638916579 3.0
endloop
endfacet
facet normal 0.0 0.0 1.0
outer loop
vertex 115.792349755889 100.015638916579 3.0
vertex 112.209427598234 93.2539235024452 3.0
vertex 115.758275582178 99.7568198714762 3.0
endloop
endfacet
facet normal 0.0 0.0 1.0
outer loop
vertex 115.758275582178 99.7568198714762 3.0
vertex 112.209427598234 93.2539235024452 3.0
vertex 115.706551444247 94.7024796287623 3.0
endloop
endfacet
facet normal 0.0 0.0 1.0
outer loop
vertex 119.156551444247 113.259847983637 3.0
vertex 115.792349755889 100.015638916579 3.0
vertex 115.892250178394 100.256819871476 3.0
endloop
endfacet
facet normal 0.0 0.0 1.0
outer loop
vertex 119.156551444247 113.259847983637 3.0
vertex 115.892250178394 100.256819871476 3.0
vertex 116.020344547695 100.423755703668 3.0
endloop
endfacet
facet normal 0.0 0.0 1.0
outer loop
vertex 119.156551444247 113.259847983637 3.0
vertex 116.020344547695 100.423755703668 3.0
vertex 116.051168800992 100.463926652663 3.0
endloop
endfacet
facet normal 0.0 0.0 1.0
outer loop
vertex 119.156551444247 113.259847983637 3.0
vertex 116.051168800992 100.463926652663 3.0
vertex 116.258275582178 100.622845275261 3.0
endloop
endfacet
facet normal 0.0 0.0 1.0
outer loop
vertex 119.156551444247 113.259847983637 3.0
vertex 116.258275582178 100.622845275261 3.0
vertex 116.499456537076 100.722745697765 3.0
endloop
endfacet
facet normal 0.0 0.0 1.0
outer loop
vertex 119.156551444247 113.259847983637 3.0
vertex 116.499456537076 100.722745697765 3.0
vertex 116.758275582178 100.756819871476 3.0
endloop
endfacet
facet normal 0.0 0.0 1.0
outer loop
vertex 119.156551444247 113.259847983637 3.0
vertex 116.758275582178 100.756819871476 3.0
vertex 117.017094627281 100.722745697765 3.0
endloop
endfacet
facet normal 0.0 0.0 1.0
outer loop
vertex 119.156551444247 113.259847983637 3.0
vertex 117.017094627281 100.722745697765 3.0
vertex 117.258275582178 100.622845275261 3.0
endloop
endfacet
facet normal 0.0 0.0 1.0
outer loop
vertex 119.156551444247 113.259847983637 3.0
vertex 117.258275582178 100.622845275261 3.0
vertex 117.465382363365 100.463926652663 3.0
endloop
endfacet
facet normal 0.0 0.0 1.0
outer loop
vertex 119.156551444247 113.259847983637 3.0
vertex 117.465382363365 100.463926652663 3.0
vertex 117.624300985962 100.256819871476 3.0
endloop
endfacet
facet normal 0.0 0.0 1.0
outer loop
vertex 119.156551444247 113.259847983637 3.0
vertex 117.624300985962 100.256819871476 3.0
vertex 117.724201408467 100.015638916579 3.0
endloop
endfacet
facet normal 0.0 0.0 1.0
outer loop
vertex 119.156551444247 113.259847983637 3.0
vertex 117.724201408467 100.015638916579 3.0
vertex 117.758275582178 99.7568198714762 3.0
endloop
endfacet
facet normal 0.0 0.0 1.0
outer loop
vertex 119.156551444247 113.259847983637 3.0
vertex 117.758275582178 99.7568198714762 3.0
vertex 118.709599771452 97.0067996564318 3.0
endloop
endfacet
facet normal 0.0 0.0 1.0
outer loop
vertex 119.156551444247 113.259847983637 3.0
vertex 118.709599771452 97.0067996564318 3.0
vertex 119.156551444247 97.5892784168521 3.0
endloop
endfacet
facet normal 0.0 0.0 1.0
outer loop
vertex 94.4506269630555 103.50697182965 3.0
vertex 93.956551444247 119.241721097527 3.0
vertex 93.956551444247 107.259847983637 3.0
endloop
endfacet
facet normal 0.0 0.0 1.0
outer loop
vertex 93.956551444247 119.241721097527 3.0
vertex 94.4506269630555 103.50697182965 3.0
vertex 96.7906256179579 117.189236595524 3.0
endloop
endfacet
facet normal 0.0 0.0 1.0
outer loop
vertex 93.956551444247 119.241721097527 3.0
vertex 96.7906256179579 117.189236595524 3.0
vertex 96.8905260404625 117.430417550421 3.0
endloop
endfacet
facet normal 0.0 0.0 1.0
outer loop
vertex 93.956551444247 119.241721097527 3.0
vertex 96.8905260404625 117.430417550421 3.0
vertex 97.0494446630604 117.637524331608 3.0
endloop
endfacet
facet normal 0.0 0.0 1.0
outer loop
vertex 93.956551444247 119.241721097527 3.0
vertex 97.0494446630604 117.637524331608 3.0
vertex 97.256551444247 117.796442954206 3.0
endloop
endfacet
facet normal 0.0 0.0 1.0
outer loop
vertex 93.956551444247 119.241721097527 3.0
vertex 97.256551444247 117.796442954206 3.0
vertex 100.456551444247 119.241721097527 3.0
endloop
endfacet
facet normal 0.0 0.0 1.0
outer loop
vertex 96.7906256179579 117.189236595524 3.0
vertex 94.4506269630555 103.50697182965 3.0
vertex 96.756551444247 116.930417550421 3.0
endloop
endfacet
facet normal 0.0 0.0 1.0
outer loop
vertex 96.756551444247 116.930417550421 3.0
vertex 94.4506269630555 103.50697182965 3.0
vertex 95.8991830893727 100.009847983637 3.0
endloop
endfacet
facet normal 0.0 0.0 1.0
outer loop
vertex 100.456551444247 119.241721097527 3.0
vertex 97.256551444247 117.796442954206 3.0
vertex 97.4977323991445 117.89634337671 3.0
endloop
endfacet
facet normal 0.0 0.0 1.0
outer loop
vertex 100.456551444247 119.241721097527 3.0
vertex 97.4977323991445 117.89634337671 3.0
vertex 97.756551444247 117.930417550421 3.0
endloop
endfacet
facet normal 0.0 0.0 1.0
outer loop
vertex 100.456551444247 119.241721097527 3.0
vertex 97.756551444247 117.930417550421 3.0
vertex 98.0153704893495 117.89634337671 3.0
endloop
endfacet
facet normal 0.0 0.0 1.0
outer loop
vertex 100.456551444247 119.241721097527 3.0
vertex 98.0153704893495 117.89634337671 3.0
vertex 98.256551444247 117.796442954206 3.0
endloop
endfacet
facet normal 0.0 0.0 1.0
outer loop
vertex 100.456551444247 119.241721097527 3.0
vertex 98.256551444247 117.796442954206 3.0
vertex 98.4147898706525 117.675022339089 3.0
endloop
endfacet
facet normal 0.0 0.0 1.0
outer loop
vertex 100.456551444247 119.241721097527 3.0
vertex 98.4147898706525 117.675022339089 3.0
vertex 98.4636582254335 117.637524331608 3.0
endloop
endfacet
facet normal 0.0 0.0 1.0
outer loop
vertex 100.456551444247 119.241721097527 3.0
vertex 98.4636582254335 117.637524331608 3.0
vertex 98.6225768480314 117.430417550421 3.0
endloop
endfacet
facet normal 0.0 0.0 1.0
outer loop
vertex 100.456551444247 119.241721097527 3.0
vertex 98.6225768480314 117.430417550421 3.0
vertex 98.722477270536 117.189236595524 3.0
endloop
endfacet
facet normal 0.0 0.0 1.0
outer loop
vertex 100.456551444247 119.241721097527 3.0
vertex 98.722477270536 117.189236595524 3.0
vertex 98.756551444247 116.930417550421 3.0
endloop
endfacet
facet normal 0.304677458377449 0.952455587603253 0.0
outer loop
vertex 100.456551444247 119.241721097527 3.0
vertex 119.156551444247 113.259847983637 0.0
vertex 100.456551444247 119.241721097527 0.0
endloop
endfacet
facet normal 0.304677458377449 0.952455587603253 0.0
outer loop
vertex 119.156551444247 113.259847983637 0.0
vertex 100.456551444247 119.241721097527 3.0
vertex 119.156551444247 113.259847983637 3.0
endloop
endfacet
facet normal -0.499999999999986 0.866025403784446 0.0
outer loop
vertex 98.256551444247 116.064392146637 3.0
vertex 98.4636582254335 116.223310769235 0.0
vertex 98.256551444247 116.064392146637 0.0
endloop
endfacet
facet normal -0.70710678118655 0.707106781186545 0.0
outer loop
vertex 98.4636582254335 116.223310769235 0.0
vertex 98.256551444247 116.064392146637 3.0
vertex 98.4636582254335 116.223310769235 3.0
endloop
endfacet
facet normal 0.499999999999986 -0.866025403784446 0.0
outer loop
vertex 97.256551444247 117.796442954206 3.0
vertex 97.0494446630604 117.637524331608 0.0
vertex 97.256551444247 117.796442954206 0.0
endloop
endfacet
facet normal 0.707106781186548 -0.707106781186548 0.0
outer loop
vertex 97.0494446630604 117.637524331608 0.0
vertex 97.256551444247 117.796442954206 3.0
vertex 97.0494446630604 117.637524331608 3.0
endloop
endfacet
facet normal 0.707106781186548 0.707106781186548 0.0
outer loop
vertex 97.0494446630604 116.223310769235 3.0
vertex 97.1529980536537 116.143851457936 0.0
vertex 97.0494446630604 116.223310769235 0.0
endloop
endfacet
facet normal 0.608761429008699 0.793353340291252 0.0
outer loop
vertex 97.1529980536537 116.143851457936 0.0
vertex 97.0494446630604 116.223310769235 3.0
vertex 97.1529980536537 116.143851457936 3.0
endloop
endfacet
facet normal -0.20973816364503 -0.977757588930309 0.0
outer loop
vertex 108.98089685336 109.704241955962 3.0
vertex 108.330374503033 109.756661829222 0.0
vertex 108.98089685336 109.704241955962 0.0
endloop
endfacet
facet normal 0.0504707764855105 -0.998725538234079 0.0
outer loop
vertex 108.330374503033 109.756661829222 0.0
vertex 108.98089685336 109.704241955962 3.0
vertex 108.330374503033 109.756661829222 3.0
endloop
endfacet
facet normal -0.998725538234079 -0.0504707764855105 0.0
outer loop
vertex 110.953365289832 107.38602492485 3.0
vertex 110.900945416573 106.735502574524 0.0
vertex 110.900945416573 106.735502574524 3.0
endloop
endfacet
facet normal -0.977757588930309 0.20973816364503 0.0
outer loop
vertex 110.900945416573 106.735502574524 0.0
vertex 110.953365289832 107.38602492485 3.0
vertex 110.953365289832 107.38602492485 0.0
endloop
endfacet
facet normal 0.258819045102523 -0.965925826289067 0.0
outer loop
vertex 116.499456537076 100.722745697765 3.0
vertex 116.258275582178 100.622845275261 0.0
vertex 116.499456537076 100.722745697765 0.0
endloop
endfacet
facet normal 0.499999999999979 -0.866025403784451 0.0
outer loop
vertex 116.258275582178 100.622845275261 0.0
vertex 116.499456537076 100.722745697765 3.0
vertex 116.258275582178 100.622845275261 3.0
endloop
endfacet
facet normal -1.0 0.0 0.0
outer loop
vertex 117.758275582178 99.7568198714762 3.0
vertex 117.724201408467 99.4980008263737 0.0
vertex 117.724201408467 99.4980008263737 3.0
endloop
endfacet
facet normal -0.965925826289066 0.258819045102529 0.0
outer loop
vertex 117.724201408467 99.4980008263737 0.0
vertex 117.758275582178 99.7568198714762 3.0
vertex 117.758275582178 99.7568198714762 0.0
endloop
endfacet
facet normal -0.965925826289065 -0.258819045102534 0.0
outer loop
vertex 98.722477270536 117.189236595524 3.0
vertex 98.756551444247 116.930417550421 0.0
vertex 98.756551444247 116.930417550421 3.0
endloop
endfacet
facet normal -1.0 -2.14133970792395e-14 0.0
outer loop
vertex 98.756551444247 116.930417550421 0.0
vertex 98.722477270536 117.189236595524 3.0
vertex 98.722477270536 117.189236595524 0.0
endloop
endfacet
facet normal 1.0 2.14133970792395e-14 0.0
outer loop
vertex 96.756551444247 116.930417550421 0.0
vertex 96.7906256179579 116.671598505319 3.0
vertex 96.7906256179579 116.671598505319 0.0
endloop
endfacet
facet normal 0.965925826289065 0.258819045102534 0.0
outer loop
vertex 96.7906256179579 116.671598505319 3.0
vertex 96.756551444247 116.930417550421 0.0
vertex 96.756551444247 116.930417550421 3.0
endloop
endfacet
facet normal 0.258819045102526 0.965925826289067 0.0
outer loop
vertex 97.4977323991445 115.964491724132 3.0
vertex 97.756551444247 115.930417550421 0.0
vertex 97.4977323991445 115.964491724132 0.0
endloop
endfacet
facet normal -4.28357052683745e-14 1.0 0.0
outer loop
vertex 97.756551444247 115.930417550421 0.0
vertex 97.4977323991445 115.964491724132 3.0
vertex 97.756551444247 115.930417550421 3.0
endloop
endfacet
facet normal -0.543071743702214 0.839686299276246 0.0
outer loop
vertex 109.814230803503 105.160632235446 3.0
vertex 110.311286016582 105.583554552825 0.0
vertex 109.814230803503 105.160632235446 0.0
endloop
endfacet
facet normal -0.741893828934147 0.670517372324856 0.0
outer loop
vertex 110.311286016582 105.583554552825 0.0
vertex 109.814230803503 105.160632235446 3.0
vertex 110.311286016582 105.583554552825 3.0
endloop
endfacet
facet normal 0.258819045102522 -0.965925826289068 0.0
outer loop
vertex 112.209427598234 93.2539235024452 3.0
vertex 108.456551444247 92.7598479836367 0.0
vertex 112.209427598234 93.2539235024452 0.0
endloop
endfacet
facet normal 0.130526192220052 -0.99144486137381 0.0
outer loop
vertex 108.456551444247 92.7598479836367 0.0
vertex 112.209427598234 93.2539235024452 3.0
vertex 108.456551444247 92.7598479836367 3.0
endloop
endfacet
facet normal 0.951631992579184 0.307240216605464 0.0
outer loop
vertex 106.077471462799 106.491747442123 0.0
vertex 106.357335696056 105.902168624381 3.0
vertex 106.357335696056 105.902168624381 0.0
endloop
endfacet
facet normal 0.839686299276246 0.543071743702214 0.0
outer loop
vertex 106.357335696056 105.902168624381 3.0
vertex 106.077471462799 106.491747442123 0.0
vertex 106.077471462799 106.491747442123 3.0
endloop
endfacet
facet normal -0.258819045102521 -0.965925826289068 0.0
outer loop
vertex 104.70367529026 93.2539235024452 3.0
vertex 101.206551444247 94.7024796287623 0.0
vertex 104.70367529026 93.2539235024452 0.0
endloop
endfacet
facet normal -0.5 -0.866025403784438 0.0
outer loop
vertex 101.206551444247 94.7024796287623 0.0
vertex 104.70367529026 93.2539235024452 3.0
vertex 101.206551444247 94.7024796287623 3.0
endloop
endfacet
facet normal -0.890157075761749 0.45565379453187 0.0
outer loop
vertex 110.681944133651 106.120713497307 3.0
vertex 110.311286016582 105.583554552825 0.0
vertex 110.311286016582 105.583554552825 3.0
endloop
endfacet
facet normal -0.741893828934147 0.670517372324856 0.0
outer loop
vertex 110.311286016582 105.583554552825 0.0
vertex 110.681944133651 106.120713497307 3.0
vertex 110.681944133651 106.120713497307 0.0
endloop
endfacet
facet normal 0.793353340291238 -0.608761429008717 0.0
outer loop
vertex 119.156551444247 97.5892784168521 0.0
vertex 118.709599771452 97.0067996564318 3.0
vertex 118.709599771452 97.0067996564318 0.0
endloop
endfacet
facet normal 0.707106781186549 -0.707106781186546 0.0
outer loop
vertex 118.709599771452 97.0067996564318 3.0
vertex 119.156551444247 97.5892784168521 0.0
vertex 119.156551444247 97.5892784168521 3.0
endloop
endfacet
facet normal -0.965925826289066 0.258819045102529 0.0
outer loop
vertex 117.724201408467 99.4980008263737 3.0
vertex 117.624300985962 99.2568198714763 0.0
vertex 117.624300985962 99.2568198714763 3.0
endloop
endfacet
facet normal -0.866025403784457 0.499999999999969 0.0
outer loop
vertex 117.624300985962 99.2568198714763 0.0
vertex 117.724201408467 99.4980008263737 3.0
vertex 117.724201408467 99.4980008263737 0.0
endloop
endfacet
facet normal 0.0 1.0 0.0
outer loop
vertex 93.956551444247 119.241721097527 3.0
vertex 100.456551444247 119.241721097527 0.0
vertex 93.956551444247 119.241721097527 0.0
endloop
endfacet
facet normal 0.0 1.0 0.0
outer loop
vertex 100.456551444247 119.241721097527 0.0
vertex 93.956551444247 119.241721097527 3.0
vertex 100.456551444247 119.241721097527 3.0
endloop
endfacet
facet normal -0.977757588930309 0.20973816364503 0.0
outer loop
vertex 110.900945416573 106.735502574524 3.0
vertex 110.681944133651 106.120713497307 0.0
vertex 110.681944133651 106.120713497307 3.0
endloop
endfacet
facet normal -0.890157075761749 0.45565379453187 0.0
outer loop
vertex 110.681944133651 106.120713497307 0.0
vertex 110.900945416573 106.735502574524 3.0
vertex 110.900945416573 106.735502574524 0.0
endloop
endfacet
facet normal 1.0 -0.0 0.0
outer loop
vertex 119.156551444247 113.259847983637 0.0
vertex 119.156551444247 97.5892784168521 3.0
vertex 119.156551444247 97.5892784168521 0.0
endloop
endfacet
facet normal 1.0 -0.0 0.0
outer loop
vertex 119.156551444247 97.5892784168521 3.0
vertex 119.156551444247 113.259847983637 0.0
vertex 119.156551444247 113.259847983637 3.0
endloop
endfacet
facet normal -0.839686299276246 -0.543071743702214 0.0
outer loop
vertex 110.555767192438 108.617527342892 3.0
vertex 110.835631425695 108.02794852515 0.0
vertex 110.835631425695 108.02794852515 3.0
endloop
endfacet
facet normal -0.951631992579184 -0.307240216605464 0.0
outer loop
vertex 110.835631425695 108.02794852515 0.0
vertex 110.555767192438 108.617527342892 3.0
vertex 110.555767192438 108.617527342892 0.0
endloop
endfacet
facet normal -0.45565379453187 -0.890157075761749 0.0
outer loop
vertex 109.595685930577 109.485240673041 3.0
vertex 108.98089685336 109.704241955962 0.0
vertex 109.595685930577 109.485240673041 0.0
endloop
endfacet
facet normal -0.20973816364503 -0.977757588930309 0.0
outer loop
vertex 108.98089685336 109.704241955962 0.0
vertex 109.595685930577 109.485240673041 3.0
vertex 108.98089685336 109.704241955962 3.0
endloop
endfacet
facet normal 4.28357052683745e-14 -1.0 0.0
outer loop
vertex 97.756551444247 117.930417550421 3.0
vertex 97.4977323991445 117.89634337671 0.0
vertex 97.756551444247 117.930417550421 0.0
endloop
endfacet
facet normal 0.258819045102529 -0.965925826289066 0.0
outer loop
vertex 97.4977323991445 117.89634337671 0.0
vertex 97.756551444247 117.930417550421 3.0
vertex 97.4977323991445 117.89634337671 3.0
endloop
endfacet
facet normal -0.793353340291256 0.608761429008693 0.0
outer loop
vertex 98.4944824787297 116.263481718229 3.0
vertex 98.4636582254335 116.223310769235 0.0
vertex 98.4636582254335 116.223310769235 3.0
endloop
endfacet
facet normal -0.70710678118655 0.707106781186545 0.0
outer loop
vertex 98.4636582254335 116.223310769235 0.0
vertex 98.4944824787297 116.263481718229 3.0
vertex 98.4944824787297 116.263481718229 0.0
endloop
endfacet
facet normal -0.965925826289068 -0.258819045102521 0.0
outer loop
vertex 94.4506269630555 103.50697182965 3.0
vertex 95.8991830893727 100.009847983637 0.0
vertex 95.8991830893727 100.009847983637 3.0
endloop
endfacet
facet normal -0.866025403784438 -0.500000000000001 0.0
outer loop
vertex 95.8991830893727 100.009847983637 0.0
vertex 94.4506269630555 103.50697182965 3.0
vertex 94.4506269630555 103.50697182965 0.0
endloop
endfacet
facet normal 0.608761429008699 0.793353340291252 0.0
outer loop
vertex 97.1529980536537 116.143851457936 3.0
vertex 97.256551444247 116.064392146637 0.0
vertex 97.1529980536537 116.143851457936 0.0
endloop
endfacet
facet normal 0.500000000000021 0.866025403784427 0.0
outer loop
vertex 97.256551444247 116.064392146637 0.0
vertex 97.1529980536537 116.143851457936 3.0
vertex 97.256551444247 116.064392146637 3.0
endloop
endfacet
facet normal 0.307240216605464 -0.951631992579184 0.0
outer loop
vertex 107.688450902733 109.638927965085 3.0
vertex 107.098872084991 109.359063731827 0.0
vertex 107.688450902733 109.638927965085 0.0
endloop
endfacet
facet normal 0.543071743702214 -0.839686299276246 0.0
outer loop
vertex 107.098872084991 109.359063731827 0.0
vertex 107.688450902733 109.638927965085 3.0
vertex 107.098872084991 109.359063731827 3.0
endloop
endfacet
facet normal 0.499999999999979 -0.866025403784451 0.0
outer loop
vertex 116.258275582178 100.622845275261 3.0
vertex 116.051168800992 100.463926652663 0.0
vertex 116.258275582178 100.622845275261 0.0
endloop
endfacet
facet normal 0.707106781186488 -0.707106781186608 0.0
outer loop
vertex 116.051168800992 100.463926652663 0.0
vertex 116.258275582178 100.622845275261 3.0
vertex 116.051168800992 100.463926652663 3.0
endloop
endfacet
facet normal 0.890157075761749 -0.45565379453187 0.0
outer loop
vertex 106.231158754843 108.398982469966 0.0
vertex 106.012157471921 107.784193392749 3.0
vertex 106.012157471921 107.784193392749 0.0
endloop
endfacet
facet normal 0.977757588930309 -0.20973816364503 0.0
outer loop
vertex 106.012157471921 107.784193392749 3.0
vertex 106.231158754843 108.398982469966 0.0
vertex 106.231158754843 108.398982469966 3.0
endloop
endfacet
facet normal -0.500000000000025 -0.866025403784424 0.0
outer loop
vertex 98.256551444247 117.796442954206 3.0
vertex 98.0153704893495 117.89634337671 0.0
vertex 98.256551444247 117.796442954206 0.0
endloop
endfacet
facet normal -0.258819045102526 -0.965925826289067 0.0
outer loop
vertex 98.0153704893495 117.89634337671 0.0
vertex 98.256551444247 117.796442954206 3.0
vertex 98.0153704893495 117.89634337671 3.0
endloop
endfacet
facet normal 0.707106781186488 -0.707106781186608 0.0
outer loop
vertex 116.051168800992 100.463926652663 0.0
vertex 116.020344547695 100.423755703668 3.0
vertex 116.020344547695 100.423755703668 0.0
endloop
endfacet
facet normal 0.793353340291149 -0.608761429008833 0.0
outer loop
vertex 116.020344547695 100.423755703668 3.0
vertex 116.051168800992 100.463926652663 0.0
vertex 116.051168800992 100.463926652663 3.0
endloop
endfacet
facet normal -0.866025403784457 0.499999999999969 0.0
outer loop
vertex 117.624300985962 99.2568198714763 3.0
vertex 117.496206616661 99.0898840392842 0.0
vertex 117.496206616661 99.0898840392842 3.0
endloop
endfacet
facet normal -0.793353340291277 0.608761429008667 0.0
outer loop
vertex 117.496206616661 99.0898840392842 0.0
vertex 117.624300985962 99.2568198714763 3.0
vertex 117.624300985962 99.2568198714763 0.0
endloop
endfacet
facet normal 0.965925826289066 -0.258819045102529 0.0
outer loop
vertex 115.792349755889 100.015638916579 0.0
vertex 115.758275582178 99.7568198714762 3.0
vertex 115.758275582178 99.7568198714762 0.0
endloop
endfacet
facet normal 1.0 0.0 0.0
outer loop
vertex 115.758275582178 99.7568198714762 3.0
vertex 115.792349755889 100.015638916579 0.0
vertex 115.792349755889 100.015638916579 3.0
endloop
endfacet
facet normal -0.965925826289065 0.258819045102533 0.0
outer loop
vertex 98.722477270536 116.671598505319 3.0
vertex 98.6225768480314 116.430417550421 0.0
vertex 98.6225768480314 116.430417550421 3.0
endloop
endfacet
facet normal -0.866025403784432 0.500000000000012 0.0
outer loop
vertex 98.6225768480314 116.430417550421 0.0
vertex 98.722477270536 116.671598505319 3.0
vertex 98.722477270536 116.671598505319 0.0
endloop
endfacet
facet normal -2.14133970792395e-14 1.0 0.0
outer loop
vertex 116.758275582178 98.7568198714763 3.0
vertex 117.017094627281 98.7908940451872 0.0
vertex 116.758275582178 98.7568198714763 0.0
endloop
endfacet
facet normal -0.258819045102523 0.965925826289067 0.0
outer loop
vertex 117.017094627281 98.7908940451872 0.0
vertex 116.758275582178 98.7568198714763 3.0
vertex 117.017094627281 98.7908940451872 3.0
endloop
endfacet
facet normal -0.866025403784442 -0.499999999999994 0.0
outer loop
vertex 98.6225768480314 117.430417550421 3.0
vertex 98.722477270536 117.189236595524 0.0
vertex 98.722477270536 117.189236595524 3.0
endloop
endfacet
facet normal -0.965925826289065 -0.258819045102534 0.0
outer loop
vertex 98.722477270536 117.189236595524 0.0
vertex 98.6225768480314 117.430417550421 3.0
vertex 98.6225768480314 117.430417550421 0.0
endloop
endfacet
facet normal -0.258819045102523 0.965925826289067 0.0
outer loop
vertex 117.017094627281 98.7908940451872 3.0
vertex 117.258275582178 98.8907944676918 0.0
vertex 117.017094627281 98.7908940451872 0.0
endloop
endfacet
facet normal -0.499999999999979 0.866025403784451 0.0
outer loop
vertex 117.258275582178 98.8907944676918 0.0
vertex 117.017094627281 98.7908940451872 3.0
vertex 117.258275582178 98.8907944676918 3.0
endloop
endfacet
facet normal -0.965925826289066 -0.258819045102529 0.0
outer loop
vertex 117.724201408467 100.015638916579 3.0
vertex 117.758275582178 99.7568198714762 0.0
vertex 117.758275582178 99.7568198714762 3.0
endloop
endfacet
facet normal -1.0 0.0 0.0
outer loop
vertex 117.758275582178 99.7568198714762 0.0
vertex 117.724201408467 100.015638916579 3.0
vertex 117.724201408467 100.015638916579 0.0
endloop
endfacet
facet normal -0.499999999999979 0.866025403784451 0.0
outer loop
vertex 117.258275582178 98.8907944676918 3.0
vertex 117.465382363365 99.0497130902897 0.0
vertex 117.258275582178 98.8907944676918 0.0
endloop
endfacet
facet normal -0.707106781186488 0.707106781186608 0.0
outer loop
vertex 117.465382363365 99.0497130902897 0.0
vertex 117.258275582178 98.8907944676918 3.0
vertex 117.465382363365 99.0497130902897 3.0
endloop
endfacet
facet normal 0.707106781186548 0.707106781186548 0.0
outer loop
vertex 116.051168800992 99.0497130902897 3.0
vertex 116.258275582178 98.8907944676918 0.0
vertex 116.051168800992 99.0497130902897 0.0
endloop
endfacet
facet normal 0.499999999999997 0.866025403784441 0.0
outer loop
vertex 116.258275582178 98.8907944676918 0.0
vertex 116.051168800992 99.0497130902897 3.0
vertex 116.258275582178 98.8907944676918 3.0
endloop
endfacet
facet normal -0.707106781186548 -0.707106781186548 0.0
outer loop
vertex 117.465382363365 100.463926652663 3.0
vertex 117.258275582178 100.622845275261 0.0
vertex 117.465382363365 100.463926652663 0.0
endloop
endfacet
facet normal -0.499999999999997 -0.866025403784441 0.0
outer loop
vertex 117.258275582178 100.622845275261 0.0
vertex 117.465382363365 100.463926652663 3.0
vertex 117.258275582178 100.622845275261 3.0
endloop
endfacet
facet normal 0.965925826289066 0.258819045102529 0.0
outer loop
vertex 115.792349755889 99.4980008263737 0.0
vertex 115.892250178394 99.2568198714763 3.0
vertex 115.892250178394 99.2568198714763 0.0
endloop
endfacet
facet normal 0.866025403784446 0.499999999999986 0.0
outer loop
vertex 115.892250178394 99.2568198714763 3.0
vertex 115.792349755889 99.4980008263737 0.0
vertex 115.792349755889 99.4980008263737 3.0
endloop
endfacet
facet normal -0.793353340291149 0.608761429008833 0.0
outer loop
vertex 117.496206616661 99.0898840392842 3.0
vertex 117.465382363365 99.0497130902897 0.0
vertex 117.465382363365 99.0497130902897 3.0
endloop
endfacet
facet normal -0.707106781186488 0.707106781186608 0.0
outer loop
vertex 117.465382363365 99.0497130902897 0.0
vertex 117.496206616661 99.0898840392842 3.0
vertex 117.496206616661 99.0898840392842 0.0
endloop
endfacet
facet normal 0.998725538234079 0.0504707764855105 0.0
outer loop
vertex 105.959737598662 107.133671042423 0.0
vertex 106.077471462799 106.491747442123 3.0
vertex 106.077471462799 106.491747442123 0.0
endloop
endfacet
facet normal 0.951631992579184 0.307240216605464 0.0
outer loop
vertex 106.077471462799 106.491747442123 3.0
vertex 105.959737598662 107.133671042423 0.0
vertex 105.959737598662 107.133671042423 3.0
endloop
endfacet
facet normal 0.5 -0.866025403784439 0.0
outer loop
vertex 115.706551444247 94.7024796287623 3.0
vertex 112.209427598234 93.2539235024452 0.0
vertex 115.706551444247 94.7024796287623 0.0
endloop
endfacet
facet normal 0.258819045102522 -0.965925826289068 0.0
outer loop
vertex 112.209427598234 93.2539235024452 0.0
vertex 115.706551444247 94.7024796287623 3.0
vertex 112.209427598234 93.2539235024452 3.0
endloop
endfacet
facet normal 0.707106781186549 -0.707106781186546 0.0
outer loop
vertex 118.709599771452 97.0067996564318 3.0
vertex 115.706551444247 94.7024796287623 0.0
vertex 118.709599771452 97.0067996564318 0.0
endloop
endfacet
facet normal 0.5 -0.866025403784439 0.0
outer loop
vertex 115.706551444247 94.7024796287623 0.0
vertex 118.709599771452 97.0067996564318 3.0
vertex 115.706551444247 94.7024796287623 3.0
endloop
endfacet
facet normal -0.258819045102526 -0.965925826289067 0.0
outer loop
vertex 98.0153704893495 117.89634337671 3.0
vertex 97.756551444247 117.930417550421 0.0
vertex 98.0153704893495 117.89634337671 0.0
endloop
endfacet
facet normal 4.28357052683745e-14 -1.0 0.0
outer loop
vertex 97.756551444247 117.930417550421 0.0
vertex 98.0153704893495 117.89634337671 3.0
vertex 97.756551444247 117.930417550421 3.0
endloop
endfacet
facet normal 0.0504707764855105 -0.998725538234079 0.0
outer loop
vertex 108.330374503033 109.756661829222 3.0
vertex 107.688450902733 109.638927965085 0.0
vertex 108.330374503033 109.756661829222 0.0
endloop
endfacet
facet normal 0.307240216605464 -0.951631992579184 0.0
outer loop
vertex 107.688450902733 109.638927965085 0.0
vertex 108.330374503033 109.756661829222 3.0
vertex 107.688450902733 109.638927965085 3.0
endloop
endfacet
facet normal -1.0 -0.0 -0.0
outer loop
vertex 93.956551444247 119.241721097527 3.0
vertex 93.956551444247 107.259847983637 0.0
vertex 93.956551444247 107.259847983637 3.0
endloop
endfacet
facet normal -1.0 -0.0 -0.0
outer loop
vertex 93.956551444247 107.259847983637 0.0
vertex 93.956551444247 119.241721097527 3.0
vertex 93.956551444247 119.241721097527 0.0
endloop
endfacet
facet normal 0.543071743702214 -0.839686299276246 0.0
outer loop
vertex 107.098872084991 109.359063731827 3.0
vertex 106.601816871912 108.936141414449 0.0
vertex 107.098872084991 109.359063731827 0.0
endloop
endfacet
facet normal 0.741893828934147 -0.670517372324856 0.0
outer loop
vertex 106.601816871912 108.936141414449 0.0
vertex 107.098872084991 109.359063731827 3.0
vertex 106.601816871912 108.936141414449 3.0
endloop
endfacet
facet normal -0.866025403784438 -0.500000000000001 0.0
outer loop
vertex 95.8991830893727 100.009847983637 3.0
vertex 98.2035031170421 97.0067996564318 0.0
vertex 98.2035031170421 97.0067996564318 3.0
endloop
endfacet
facet normal -0.707106781186548 -0.707106781186548 0.0
outer loop
vertex 98.2035031170421 97.0067996564318 0.0
vertex 95.8991830893727 100.009847983637 3.0
vertex 95.8991830893727 100.009847983637 0.0
endloop
endfacet
facet normal -0.0504707764855105 0.998725538234079 0.0
outer loop
vertex 108.582728385461 104.763034138051 3.0
vertex 109.224651985761 104.880768002189 0.0
vertex 108.582728385461 104.763034138051 0.0
endloop
endfacet
facet normal -0.307240216605464 0.951631992579184 0.0
outer loop
vertex 109.224651985761 104.880768002189 0.0
vertex 108.582728385461 104.763034138051 3.0
vertex 109.224651985761 104.880768002189 3.0
endloop
endfacet
facet normal 0.793353340291277 -0.608761429008667 0.0
outer loop
vertex 116.020344547695 100.423755703668 0.0
vertex 115.892250178394 100.256819871476 3.0
vertex 115.892250178394 100.256819871476 0.0
endloop
endfacet
facet normal 0.866025403784457 -0.499999999999969 0.0
outer loop
vertex 115.892250178394 100.256819871476 3.0
vertex 116.020344547695 100.423755703668 0.0
vertex 116.020344547695 100.423755703668 3.0
endloop
endfacet
facet normal -0.707106781186537 -0.707106781186558 0.0
outer loop
vertex 98.4636582254335 117.637524331608 3.0
vertex 98.4147898706525 117.675022339089 0.0
vertex 98.4636582254335 117.637524331608 0.0
endloop
endfacet
facet normal -0.608761429008676 -0.793353340291269 -0.0
outer loop
vertex 98.4147898706525 117.675022339089 0.0
vertex 98.4636582254335 117.637524331608 3.0
vertex 98.4147898706525 117.675022339089 3.0
endloop
endfacet
facet normal -0.707106781186548 -0.707106781186548 0.0
outer loop
vertex 117.465382363365 100.463926652663 3.0
vertex 117.624300985962 100.256819871476 0.0
vertex 117.624300985962 100.256819871476 3.0
endloop
endfacet
facet normal -0.866025403784446 -0.499999999999986 0.0
outer loop
vertex 117.624300985962 100.256819871476 0.0
vertex 117.465382363365 100.463926652663 3.0
vertex 117.465382363365 100.463926652663 0.0
endloop
endfacet
facet normal -0.99144486137381 -0.130526192220053 -0.0
outer loop
vertex 93.956551444247 107.259847983637 3.0
vertex 94.4506269630555 103.50697182965 0.0
vertex 94.4506269630555 103.50697182965 3.0
endloop
endfacet
facet normal -0.965925826289068 -0.258819045102521 0.0
outer loop
vertex 94.4506269630555 103.50697182965 0.0
vertex 93.956551444247 107.259847983637 3.0
vertex 93.956551444247 107.259847983637 0.0
endloop
endfacet
facet normal -0.499999999999997 -0.866025403784441 0.0
outer loop
vertex 117.258275582178 100.622845275261 3.0
vertex 117.017094627281 100.722745697765 0.0
vertex 117.258275582178 100.622845275261 0.0
endloop
endfacet
facet normal -0.258819045102522 -0.965925826289068 0.0
outer loop
vertex 117.017094627281 100.722745697765 0.0
vertex 117.258275582178 100.622845275261 3.0
vertex 117.017094627281 100.722745697765 3.0
endloop
endfacet
facet normal 2.14133970792395e-14 -1.0 0.0
outer loop
vertex 116.758275582178 100.756819871476 3.0
vertex 116.499456537076 100.722745697765 0.0
vertex 116.758275582178 100.756819871476 0.0
endloop
endfacet
facet normal 0.258819045102523 -0.965925826289067 0.0
outer loop
vertex 116.499456537076 100.722745697765 0.0
vertex 116.758275582178 100.756819871476 3.0
vertex 116.499456537076 100.722745697765 3.0
endloop
endfacet
facet normal 0.20973816364503 0.977757588930309 0.0
outer loop
vertex 107.932206035134 104.815454011311 3.0
vertex 108.582728385461 104.763034138051 0.0
vertex 107.932206035134 104.815454011311 0.0
endloop
endfacet
facet normal -0.0504707764855105 0.998725538234079 0.0
outer loop
vertex 108.582728385461 104.763034138051 0.0
vertex 107.932206035134 104.815454011311 3.0
vertex 108.582728385461 104.763034138051 3.0
endloop
endfacet
facet normal 0.866025403784442 0.499999999999994 0.0
outer loop
vertex 96.8905260404625 116.430417550421 0.0
vertex 97.0494446630604 116.223310769235 3.0
vertex 97.0494446630604 116.223310769235 0.0
endloop
endfacet
facet normal 0.707106781186548 0.707106781186548 0.0
outer loop
vertex 97.0494446630604 116.223310769235 3.0
vertex 96.8905260404625 116.430417550421 0.0
vertex 96.8905260404625 116.430417550421 3.0
endloop
endfacet
facet normal 0.707106781186548 -0.707106781186548 0.0
outer loop
vertex 97.0494446630604 117.637524331608 0.0
vertex 96.8905260404625 117.430417550421 3.0
vertex 96.8905260404625 117.430417550421 0.0
endloop
endfacet
facet normal 0.866025403784432 -0.500000000000011 0.0
outer loop
vertex 96.8905260404625 117.430417550421 3.0
vertex 97.0494446630604 117.637524331608 0.0
vertex 97.0494446630604 117.637524331608 3.0
endloop
endfacet
facet normal 0.500000000000021 0.866025403784427 0.0
outer loop
vertex 97.256551444247 116.064392146637 3.0
vertex 97.4977323991445 115.964491724132 0.0
vertex 97.256551444247 116.064392146637 0.0
endloop
endfacet
facet normal 0.258819045102526 0.965925826289067 0.0
outer loop
vertex 97.4977323991445 115.964491724132 0.0
vertex 97.256551444247 116.064392146637 3.0
vertex 97.4977323991445 115.964491724132 3.0
endloop
endfacet
facet normal -4.28357052683745e-14 1.0 0.0
outer loop
vertex 97.756551444247 115.930417550421 3.0
vertex 98.0153704893495 115.964491724132 0.0
vertex 97.756551444247 115.930417550421 0.0
endloop
endfacet
facet normal -0.258819045102529 0.965925826289066 0.0
outer loop
vertex 98.0153704893495 115.964491724132 0.0
vertex 97.756551444247 115.930417550421 3.0
vertex 98.0153704893495 115.964491724132 3.0
endloop
endfacet
facet normal 0.866025403784457 -0.499999999999969 0.0
outer loop
vertex 115.892250178394 100.256819871476 0.0
vertex 115.792349755889 100.015638916579 3.0
vertex 115.792349755889 100.015638916579 0.0
endloop
endfacet
facet normal 0.965925826289066 -0.258819045102529 0.0
outer loop
vertex 115.792349755889 100.015638916579 3.0
vertex 115.892250178394 100.256819871476 0.0
vertex 115.892250178394 100.256819871476 3.0
endloop
endfacet
facet normal 0.258819045102522 0.965925826289068 0.0
outer loop
vertex 116.499456537076 98.7908940451872 3.0
vertex 116.758275582178 98.7568198714763 0.0
vertex 116.499456537076 98.7908940451872 0.0
endloop
endfacet
facet normal -2.14133970792395e-14 1.0 0.0
outer loop
vertex 116.758275582178 98.7568198714763 0.0
vertex 116.499456537076 98.7908940451872 3.0
vertex 116.758275582178 98.7568198714763 3.0
endloop
endfacet
facet normal 0.866025403784446 0.499999999999986 0.0
outer loop
vertex 115.892250178394 99.2568198714763 0.0
vertex 116.051168800992 99.0497130902897 3.0
vertex 116.051168800992 99.0497130902897 0.0
endloop
endfacet
facet normal 0.707106781186548 0.707106781186548 0.0
outer loop
vertex 116.051168800992 99.0497130902897 3.0
vertex 115.892250178394 99.2568198714763 0.0
vertex 115.892250178394 99.2568198714763 3.0
endloop
endfacet
facet normal -0.866025403784432 0.500000000000012 0.0
outer loop
vertex 98.6225768480314 116.430417550421 3.0
vertex 98.4944824787297 116.263481718229 0.0
vertex 98.4944824787297 116.263481718229 3.0
endloop
endfacet
facet normal -0.793353340291251 0.608761429008701 0.0
outer loop
vertex 98.4944824787297 116.263481718229 0.0
vertex 98.6225768480314 116.430417550421 3.0
vertex 98.6225768480314 116.430417550421 0.0
endloop
endfacet
facet normal 0.839686299276246 0.543071743702214 0.0
outer loop
vertex 106.357335696056 105.902168624381 0.0
vertex 106.780258013435 105.405113411301 3.0
vertex 106.780258013435 105.405113411301 0.0
endloop
endfacet
facet normal 0.670517372324856 0.741893828934147 0.0
outer loop
vertex 106.780258013435 105.405113411301 3.0
vertex 106.357335696056 105.902168624381 0.0
vertex 106.357335696056 105.902168624381 3.0
endloop
endfacet
facet normal 0.499999999999997 0.866025403784441 0.0
outer loop
vertex 116.258275582178 98.8907944676918 3.0
vertex 116.499456537076 98.7908940451872 0.0
vertex 116.258275582178 98.8907944676918 0.0
endloop
endfacet
facet normal 0.258819045102522 0.965925826289068 0.0
outer loop
vertex 116.499456537076 98.7908940451872 0.0
vertex 116.258275582178 98.8907944676918 3.0
vertex 116.499456537076 98.7908940451872 3.0
endloop
endfacet
facet normal -0.258819045102522 -0.965925826289068 0.0
outer loop
vertex 117.017094627281 100.722745697765 3.0
vertex 116.758275582178 100.756819871476 0.0
vertex 117.017094627281 100.722745697765 0.0
endloop
endfacet
facet normal 2.14133970792395e-14 -1.0 0.0
outer loop
vertex 116.758275582178 100.756819871476 0.0
vertex 117.017094627281 100.722745697765 3.0
vertex 116.758275582178 100.756819871476 3.0
endloop
endfacet
facet normal -0.707106781186537 -0.707106781186558 0.0
outer loop
vertex 98.4636582254335 117.637524331608 3.0
vertex 98.6225768480314 117.430417550421 0.0
vertex 98.6225768480314 117.430417550421 3.0
endloop
endfacet
facet normal -0.866025403784442 -0.499999999999994 0.0
outer loop
vertex 98.6225768480314 117.430417550421 0.0
vertex 98.4636582254335 117.637524331608 3.0
vertex 98.4636582254335 117.637524331608 0.0
endloop
endfacet
facet normal 0.965925826289065 0.258819045102534 0.0
outer loop
vertex 96.7906256179579 116.671598505319 0.0
vertex 96.8905260404625 116.430417550421 3.0
vertex 96.8905260404625 116.430417550421 0.0
endloop
endfacet
facet normal 0.866025403784442 0.499999999999994 0.0
outer loop
vertex 96.8905260404625 116.430417550421 3.0
vertex 96.7906256179579 116.671598505319 0.0
vertex 96.7906256179579 116.671598505319 3.0
endloop
endfacet
facet normal -0.608761429008706 -0.793353340291246 -0.0
outer loop
vertex 98.4147898706525 117.675022339089 3.0
vertex 98.256551444247 117.796442954206 0.0
vertex 98.4147898706525 117.675022339089 0.0
endloop
endfacet
facet normal -0.500000000000025 -0.866025403784424 0.0
outer loop
vertex 98.256551444247 117.796442954206 0.0
vertex 98.4147898706525 117.675022339089 3.0
vertex 98.256551444247 117.796442954206 3.0
endloop
endfacet
facet normal 0.965925826289065 -0.258819045102533 0.0
outer loop
vertex 96.7906256179579 117.189236595524 0.0
vertex 96.756551444247 116.930417550421 3.0
vertex 96.756551444247 116.930417550421 0.0
endloop
endfacet
facet normal 1.0 2.14133970792395e-14 0.0
outer loop
vertex 96.756551444247 116.930417550421 3.0
vertex 96.7906256179579 117.189236595524 0.0
vertex 96.7906256179579 117.189236595524 3.0
endloop
endfacet
facet normal -1.0 -2.14133970792395e-14 0.0
outer loop
vertex 98.756551444247 116.930417550421 3.0
vertex 98.722477270536 116.671598505319 0.0
vertex 98.722477270536 116.671598505319 3.0
endloop
endfacet
facet normal -0.965925826289065 0.258819045102533 0.0
outer loop
vertex 98.722477270536 116.671598505319 0.0
vertex 98.756551444247 116.930417550421 3.0
vertex 98.756551444247 116.930417550421 0.0
endloop
endfacet
facet normal 0.45565379453187 0.890157075761749 0.0
outer loop
vertex 107.317416957917 105.034455294232 3.0
vertex 107.932206035134 104.815454011311 0.0
vertex 107.317416957917 105.034455294232 0.0
endloop
endfacet
facet normal 0.20973816364503 0.977757588930309 0.0
outer loop
vertex 107.932206035134 104.815454011311 0.0
vertex 107.317416957917 105.034455294232 3.0
vertex 107.932206035134 104.815454011311 3.0
endloop
endfacet
facet normal 0.670517372324856 0.741893828934147 0.0
outer loop
vertex 106.780258013435 105.405113411301 3.0
vertex 107.317416957917 105.034455294232 0.0
vertex 106.780258013435 105.405113411301 0.0
endloop
endfacet
facet normal 0.45565379453187 0.890157075761749 0.0
outer loop
vertex 107.317416957917 105.034455294232 0.0
vertex 106.780258013435 105.405113411301 3.0
vertex 107.317416957917 105.034455294232 3.0
endloop
endfacet
facet normal 0.258819045102529 -0.965925826289066 0.0
outer loop
vertex 97.4977323991445 117.89634337671 3.0
vertex 97.256551444247 117.796442954206 0.0
vertex 97.4977323991445 117.89634337671 0.0
endloop
endfacet
facet normal 0.499999999999986 -0.866025403784446 0.0
outer loop
vertex 97.256551444247 117.796442954206 0.0
vertex 97.4977323991445 117.89634337671 3.0
vertex 97.256551444247 117.796442954206 3.0
endloop
endfacet
facet normal -0.307240216605464 0.951631992579184 0.0
outer loop
vertex 109.224651985761 104.880768002189 3.0
vertex 109.814230803503 105.160632235446 0.0
vertex 109.224651985761 104.880768002189 0.0
endloop
endfacet
facet normal -0.543071743702214 0.839686299276246 0.0
outer loop
vertex 109.814230803503 105.160632235446 0.0
vertex 109.224651985761 104.880768002189 3.0
vertex 109.814230803503 105.160632235446 3.0
endloop
endfacet
endsolid new effoctor
