solid new effoctor
facet normal 0.0 0.866025403784439 -0.499999999999999
outer loop
vertex 85.1401455894765 9.02502270973883 9.5
vertex 87.1401455894765 8.9251222872342 9.25881904510252
vertex 85.1401455894765 8.9251222872342 9.25881904510252
endloop
endfacet
facet normal 0.0 0.965925826289069 -0.258819045102519
outer loop
vertex 87.1401455894765 8.9251222872342 9.25881904510252
vertex 85.1401455894765 9.02502270973883 9.5
vertex 87.1401455894765 9.02502270973883 9.5
endloop
endfacet
facet normal 0.0 3.65355505721523e-16 1.0
outer loop
vertex 87.1401455894765 9.89104811352327 8.0
vertex 85.1401455894765 10.1498671586258 8.03407417371093
vertex 85.1401455894765 9.89104811352327 8.0
endloop
endfacet
facet normal 0.0 -0.258819045102521 0.965925826289068
outer loop
vertex 85.1401455894765 10.1498671586258 8.03407417371093
vertex 87.1401455894765 9.89104811352327 8.0
vertex 87.1401455894765 10.1498671586258 8.03407417371093
endloop
endfacet
facet normal 0.0 0.965925826289068 -0.258819045102521
outer loop
vertex 85.1401455894765 18.4251222872342 9.25881904510252
vertex 87.1401455894765 18.3910481135233 9.0
vertex 85.1401455894765 18.3910481135233 9.0
endloop
endfacet
facet normal 0.0 1.0 -3.65355505721523e-16
outer loop
vertex 87.1401455894765 18.3910481135233 9.0
vertex 85.1401455894765 18.4251222872342 9.25881904510252
vertex 87.1401455894765 18.4251222872342 9.25881904510252
endloop
endfacet
facet normal 0.0 0.0 1.0
outer loop
vertex 87.1401455894765 19.3910481135233 8.0
vertex 85.1401455894765 19.6498671586258 8.03407417371093
vertex 85.1401455894765 19.3910481135233 8.0
endloop
endfacet
facet normal 0.0 -0.25881904510252 0.965925826289069
outer loop
vertex 85.1401455894765 19.6498671586258 8.03407417371093
vertex 87.1401455894765 19.3910481135233 8.0
vertex 87.1401455894765 19.6498671586258 8.03407417371093
endloop
endfacet
facet normal 0.0 1.0 -3.65355505721523e-16
outer loop
vertex 85.1401455894765 8.89104811352327 9.0
vertex 87.1401455894765 8.9251222872342 8.74118095489748
vertex 85.1401455894765 8.9251222872342 8.74118095489748
endloop
endfacet
facet normal 0.0 0.965925826289068 0.258819045102521
outer loop
vertex 87.1401455894765 8.9251222872342 8.74118095489748
vertex 85.1401455894765 8.89104811352327 9.0
vertex 87.1401455894765 8.89104811352327 9.0
endloop
endfacet
facet normal 0.0 1.0 -3.65355505721523e-16
outer loop
vertex 85.1401455894765 18.3910481135233 9.0
vertex 87.1401455894765 18.4251222872342 8.74118095489747
vertex 85.1401455894765 18.4251222872342 8.74118095489747
endloop
endfacet
facet normal 0.0 0.965925826289068 0.258819045102521
outer loop
vertex 87.1401455894765 18.4251222872342 8.74118095489747
vertex 85.1401455894765 18.3910481135233 9.0
vertex 87.1401455894765 18.3910481135233 9.0
endloop
endfacet
facet normal 0.0 0.86602540378444 -0.499999999999998
outer loop
vertex 85.1401455894765 18.5250227097388 9.5
vertex 87.1401455894765 18.4251222872342 9.25881904510252
vertex 85.1401455894765 18.4251222872342 9.25881904510252
endloop
endfacet
facet normal 0.0 0.965925826289068 -0.258819045102521
outer loop
vertex 87.1401455894765 18.4251222872342 9.25881904510252
vertex 85.1401455894765 18.5250227097388 9.5
vertex 87.1401455894765 18.5250227097388 9.5
endloop
endfacet
facet normal 1.0 0.0 0.0
outer loop
vertex 91.5401455894766 4.64104811352328 -3.0
vertex 91.5401455894766 -0.85895188647673 11.2
vertex 91.5401455894766 -0.85895188647673 -3.0
endloop
endfacet
facet normal 1.0 0.0 0.0
outer loop
vertex 91.5401455894766 -0.85895188647673 11.2
vertex 91.5401455894766 4.64104811352328 -3.0
vertex 91.5401455894766 4.64104811352328 11.2
endloop
endfacet
facet normal 0.0 -1.0 0.0
outer loop
vertex 91.5401455894766 24.6410481135233 11.2
vertex 87.1401455894765 24.6410481135233 -3.0
vertex 91.5401455894766 24.6410481135233 -3.0
endloop
endfacet
facet normal 0.0 -1.0 0.0
outer loop
vertex 87.1401455894765 24.6410481135233 -3.0
vertex 91.5401455894766 24.6410481135233 11.2
vertex 87.1401455894765 24.6410481135233 11.2
endloop
endfacet
facet normal -0.9781380915719 -0.207956422877682 -0.0
outer loop
vertex 89.2864483711788 28.2395130106771 11.2
vertex 89.6531483711788 26.5147130106771 -3.0
vertex 89.6531483711788 26.5147130106771 11.2
endloop
endfacet
facet normal -0.9781380915719 -0.207956422877682 -0.0
outer loop
vertex 89.6531483711788 26.5147130106771 -3.0
vertex 89.2864483711788 28.2395130106771 11.2
vertex 89.2864483711788 28.2395130106771 -3.0
endloop
endfacet
facet normal -1.0 0.0 0.0
outer loop
vertex 85.1401455894765 -0.85895188647673 11.2
vertex 85.1401455894765 9.18394133233672 9.70710678118654
vertex 85.1401455894765 -0.85895188647673 -3.0
endloop
endfacet
facet normal -1.0 0.0 0.0
outer loop
vertex 85.1401455894765 9.18394133233672 9.70710678118654
vertex 85.1401455894765 -0.85895188647673 11.2
vertex 85.1401455894765 9.39104811352327 9.86602540378444
endloop
endfacet
facet normal -1.0 0.0 0.0
outer loop
vertex 85.1401455894765 9.39104811352327 9.86602540378444
vertex 85.1401455894765 -0.85895188647673 11.2
vertex 85.1401455894765 9.63222906842075 9.96592582628907
endloop
endfacet
facet normal -1.0 0.0 0.0
outer loop
vertex 85.1401455894765 9.63222906842075 9.96592582628907
vertex 85.1401455894765 -0.85895188647673 11.2
vertex 85.1401455894765 9.89104811352327 10.0
endloop
endfacet
facet normal -1.0 0.0 0.0
outer loop
vertex 85.1401455894765 9.89104811352327 10.0
vertex 85.1401455894765 -0.85895188647673 11.2
vertex 85.1401455894765 30.1410481135233 11.2
endloop
endfacet
facet normal -1.0 0.0 0.0
outer loop
vertex 85.1401455894765 -0.85895188647673 -3.0
vertex 85.1401455894765 9.18394133233672 9.70710678118654
vertex 85.1401455894765 9.02502270973883 9.5
endloop
endfacet
facet normal -1.0 0.0 0.0
outer loop
vertex 85.1401455894765 -0.85895188647673 -3.0
vertex 85.1401455894765 9.02502270973883 9.5
vertex 85.1401455894765 8.9251222872342 9.25881904510252
endloop
endfacet
facet normal -1.0 0.0 0.0
outer loop
vertex 85.1401455894765 -0.85895188647673 -3.0
vertex 85.1401455894765 8.9251222872342 9.25881904510252
vertex 85.1401455894765 8.89104811352327 9.0
endloop
endfacet
facet normal -1.0 0.0 0.0
outer loop
vertex 85.1401455894765 9.89104811352327 10.0
vertex 85.1401455894765 30.1410481135233 11.2
vertex 85.1401455894765 10.1498671586258 9.96592582628907
endloop
endfacet
facet normal -1.0 0.0 0.0
outer loop
vertex 85.1401455894765 10.1498671586258 9.96592582628907
vertex 85.1401455894765 30.1410481135233 11.2
vertex 85.1401455894765 10.3910481135233 9.86602540378444
endloop
endfacet
facet normal -1.0 0.0 0.0
outer loop
vertex 85.1401455894765 10.3910481135233 9.86602540378444
vertex 85.1401455894765 30.1410481135233 11.2
vertex 85.1401455894765 10.5981548947098 9.70710678118655
endloop
endfacet
facet normal -1.0 0.0 0.0
outer loop
vertex 85.1401455894765 10.5981548947098 9.70710678118655
vertex 85.1401455894765 30.1410481135233 11.2
vertex 85.1401455894765 10.7570735173077 9.5
endloop
endfacet
facet normal -1.0 0.0 0.0
outer loop
vertex 85.1401455894765 10.7570735173077 9.5
vertex 85.1401455894765 30.1410481135233 11.2
vertex 85.1401455894765 10.8569739398123 9.25881904510252
endloop
endfacet
facet normal -1.0 0.0 0.0
outer loop
vertex 85.1401455894765 10.8569739398123 9.25881904510252
vertex 85.1401455894765 30.1410481135233 11.2
vertex 85.1401455894765 19.3910481135233 10.0
endloop
endfacet
facet normal -1.0 0.0 0.0
outer loop
vertex 85.1401455894765 10.8569739398123 9.25881904510252
vertex 85.1401455894765 19.3910481135233 10.0
vertex 85.1401455894765 10.8910481135233 9.0
endloop
endfacet
facet normal -1.0 0.0 0.0
outer loop
vertex 85.1401455894765 10.8910481135233 9.0
vertex 85.1401455894765 19.3910481135233 10.0
vertex 85.1401455894765 19.1322290684207 9.96592582628907
endloop
endfacet
facet normal -1.0 0.0 0.0
outer loop
vertex 85.1401455894765 10.8910481135233 9.0
vertex 85.1401455894765 19.1322290684207 9.96592582628907
vertex 85.1401455894765 18.8910481135233 9.86602540378444
endloop
endfacet
facet normal -1.0 0.0 0.0
outer loop
vertex 85.1401455894765 10.8910481135233 9.0
vertex 85.1401455894765 18.8910481135233 9.86602540378444
vertex 85.1401455894765 18.6839413323367 9.70710678118654
endloop
endfacet
facet normal -1.0 0.0 0.0
outer loop
vertex 85.1401455894765 10.8910481135233 9.0
vertex 85.1401455894765 18.6839413323367 9.70710678118654
vertex 85.1401455894765 18.5250227097388 9.5
endloop
endfacet
facet normal -1.0 0.0 0.0
outer loop
vertex 85.1401455894765 10.8910481135233 9.0
vertex 85.1401455894765 18.5250227097388 9.5
vertex 85.1401455894765 18.4251222872342 9.25881904510252
endloop
endfacet
facet normal -1.0 0.0 0.0
outer loop
vertex 85.1401455894765 10.8910481135233 9.0
vertex 85.1401455894765 18.4251222872342 9.25881904510252
vertex 85.1401455894765 18.3910481135233 9.0
endloop
endfacet
facet normal -1.0 0.0 0.0
outer loop
vertex 85.1401455894765 19.3910481135233 10.0
vertex 85.1401455894765 30.1410481135233 11.2
vertex 85.1401455894765 19.6498671586258 9.96592582628907
endloop
endfacet
facet normal -1.0 0.0 0.0
outer loop
vertex 85.1401455894765 19.6498671586258 9.96592582628907
vertex 85.1401455894765 30.1410481135233 11.2
vertex 85.1401455894765 19.8910481135233 9.86602540378444
endloop
endfacet
facet normal -1.0 0.0 0.0
outer loop
vertex 85.1401455894765 19.8910481135233 9.86602540378444
vertex 85.1401455894765 30.1410481135233 11.2
vertex 85.1401455894765 20.0981548947098 9.70710678118654
endloop
endfacet
facet normal -1.0 0.0 0.0
outer loop
vertex 85.1401455894765 20.0981548947098 9.70710678118654
vertex 85.1401455894765 30.1410481135233 11.2
vertex 85.1401455894765 20.2570735173077 9.5
endloop
endfacet
facet normal -1.0 0.0 0.0
outer loop
vertex 85.1401455894765 20.2570735173077 9.5
vertex 85.1401455894765 30.1410481135233 11.2
vertex 85.1401455894765 20.3569739398123 9.25881904510252
endloop
endfacet
facet normal -1.0 0.0 0.0
outer loop
vertex 85.1401455894765 20.3569739398123 9.25881904510252
vertex 85.1401455894765 30.1410481135233 11.2
vertex 85.1401455894765 20.3910481135233 9.0
endloop
endfacet
facet normal -1.0 0.0 0.0
outer loop
vertex 85.1401455894765 -0.85895188647673 -3.0
vertex 85.1401455894765 9.39104811352327 8.13397459621556
vertex 85.1401455894765 30.1410481135233 -3.0
endloop
endfacet
facet normal -1.0 0.0 0.0
outer loop
vertex 85.1401455894765 9.39104811352327 8.13397459621556
vertex 85.1401455894765 -0.85895188647673 -3.0
vertex 85.1401455894765 9.18394133233672 8.29289321881345
endloop
endfacet
facet normal -1.0 0.0 0.0
outer loop
vertex 85.1401455894765 9.18394133233672 8.29289321881345
vertex 85.1401455894765 -0.85895188647673 -3.0
vertex 85.1401455894765 9.02502270973883 8.5
endloop
endfacet
facet normal -1.0 0.0 0.0
outer loop
vertex 85.1401455894765 9.02502270973883 8.5
vertex 85.1401455894765 -0.85895188647673 -3.0
vertex 85.1401455894765 8.9251222872342 8.74118095489748
endloop
endfacet
facet normal -1.0 0.0 0.0
outer loop
vertex 85.1401455894765 8.9251222872342 8.74118095489748
vertex 85.1401455894765 -0.85895188647673 -3.0
vertex 85.1401455894765 8.89104811352327 9.0
endloop
endfacet
facet normal -1.0 0.0 0.0
outer loop
vertex 85.1401455894765 30.1410481135233 -3.0
vertex 85.1401455894765 9.39104811352327 8.13397459621556
vertex 85.1401455894765 9.63222906842075 8.03407417371093
endloop
endfacet
facet normal -1.0 0.0 0.0
outer loop
vertex 85.1401455894765 30.1410481135233 -3.0
vertex 85.1401455894765 9.63222906842075 8.03407417371093
vertex 85.1401455894765 9.89104811352327 8.0
endloop
endfacet
facet normal -1.0 0.0 0.0
outer loop
vertex 85.1401455894765 30.1410481135233 -3.0
vertex 85.1401455894765 9.89104811352327 8.0
vertex 85.1401455894765 10.1498671586258 8.03407417371093
endloop
endfacet
facet normal -1.0 0.0 0.0
outer loop
vertex 85.1401455894765 30.1410481135233 -3.0
vertex 85.1401455894765 10.1498671586258 8.03407417371093
vertex 85.1401455894765 10.3910481135233 8.13397459621556
endloop
endfacet
facet normal -1.0 0.0 0.0
outer loop
vertex 85.1401455894765 30.1410481135233 -3.0
vertex 85.1401455894765 10.3910481135233 8.13397459621556
vertex 85.1401455894765 10.5981548947098 8.29289321881345
endloop
endfacet
facet normal -1.0 0.0 0.0
outer loop
vertex 85.1401455894765 30.1410481135233 -3.0
vertex 85.1401455894765 10.5981548947098 8.29289321881345
vertex 85.1401455894765 10.7570735173077 8.5
endloop
endfacet
facet normal -1.0 0.0 0.0
outer loop
vertex 85.1401455894765 30.1410481135233 -3.0
vertex 85.1401455894765 10.7570735173077 8.5
vertex 85.1401455894765 10.8569739398123 8.74118095489748
endloop
endfacet
facet normal -1.0 0.0 0.0
outer loop
vertex 85.1401455894765 30.1410481135233 -3.0
vertex 85.1401455894765 10.8569739398123 8.74118095489748
vertex 85.1401455894765 10.8910481135233 9.0
endloop
endfacet
facet normal -1.0 0.0 0.0
outer loop
vertex 85.1401455894765 30.1410481135233 -3.0
vertex 85.1401455894765 10.8910481135233 9.0
vertex 85.1401455894765 18.6839413323367 8.29289321881345
endloop
endfacet
facet normal -1.0 0.0 0.0
outer loop
vertex 85.1401455894765 18.6839413323367 8.29289321881345
vertex 85.1401455894765 10.8910481135233 9.0
vertex 85.1401455894765 18.5250227097388 8.5
endloop
endfacet
facet normal -1.0 0.0 0.0
outer loop
vertex 85.1401455894765 18.5250227097388 8.5
vertex 85.1401455894765 10.8910481135233 9.0
vertex 85.1401455894765 18.4251222872342 8.74118095489747
endloop
endfacet
facet normal -1.0 0.0 0.0
outer loop
vertex 85.1401455894765 18.4251222872342 8.74118095489747
vertex 85.1401455894765 10.8910481135233 9.0
vertex 85.1401455894765 18.3910481135233 9.0
endloop
endfacet
facet normal -1.0 0.0 0.0
outer loop
vertex 85.1401455894765 30.1410481135233 -3.0
vertex 85.1401455894765 18.6839413323367 8.29289321881345
vertex 85.1401455894765 18.8910481135233 8.13397459621556
endloop
endfacet
facet normal -1.0 0.0 0.0
outer loop
vertex 85.1401455894765 30.1410481135233 -3.0
vertex 85.1401455894765 18.8910481135233 8.13397459621556
vertex 85.1401455894765 19.1322290684207 8.03407417371093
endloop
endfacet
facet normal -1.0 0.0 0.0
outer loop
vertex 85.1401455894765 30.1410481135233 -3.0
vertex 85.1401455894765 19.1322290684207 8.03407417371093
vertex 85.1401455894765 19.3910481135233 8.0
endloop
endfacet
facet normal -1.0 0.0 0.0
outer loop
vertex 85.1401455894765 30.1410481135233 -3.0
vertex 85.1401455894765 19.3910481135233 8.0
vertex 85.1401455894765 19.6498671586258 8.03407417371093
endloop
endfacet
facet normal -1.0 0.0 0.0
outer loop
vertex 85.1401455894765 30.1410481135233 -3.0
vertex 85.1401455894765 19.6498671586258 8.03407417371093
vertex 85.1401455894765 19.8910481135233 8.13397459621556
endloop
endfacet
facet normal -1.0 0.0 0.0
outer loop
vertex 85.1401455894765 30.1410481135233 -3.0
vertex 85.1401455894765 19.8910481135233 8.13397459621556
vertex 85.1401455894765 20.0981548947098 8.29289321881345
endloop
endfacet
facet normal -1.0 0.0 0.0
outer loop
vertex 85.1401455894765 30.1410481135233 -3.0
vertex 85.1401455894765 20.0981548947098 8.29289321881345
vertex 85.1401455894765 20.2570735173077 8.5
endloop
endfacet
facet normal -1.0 0.0 0.0
outer loop
vertex 85.1401455894765 30.1410481135233 -3.0
vertex 85.1401455894765 20.2570735173077 8.5
vertex 85.1401455894765 20.3569739398123 8.74118095489747
endloop
endfacet
facet normal -1.0 0.0 0.0
outer loop
vertex 85.1401455894765 30.1410481135233 -3.0
vertex 85.1401455894765 20.3569739398123 8.74118095489747
vertex 85.1401455894765 20.3910481135233 9.0
endloop
endfacet
facet normal -1.0 0.0 0.0
outer loop
vertex 85.1401455894765 30.1410481135233 -3.0
vertex 85.1401455894765 20.3910481135233 9.0
vertex 85.1401455894765 30.1410481135233 11.2
endloop
endfacet
facet normal 0.0 -0.707106781186548 -0.707106781186548
outer loop
vertex 87.1401455894765 10.5981548947098 9.70710678118655
vertex 85.1401455894765 10.7570735173077 9.5
vertex 87.1401455894765 10.7570735173077 9.5
endloop
endfacet
facet normal 0.0 -0.866025403784438 -0.500000000000001
outer loop
vertex 85.1401455894765 10.7570735173077 9.5
vertex 87.1401455894765 10.5981548947098 9.70710678118655
vertex 85.1401455894765 10.5981548947098 9.70710678118655
endloop
endfacet
facet normal 0.0 -0.707106781186548 -0.707106781186547
outer loop
vertex 87.1401455894765 20.0981548947098 9.70710678118654
vertex 85.1401455894765 20.2570735173077 9.5
vertex 87.1401455894765 20.2570735173077 9.5
endloop
endfacet
facet normal 0.0 -0.866025403784439 -0.499999999999999
outer loop
vertex 85.1401455894765 20.2570735173077 9.5
vertex 87.1401455894765 20.0981548947098 9.70710678118654
vertex 85.1401455894765 20.0981548947098 9.70710678118654
endloop
endfacet
facet normal 0.0 -0.258819045102521 0.965925826289068
outer loop
vertex 87.1401455894765 10.1498671586258 8.03407417371093
vertex 85.1401455894765 10.3910481135233 8.13397459621556
vertex 85.1401455894765 10.1498671586258 8.03407417371093
endloop
endfacet
facet normal 0.0 -0.500000000000001 0.866025403784438
outer loop
vertex 85.1401455894765 10.3910481135233 8.13397459621556
vertex 87.1401455894765 10.1498671586258 8.03407417371093
vertex 87.1401455894765 10.3910481135233 8.13397459621556
endloop
endfacet
facet normal 0.0 0.499999999999999 0.866025403784439
outer loop
vertex 87.1401455894765 9.39104811352327 8.13397459621556
vertex 85.1401455894765 9.63222906842075 8.03407417371093
vertex 85.1401455894765 9.39104811352327 8.13397459621556
endloop
endfacet
facet normal 0.0 0.258819045102519 0.965925826289069
outer loop
vertex 85.1401455894765 9.63222906842075 8.03407417371093
vertex 87.1401455894765 9.39104811352327 8.13397459621556
vertex 87.1401455894765 9.63222906842075 8.03407417371093
endloop
endfacet
facet normal 0.0 -0.500000000000001 0.866025403784438
outer loop
vertex 87.1401455894765 10.3910481135233 8.13397459621556
vertex 85.1401455894765 10.5981548947098 8.29289321881345
vertex 85.1401455894765 10.3910481135233 8.13397459621556
endloop
endfacet
facet normal 0.0 -0.707106781186549 0.707106781186546
outer loop
vertex 85.1401455894765 10.5981548947098 8.29289321881345
vertex 87.1401455894765 10.3910481135233 8.13397459621556
vertex 87.1401455894765 10.5981548947098 8.29289321881345
endloop
endfacet
facet normal 0.0 -0.258819045102519 -0.965925826289069
outer loop
vertex 87.1401455894765 10.1498671586258 9.96592582628907
vertex 85.1401455894765 9.89104811352327 10.0
vertex 85.1401455894765 10.1498671586258 9.96592582628907
endloop
endfacet
facet normal 0.0 -3.65355505721523e-16 -1.0
outer loop
vertex 85.1401455894765 9.89104811352327 10.0
vertex 87.1401455894765 10.1498671586258 9.96592582628907
vertex 87.1401455894765 9.89104811352327 10.0
endloop
endfacet
facet normal 0.0 -0.866025403784439 0.499999999999999
outer loop
vertex 87.1401455894765 20.2570735173077 8.5
vertex 85.1401455894765 20.0981548947098 8.29289321881345
vertex 87.1401455894765 20.0981548947098 8.29289321881345
endloop
endfacet
facet normal 0.0 -0.707106781186549 0.707106781186546
outer loop
vertex 85.1401455894765 20.0981548947098 8.29289321881345
vertex 87.1401455894765 20.2570735173077 8.5
vertex 85.1401455894765 20.2570735173077 8.5
endloop
endfacet
facet normal 0.0 0.258819045102519 0.965925826289069
outer loop
vertex 87.1401455894765 9.63222906842075 8.03407417371093
vertex 85.1401455894765 9.89104811352327 8.0
vertex 85.1401455894765 9.63222906842075 8.03407417371093
endloop
endfacet
facet normal 0.0 3.65355505721523e-16 1.0
outer loop
vertex 85.1401455894765 9.89104811352327 8.0
vertex 87.1401455894765 9.63222906842075 8.03407417371093
vertex 87.1401455894765 9.89104811352327 8.0
endloop
endfacet
facet normal 0.0 -0.965925826289068 -0.258819045102521
outer loop
vertex 87.1401455894765 20.3569739398123 9.25881904510252
vertex 85.1401455894765 20.3910481135233 9.0
vertex 87.1401455894765 20.3910481135233 9.0
endloop
endfacet
facet normal 0.0 -1.0 0.0
outer loop
vertex 85.1401455894765 20.3910481135233 9.0
vertex 87.1401455894765 20.3569739398123 9.25881904510252
vertex 85.1401455894765 20.3569739398123 9.25881904510252
endloop
endfacet
facet normal 0.0 -0.707106781186548 -0.707106781186547
outer loop
vertex 87.1401455894765 20.0981548947098 9.70710678118654
vertex 85.1401455894765 19.8910481135233 9.86602540378444
vertex 85.1401455894765 20.0981548947098 9.70710678118654
endloop
endfacet
facet normal 0.0 -0.499999999999998 -0.86602540378444
outer loop
vertex 85.1401455894765 19.8910481135233 9.86602540378444
vertex 87.1401455894765 20.0981548947098 9.70710678118654
vertex 87.1401455894765 19.8910481135233 9.86602540378444
endloop
endfacet
facet normal 0.0 0.707106781186548 -0.707106781186548
outer loop
vertex 85.1401455894765 9.18394133233672 9.70710678118654
vertex 87.1401455894765 9.02502270973883 9.5
vertex 85.1401455894765 9.02502270973883 9.5
endloop
endfacet
facet normal 0.0 0.866025403784439 -0.499999999999999
outer loop
vertex 87.1401455894765 9.02502270973883 9.5
vertex 85.1401455894765 9.18394133233672 9.70710678118654
vertex 87.1401455894765 9.18394133233672 9.70710678118654
endloop
endfacet
facet normal 0.0 -0.866025403784439 -0.499999999999999
outer loop
vertex 87.1401455894765 20.2570735173077 9.5
vertex 85.1401455894765 20.3569739398123 9.25881904510252
vertex 87.1401455894765 20.3569739398123 9.25881904510252
endloop
endfacet
facet normal 0.0 -0.965925826289068 -0.258819045102521
outer loop
vertex 85.1401455894765 20.3569739398123 9.25881904510252
vertex 87.1401455894765 20.2570735173077 9.5
vertex 85.1401455894765 20.2570735173077 9.5
endloop
endfacet
facet normal 0.0 0.707106781186547 0.707106781186548
outer loop
vertex 87.1401455894765 18.6839413323367 8.29289321881345
vertex 85.1401455894765 18.8910481135233 8.13397459621556
vertex 85.1401455894765 18.6839413323367 8.29289321881345
endloop
endfacet
facet normal 0.0 0.499999999999998 0.86602540378444
outer loop
vertex 85.1401455894765 18.8910481135233 8.13397459621556
vertex 87.1401455894765 18.6839413323367 8.29289321881345
vertex 87.1401455894765 18.8910481135233 8.13397459621556
endloop
endfacet
facet normal 0.0 -0.499999999999998 -0.86602540378444
outer loop
vertex 87.1401455894765 19.8910481135233 9.86602540378444
vertex 85.1401455894765 19.6498671586258 9.96592582628907
vertex 85.1401455894765 19.8910481135233 9.86602540378444
endloop
endfacet
facet normal 0.0 -0.258819045102519 -0.965925826289069
outer loop
vertex 85.1401455894765 19.6498671586258 9.96592582628907
vertex 87.1401455894765 19.8910481135233 9.86602540378444
vertex 87.1401455894765 19.6498671586258 9.96592582628907
endloop
endfacet
facet normal 0.0 0.965925826289068 0.258819045102521
outer loop
vertex 85.1401455894765 18.4251222872342 8.74118095489747
vertex 87.1401455894765 18.5250227097388 8.5
vertex 85.1401455894765 18.5250227097388 8.5
endloop
endfacet
facet normal 0.0 0.866025403784439 0.499999999999999
outer loop
vertex 87.1401455894765 18.5250227097388 8.5
vertex 85.1401455894765 18.4251222872342 8.74118095489747
vertex 87.1401455894765 18.4251222872342 8.74118095489747
endloop
endfacet
facet normal 0.0 0.707106781186548 0.707106781186548
outer loop
vertex 87.1401455894765 9.18394133233672 8.29289321881345
vertex 85.1401455894765 9.39104811352327 8.13397459621556
vertex 85.1401455894765 9.18394133233672 8.29289321881345
endloop
endfacet
facet normal 0.0 0.499999999999999 0.866025403784439
outer loop
vertex 85.1401455894765 9.39104811352327 8.13397459621556
vertex 87.1401455894765 9.18394133233672 8.29289321881345
vertex 87.1401455894765 9.39104811352327 8.13397459621556
endloop
endfacet
facet normal 0.0 0.965925826289068 0.258819045102521
outer loop
vertex 85.1401455894765 8.9251222872342 8.74118095489748
vertex 87.1401455894765 9.02502270973883 8.5
vertex 85.1401455894765 9.02502270973883 8.5
endloop
endfacet
facet normal 0.0 0.866025403784438 0.500000000000001
outer loop
vertex 87.1401455894765 9.02502270973883 8.5
vertex 85.1401455894765 8.9251222872342 8.74118095489748
vertex 87.1401455894765 8.9251222872342 8.74118095489748
endloop
endfacet
facet normal 0.0 0.258819045102521 -0.965925826289068
outer loop
vertex 87.1401455894765 9.63222906842075 9.96592582628907
vertex 85.1401455894765 9.39104811352327 9.86602540378444
vertex 85.1401455894765 9.63222906842075 9.96592582628907
endloop
endfacet
facet normal 0.0 0.500000000000001 -0.866025403784438
outer loop
vertex 85.1401455894765 9.39104811352327 9.86602540378444
vertex 87.1401455894765 9.63222906842075 9.96592582628907
vertex 87.1401455894765 9.39104811352327 9.86602540378444
endloop
endfacet
facet normal 0.0 -0.866025403784438 -0.500000000000001
outer loop
vertex 87.1401455894765 10.7570735173077 9.5
vertex 85.1401455894765 10.8569739398123 9.25881904510252
vertex 87.1401455894765 10.8569739398123 9.25881904510252
endloop
endfacet
facet normal 0.0 -0.965925826289068 -0.258819045102521
outer loop
vertex 85.1401455894765 10.8569739398123 9.25881904510252
vertex 87.1401455894765 10.7570735173077 9.5
vertex 85.1401455894765 10.7570735173077 9.5
endloop
endfacet
facet normal 0.0 -7.03977681756105e-16 -1.0
outer loop
vertex 87.1401455894765 19.3910481135233 10.0
vertex 85.1401455894765 19.1322290684207 9.96592582628907
vertex 85.1401455894765 19.3910481135233 10.0
endloop
endfacet
facet normal 0.0 0.258819045102521 -0.965925826289068
outer loop
vertex 85.1401455894765 19.1322290684207 9.96592582628907
vertex 87.1401455894765 19.3910481135233 10.0
vertex 87.1401455894765 19.1322290684207 9.96592582628907
endloop
endfacet
facet normal 0.0 -0.707106781186548 -0.707106781186548
outer loop
vertex 87.1401455894765 10.5981548947098 9.70710678118655
vertex 85.1401455894765 10.3910481135233 9.86602540378444
vertex 85.1401455894765 10.5981548947098 9.70710678118655
endloop
endfacet
facet normal 0.0 -0.499999999999999 -0.866025403784439
outer loop
vertex 85.1401455894765 10.3910481135233 9.86602540378444
vertex 87.1401455894765 10.5981548947098 9.70710678118655
vertex 87.1401455894765 10.3910481135233 9.86602540378444
endloop
endfacet
facet normal 0.669133907537323 0.743141853069677 0.0
outer loop
vertex 86.8360233825219 1.97320228231514 11.2
vertex 88.1464233825219 0.793302282315142 -3.0
vertex 86.8360233825219 1.97320228231514 -3.0
endloop
endfacet
facet normal 0.669133907537323 0.743141853069677 0.0
outer loop
vertex 88.1464233825219 0.793302282315142 -3.0
vertex 86.8360233825219 1.97320228231514 11.2
vertex 88.1464233825219 0.793302282315142 11.2
endloop
endfacet
facet normal 0.0 -1.0 3.65355505721523e-16
outer loop
vertex 87.1401455894765 10.8910481135233 9.0
vertex 85.1401455894765 10.8569739398123 8.74118095489748
vertex 87.1401455894765 10.8569739398123 8.74118095489748
endloop
endfacet
facet normal 0.0 -0.965925826289068 0.258819045102522
outer loop
vertex 85.1401455894765 10.8569739398123 8.74118095489748
vertex 87.1401455894765 10.8910481135233 9.0
vertex 85.1401455894765 10.8910481135233 9.0
endloop
endfacet
facet normal 0.0 0.258819045102522 0.965925826289068
outer loop
vertex 87.1401455894765 19.1322290684207 8.03407417371093
vertex 85.1401455894765 19.3910481135233 8.0
vertex 85.1401455894765 19.1322290684207 8.03407417371093
endloop
endfacet
facet normal 0.0 0.0 1.0
outer loop
vertex 85.1401455894765 19.3910481135233 8.0
vertex 87.1401455894765 19.1322290684207 8.03407417371093
vertex 87.1401455894765 19.3910481135233 8.0
endloop
endfacet
facet normal 0.0 0.258819045102521 -0.965925826289068
outer loop
vertex 87.1401455894765 19.1322290684207 9.96592582628907
vertex 85.1401455894765 18.8910481135233 9.86602540378444
vertex 85.1401455894765 19.1322290684207 9.96592582628907
endloop
endfacet
facet normal 0.0 0.500000000000001 -0.866025403784438
outer loop
vertex 85.1401455894765 18.8910481135233 9.86602540378444
vertex 87.1401455894765 19.1322290684207 9.96592582628907
vertex 87.1401455894765 18.8910481135233 9.86602540378444
endloop
endfacet
facet normal 0.0 0.866025403784439 0.499999999999999
outer loop
vertex 85.1401455894765 18.5250227097388 8.5
vertex 87.1401455894765 18.6839413323367 8.29289321881345
vertex 85.1401455894765 18.6839413323367 8.29289321881345
endloop
endfacet
facet normal 0.0 0.707106781186547 0.707106781186548
outer loop
vertex 87.1401455894765 18.6839413323367 8.29289321881345
vertex 85.1401455894765 18.5250227097388 8.5
vertex 87.1401455894765 18.5250227097388 8.5
endloop
endfacet
facet normal 0.0 0.866025403784438 0.500000000000001
outer loop
vertex 85.1401455894765 9.02502270973883 8.5
vertex 87.1401455894765 9.18394133233672 8.29289321881345
vertex 85.1401455894765 9.18394133233672 8.29289321881345
endloop
endfacet
facet normal 0.0 0.707106781186548 0.707106781186548
outer loop
vertex 87.1401455894765 9.18394133233672 8.29289321881345
vertex 85.1401455894765 9.02502270973883 8.5
vertex 87.1401455894765 9.02502270973883 8.5
endloop
endfacet
facet normal 0.0 -0.499999999999999 0.866025403784439
outer loop
vertex 87.1401455894765 19.8910481135233 8.13397459621556
vertex 85.1401455894765 20.0981548947098 8.29289321881345
vertex 85.1401455894765 19.8910481135233 8.13397459621556
endloop
endfacet
facet normal 0.0 -0.707106781186549 0.707106781186546
outer loop
vertex 85.1401455894765 20.0981548947098 8.29289321881345
vertex 87.1401455894765 19.8910481135233 8.13397459621556
vertex 87.1401455894765 20.0981548947098 8.29289321881345
endloop
endfacet
facet normal 1.0 -0.0 -0.0
outer loop
vertex 87.1401455894765 24.6410481135233 -3.0
vertex 87.1401455894765 14.6410481135233 11.2
vertex 87.1401455894765 14.6410481135233 -3.0
endloop
endfacet
facet normal 1.0 -0.0 -0.0
outer loop
vertex 87.1401455894765 14.6410481135233 11.2
vertex 87.1401455894765 24.6410481135233 -3.0
vertex 87.1401455894765 18.5250227097388 8.5
endloop
endfacet
facet normal 1.0 -0.0 -0.0
outer loop
vertex 87.1401455894765 14.6410481135233 11.2
vertex 87.1401455894765 18.5250227097388 8.5
vertex 87.1401455894765 18.4251222872342 8.74118095489747
endloop
endfacet
facet normal 1.0 -0.0 -0.0
outer loop
vertex 87.1401455894765 14.6410481135233 11.2
vertex 87.1401455894765 18.4251222872342 8.74118095489747
vertex 87.1401455894765 18.3910481135233 9.0
endloop
endfacet
facet normal 1.0 -0.0 -0.0
outer loop
vertex 87.1401455894765 18.5250227097388 8.5
vertex 87.1401455894765 24.6410481135233 -3.0
vertex 87.1401455894765 18.6839413323367 8.29289321881345
endloop
endfacet
facet normal 1.0 -0.0 -0.0
outer loop
vertex 87.1401455894765 18.6839413323367 8.29289321881345
vertex 87.1401455894765 24.6410481135233 -3.0
vertex 87.1401455894765 18.8910481135233 8.13397459621556
endloop
endfacet
facet normal 1.0 -0.0 -0.0
outer loop
vertex 87.1401455894765 18.8910481135233 8.13397459621556
vertex 87.1401455894765 24.6410481135233 -3.0
vertex 87.1401455894765 19.1322290684207 8.03407417371093
endloop
endfacet
facet normal 1.0 -0.0 -0.0
outer loop
vertex 87.1401455894765 19.1322290684207 8.03407417371093
vertex 87.1401455894765 24.6410481135233 -3.0
vertex 87.1401455894765 19.3910481135233 8.0
endloop
endfacet
facet normal 1.0 -0.0 -0.0
outer loop
vertex 87.1401455894765 19.3910481135233 8.0
vertex 87.1401455894765 24.6410481135233 -3.0
vertex 87.1401455894765 19.6498671586258 8.03407417371093
endloop
endfacet
facet normal 1.0 -0.0 -0.0
outer loop
vertex 87.1401455894765 19.6498671586258 8.03407417371093
vertex 87.1401455894765 24.6410481135233 -3.0
vertex 87.1401455894765 19.8910481135233 8.13397459621556
endloop
endfacet
facet normal 1.0 -0.0 -0.0
outer loop
vertex 87.1401455894765 19.8910481135233 8.13397459621556
vertex 87.1401455894765 24.6410481135233 -3.0
vertex 87.1401455894765 20.0981548947098 8.29289321881345
endloop
endfacet
facet normal 1.0 -0.0 -0.0
outer loop
vertex 87.1401455894765 20.0981548947098 8.29289321881345
vertex 87.1401455894765 24.6410481135233 -3.0
vertex 87.1401455894765 20.2570735173077 8.5
endloop
endfacet
facet normal 1.0 -0.0 -0.0
outer loop
vertex 87.1401455894765 20.2570735173077 8.5
vertex 87.1401455894765 24.6410481135233 -3.0
vertex 87.1401455894765 20.3569739398123 8.74118095489747
endloop
endfacet
facet normal 1.0 -0.0 -0.0
outer loop
vertex 87.1401455894765 20.3569739398123 8.74118095489747
vertex 87.1401455894765 24.6410481135233 -3.0
vertex 87.1401455894765 20.3910481135233 9.0
endloop
endfacet
facet normal 1.0 -0.0 -0.0
outer loop
vertex 87.1401455894765 14.6410481135233 11.2
vertex 87.1401455894765 19.1322290684207 9.96592582628907
vertex 87.1401455894765 24.6410481135233 11.2
endloop
endfacet
facet normal 1.0 -0.0 -0.0
outer loop
vertex 87.1401455894765 19.1322290684207 9.96592582628907
vertex 87.1401455894765 14.6410481135233 11.2
vertex 87.1401455894765 18.8910481135233 9.86602540378444
endloop
endfacet
facet normal 1.0 -0.0 -0.0
outer loop
vertex 87.1401455894765 18.8910481135233 9.86602540378444
vertex 87.1401455894765 14.6410481135233 11.2
vertex 87.1401455894765 18.6839413323367 9.70710678118654
endloop
endfacet
facet normal 1.0 -0.0 -0.0
outer loop
vertex 87.1401455894765 18.6839413323367 9.70710678118654
vertex 87.1401455894765 14.6410481135233 11.2
vertex 87.1401455894765 18.5250227097388 9.5
endloop
endfacet
facet normal 1.0 -0.0 -0.0
outer loop
vertex 87.1401455894765 18.5250227097388 9.5
vertex 87.1401455894765 14.6410481135233 11.2
vertex 87.1401455894765 18.4251222872342 9.25881904510252
endloop
endfacet
facet normal 1.0 -0.0 -0.0
outer loop
vertex 87.1401455894765 18.4251222872342 9.25881904510252
vertex 87.1401455894765 14.6410481135233 11.2
vertex 87.1401455894765 18.3910481135233 9.0
endloop
endfacet
facet normal 1.0 -0.0 -0.0
outer loop
vertex 87.1401455894765 24.6410481135233 11.2
vertex 87.1401455894765 19.1322290684207 9.96592582628907
vertex 87.1401455894765 19.3910481135233 10.0
endloop
endfacet
facet normal 1.0 -0.0 -0.0
outer loop
vertex 87.1401455894765 24.6410481135233 11.2
vertex 87.1401455894765 19.3910481135233 10.0
vertex 87.1401455894765 19.6498671586258 9.96592582628907
endloop
endfacet
facet normal 1.0 -0.0 -0.0
outer loop
vertex 87.1401455894765 24.6410481135233 11.2
vertex 87.1401455894765 19.6498671586258 9.96592582628907
vertex 87.1401455894765 19.8910481135233 9.86602540378444
endloop
endfacet
facet normal 1.0 -0.0 -0.0
outer loop
vertex 87.1401455894765 24.6410481135233 11.2
vertex 87.1401455894765 19.8910481135233 9.86602540378444
vertex 87.1401455894765 20.0981548947098 9.70710678118654
endloop
endfacet
facet normal 1.0 -0.0 -0.0
outer loop
vertex 87.1401455894765 24.6410481135233 11.2
vertex 87.1401455894765 20.0981548947098 9.70710678118654
vertex 87.1401455894765 20.2570735173077 9.5
endloop
endfacet
facet normal 1.0 -0.0 -0.0
outer loop
vertex 87.1401455894765 24.6410481135233 11.2
vertex 87.1401455894765 20.2570735173077 9.5
vertex 87.1401455894765 20.3569739398123 9.25881904510252
endloop
endfacet
facet normal 1.0 -0.0 -0.0
outer loop
vertex 87.1401455894765 24.6410481135233 11.2
vertex 87.1401455894765 20.3569739398123 9.25881904510252
vertex 87.1401455894765 20.3910481135233 9.0
endloop
endfacet
facet normal 1.0 -0.0 -0.0
outer loop
vertex 87.1401455894765 24.6410481135233 11.2
vertex 87.1401455894765 20.3910481135233 9.0
vertex 87.1401455894765 24.6410481135233 -3.0
endloop
endfacet
facet normal 0.0 0.500000000000001 -0.866025403784438
outer loop
vertex 87.1401455894765 18.8910481135233 9.86602540378444
vertex 85.1401455894765 18.6839413323367 9.70710678118654
vertex 85.1401455894765 18.8910481135233 9.86602540378444
endloop
endfacet
facet normal 0.0 0.707106781186549 -0.707106781186546
outer loop
vertex 85.1401455894765 18.6839413323367 9.70710678118654
vertex 87.1401455894765 18.8910481135233 9.86602540378444
vertex 87.1401455894765 18.6839413323367 9.70710678118654
endloop
endfacet
facet normal 0.0 -0.866025403784439 0.499999999999999
outer loop
vertex 87.1401455894765 10.7570735173077 8.5
vertex 85.1401455894765 10.5981548947098 8.29289321881345
vertex 87.1401455894765 10.5981548947098 8.29289321881345
endloop
endfacet
facet normal 0.0 -0.707106781186549 0.707106781186546
outer loop
vertex 85.1401455894765 10.5981548947098 8.29289321881345
vertex 87.1401455894765 10.7570735173077 8.5
vertex 85.1401455894765 10.7570735173077 8.5
endloop
endfacet
facet normal 0.0 -0.25881904510252 0.965925826289069
outer loop
vertex 87.1401455894765 19.6498671586258 8.03407417371093
vertex 85.1401455894765 19.8910481135233 8.13397459621556
vertex 85.1401455894765 19.6498671586258 8.03407417371093
endloop
endfacet
facet normal 0.0 -0.499999999999999 0.866025403784439
outer loop
vertex 85.1401455894765 19.8910481135233 8.13397459621556
vertex 87.1401455894765 19.6498671586258 8.03407417371093
vertex 87.1401455894765 19.8910481135233 8.13397459621556
endloop
endfacet
facet normal 0.0 -0.499999999999999 -0.866025403784439
outer loop
vertex 87.1401455894765 10.3910481135233 9.86602540378444
vertex 85.1401455894765 10.1498671586258 9.96592582628907
vertex 85.1401455894765 10.3910481135233 9.86602540378444
endloop
endfacet
facet normal 0.0 -0.258819045102519 -0.965925826289069
outer loop
vertex 85.1401455894765 10.1498671586258 9.96592582628907
vertex 87.1401455894765 10.3910481135233 9.86602540378444
vertex 87.1401455894765 10.1498671586258 9.96592582628907
endloop
endfacet
facet normal 0.0 -0.965925826289068 -0.258819045102521
outer loop
vertex 87.1401455894765 10.8569739398123 9.25881904510252
vertex 85.1401455894765 10.8910481135233 9.0
vertex 87.1401455894765 10.8910481135233 9.0
endloop
endfacet
facet normal 0.0 -1.0 3.65355505721523e-16
outer loop
vertex 85.1401455894765 10.8910481135233 9.0
vertex 87.1401455894765 10.8569739398123 9.25881904510252
vertex 85.1401455894765 10.8569739398123 9.25881904510252
endloop
endfacet
facet normal 0.0 0.500000000000001 -0.866025403784438
outer loop
vertex 87.1401455894765 9.39104811352327 9.86602540378444
vertex 85.1401455894765 9.18394133233672 9.70710678118654
vertex 85.1401455894765 9.39104811352327 9.86602540378444
endloop
endfacet
facet normal 0.0 0.707106781186548 -0.707106781186548
outer loop
vertex 85.1401455894765 9.18394133233672 9.70710678118654
vertex 87.1401455894765 9.39104811352327 9.86602540378444
vertex 87.1401455894765 9.18394133233672 9.70710678118654
endloop
endfacet
facet normal 0.0 -0.258819045102519 -0.965925826289069
outer loop
vertex 87.1401455894765 19.6498671586258 9.96592582628907
vertex 85.1401455894765 19.3910481135233 10.0
vertex 85.1401455894765 19.6498671586258 9.96592582628907
endloop
endfacet
facet normal 0.0 -7.03977681756105e-16 -1.0
outer loop
vertex 85.1401455894765 19.3910481135233 10.0
vertex 87.1401455894765 19.6498671586258 9.96592582628907
vertex 87.1401455894765 19.3910481135233 10.0
endloop
endfacet
facet normal 0.0 0.965925826289069 -0.258819045102519
outer loop
vertex 85.1401455894765 8.9251222872342 9.25881904510252
vertex 87.1401455894765 8.89104811352327 9.0
vertex 85.1401455894765 8.89104811352327 9.0
endloop
endfacet
facet normal 0.0 1.0 -3.65355505721523e-16
outer loop
vertex 87.1401455894765 8.89104811352327 9.0
vertex 85.1401455894765 8.9251222872342 9.25881904510252
vertex 87.1401455894765 8.9251222872342 9.25881904510252
endloop
endfacet
facet normal 0.0 -0.965925826289068 0.258819045102522
outer loop
vertex 87.1401455894765 10.8569739398123 8.74118095489748
vertex 85.1401455894765 10.7570735173077 8.5
vertex 87.1401455894765 10.7570735173077 8.5
endloop
endfacet
facet normal 0.0 -0.866025403784439 0.499999999999999
outer loop
vertex 85.1401455894765 10.7570735173077 8.5
vertex 87.1401455894765 10.8569739398123 8.74118095489748
vertex 85.1401455894765 10.8569739398123 8.74118095489748
endloop
endfacet
facet normal 0.0 -3.65355505721523e-16 -1.0
outer loop
vertex 87.1401455894765 9.89104811352327 10.0
vertex 85.1401455894765 9.63222906842075 9.96592582628907
vertex 85.1401455894765 9.89104811352327 10.0
endloop
endfacet
facet normal 0.0 0.258819045102521 -0.965925826289068
outer loop
vertex 85.1401455894765 9.63222906842075 9.96592582628907
vertex 87.1401455894765 9.89104811352327 10.0
vertex 87.1401455894765 9.63222906842075 9.96592582628907
endloop
endfacet
facet normal 0.0 -0.965925826289068 0.258819045102521
outer loop
vertex 87.1401455894765 20.3569739398123 8.74118095489747
vertex 85.1401455894765 20.2570735173077 8.5
vertex 87.1401455894765 20.2570735173077 8.5
endloop
endfacet
facet normal 0.0 -0.866025403784439 0.499999999999999
outer loop
vertex 85.1401455894765 20.2570735173077 8.5
vertex 87.1401455894765 20.3569739398123 8.74118095489747
vertex 85.1401455894765 20.3569739398123 8.74118095489747
endloop
endfacet
facet normal 0.0 0.499999999999998 0.86602540378444
outer loop
vertex 87.1401455894765 18.8910481135233 8.13397459621556
vertex 85.1401455894765 19.1322290684207 8.03407417371093
vertex 85.1401455894765 18.8910481135233 8.13397459621556
endloop
endfacet
facet normal 0.0 0.258819045102522 0.965925826289068
outer loop
vertex 85.1401455894765 19.1322290684207 8.03407417371093
vertex 87.1401455894765 18.8910481135233 8.13397459621556
vertex 87.1401455894765 19.1322290684207 8.03407417371093
endloop
endfacet
facet normal 0.0 -1.0 0.0
outer loop
vertex 87.1401455894765 20.3910481135233 9.0
vertex 85.1401455894765 20.3569739398123 8.74118095489747
vertex 87.1401455894765 20.3569739398123 8.74118095489747
endloop
endfacet
facet normal 0.0 -0.965925826289068 0.258819045102521
outer loop
vertex 85.1401455894765 20.3569739398123 8.74118095489747
vertex 87.1401455894765 20.3910481135233 9.0
vertex 85.1401455894765 20.3910481135233 9.0
endloop
endfacet
facet normal -0.10451651747815 -0.994523150848807 -0.0
outer loop
vertex 89.2864483711788 28.2395130106771 11.2
vertex 87.5327483711788 28.4238130106771 -3.0
vertex 89.2864483711788 28.2395130106771 -3.0
endloop
endfacet
facet normal -0.10451651747815 -0.994523150848807 -0.0
outer loop
vertex 87.5327483711788 28.4238130106771 -3.0
vertex 89.2864483711788 28.2395130106771 11.2
vertex 87.5327483711788 28.4238130106771 11.2
endloop
endfacet
facet normal -0.499987525307684 0.866032605931612 0.0
outer loop
vertex 88.1259483711788 25.6330130106771 11.2
vertex 89.6531483711788 26.5147130106771 -3.0
vertex 88.1259483711788 25.6330130106771 -3.0
endloop
endfacet
facet normal -0.499987525307684 0.866032605931612 0.0
outer loop
vertex 89.6531483711788 26.5147130106771 -3.0
vertex 88.1259483711788 25.6330130106771 11.2
vertex 89.6531483711788 26.5147130106771 11.2
endloop
endfacet
facet normal 0.0 0.707106781186549 -0.707106781186546
outer loop
vertex 85.1401455894765 18.6839413323367 9.70710678118654
vertex 87.1401455894765 18.5250227097388 9.5
vertex 85.1401455894765 18.5250227097388 9.5
endloop
endfacet
facet normal 0.0 0.86602540378444 -0.499999999999998
outer loop
vertex 87.1401455894765 18.5250227097388 9.5
vertex 85.1401455894765 18.6839413323367 9.70710678118654
vertex 87.1401455894765 18.6839413323367 9.70710678118654
endloop
endfacet
facet normal 0.913549437934192 -0.406727703076792 0.0
outer loop
vertex 87.5327483711788 28.4238130106771 -3.0
vertex 86.8155483711788 26.8129130106771 11.2
vertex 86.8155483711788 26.8129130106771 -3.0
endloop
endfacet
facet normal 0.913549437934192 -0.406727703076792 0.0
outer loop
vertex 86.8155483711788 26.8129130106771 11.2
vertex 87.5327483711788 28.4238130106771 -3.0
vertex 87.5327483711788 28.4238130106771 11.2
endloop
endfacet
facet normal 1.0 0.0 0.0
outer loop
vertex 91.5401455894766 30.1410481135233 -3.0
vertex 91.5401455894766 24.6410481135233 11.2
vertex 91.5401455894766 24.6410481135233 -3.0
endloop
endfacet
facet normal 1.0 0.0 0.0
outer loop
vertex 91.5401455894766 24.6410481135233 11.2
vertex 91.5401455894766 30.1410481135233 -3.0
vertex 91.5401455894766 30.1410481135233 11.2
endloop
endfacet
facet normal -2.84893874093019e-17 -1.03599062547682e-17 -1.0
outer loop
vertex 85.1401455894765 30.1410481135233 -3.0
vertex 86.8155483711788 26.8129130106771 -3.0
vertex 85.1401455894765 -0.85895188647673 -3.0
endloop
endfacet
facet normal -2.84893874093019e-17 -1.03599062547682e-17 -1.0
outer loop
vertex 86.8155483711788 26.8129130106771 -3.0
vertex 85.1401455894765 30.1410481135233 -3.0
vertex 87.5327483711788 28.4238130106771 -3.0
endloop
endfacet
facet normal -2.84893874093019e-17 -1.03599062547682e-17 -1.0
outer loop
vertex 87.5327483711788 28.4238130106771 -3.0
vertex 85.1401455894765 30.1410481135233 -3.0
vertex 91.5401455894766 30.1410481135233 -3.0
endloop
endfacet
facet normal -2.84893874093019e-17 -1.03599062547682e-17 -1.0
outer loop
vertex 87.5327483711788 28.4238130106771 -3.0
vertex 91.5401455894766 30.1410481135233 -3.0
vertex 89.2864483711788 28.2395130106771 -3.0
endloop
endfacet
facet normal -2.84893874093019e-17 -1.03599062547682e-17 -1.0
outer loop
vertex 89.2864483711788 28.2395130106771 -3.0
vertex 91.5401455894766 30.1410481135233 -3.0
vertex 89.6531483711788 26.5147130106771 -3.0
endloop
endfacet
facet normal -2.84893874093019e-17 -1.03599062547682e-17 -1.0
outer loop
vertex 86.8155483711788 26.8129130106771 -3.0
vertex 87.1401455894765 24.6410481135233 -3.0
vertex 86.8360233825219 1.97320228231514 -3.0
endloop
endfacet
facet normal -2.84893874093019e-17 -1.03599062547682e-17 -1.0
outer loop
vertex 87.1401455894765 24.6410481135233 -3.0
vertex 86.8155483711788 26.8129130106771 -3.0
vertex 88.1259483711788 25.6330130106771 -3.0
endloop
endfacet
facet normal -2.84893874093019e-17 -1.03599062547682e-17 -1.0
outer loop
vertex 87.1401455894765 24.6410481135233 -3.0
vertex 88.1259483711788 25.6330130106771 -3.0
vertex 91.5401455894766 24.6410481135233 -3.0
endloop
endfacet
facet normal -2.84893874093019e-17 -1.03599062547682e-17 -1.0
outer loop
vertex 91.5401455894766 24.6410481135233 -3.0
vertex 88.1259483711788 25.6330130106771 -3.0
vertex 89.6531483711788 26.5147130106771 -3.0
endloop
endfacet
facet normal -2.84893874093019e-17 -1.03599062547682e-17 -1.0
outer loop
vertex 91.5401455894766 24.6410481135233 -3.0
vertex 89.6531483711788 26.5147130106771 -3.0
vertex 91.5401455894766 30.1410481135233 -3.0
endloop
endfacet
facet normal -2.84893874093019e-17 -1.03599062547682e-17 -1.0
outer loop
vertex 86.8360233825219 1.97320228231514 -3.0
vertex 87.1401455894765 4.64104811352328 -3.0
vertex 87.5532233825219 3.58410228231514 -3.0
endloop
endfacet
facet normal -2.84893874093019e-17 -1.03599062547682e-17 -1.0
outer loop
vertex 87.1401455894765 4.64104811352328 -3.0
vertex 86.8360233825219 1.97320228231514 -3.0
vertex 87.1401455894765 24.6410481135233 -3.0
endloop
endfacet
facet normal -2.84893874093019e-17 -1.03599062547682e-17 -1.0
outer loop
vertex 87.1401455894765 4.64104811352328 -3.0
vertex 87.1401455894765 24.6410481135233 -3.0
vertex 87.1401455894765 14.6410481135233 -3.0
endloop
endfacet
facet normal -2.84893874093019e-17 -1.03599062547682e-17 -1.0
outer loop
vertex 87.5532233825219 3.58410228231514 -3.0
vertex 87.1401455894765 4.64104811352328 -3.0
vertex 91.5401455894766 4.64104811352328 -3.0
endloop
endfacet
facet normal -2.84893874093019e-17 -1.03599062547682e-17 -1.0
outer loop
vertex 87.5532233825219 3.58410228231514 -3.0
vertex 91.5401455894766 4.64104811352328 -3.0
vertex 89.3069233825219 3.39980228231514 -3.0
endloop
endfacet
facet normal -2.84893874093019e-17 -1.03599062547682e-17 -1.0
outer loop
vertex 89.3069233825219 3.39980228231514 -3.0
vertex 91.5401455894766 4.64104811352328 -3.0
vertex 89.6736233825219 1.67500228231514 -3.0
endloop
endfacet
facet normal -2.84893874093019e-17 -1.03599062547682e-17 -1.0
outer loop
vertex 85.1401455894765 -0.85895188647673 -3.0
vertex 88.1464233825219 0.793302282315142 -3.0
vertex 91.5401455894766 -0.85895188647673 -3.0
endloop
endfacet
facet normal -2.84893874093019e-17 -1.03599062547682e-17 -1.0
outer loop
vertex 88.1464233825219 0.793302282315142 -3.0
vertex 85.1401455894765 -0.85895188647673 -3.0
vertex 86.8360233825219 1.97320228231514 -3.0
endloop
endfacet
facet normal -2.84893874093019e-17 -1.03599062547682e-17 -1.0
outer loop
vertex 86.8360233825219 1.97320228231514 -3.0
vertex 85.1401455894765 -0.85895188647673 -3.0
vertex 86.8155483711788 26.8129130106771 -3.0
endloop
endfacet
facet normal -2.84893874093019e-17 -1.03599062547682e-17 -1.0
outer loop
vertex 91.5401455894766 -0.85895188647673 -3.0
vertex 88.1464233825219 0.793302282315142 -3.0
vertex 89.6736233825219 1.67500228231514 -3.0
endloop
endfacet
facet normal -2.84893874093019e-17 -1.03599062547682e-17 -1.0
outer loop
vertex 91.5401455894766 -0.85895188647673 -3.0
vertex 89.6736233825219 1.67500228231514 -3.0
vertex 91.5401455894766 4.64104811352328 -3.0
endloop
endfacet
facet normal 0.669133907537327 0.743141853069673 0.0
outer loop
vertex 86.8155483711788 26.8129130106771 11.2
vertex 88.1259483711788 25.6330130106771 -3.0
vertex 86.8155483711788 26.8129130106771 -3.0
endloop
endfacet
facet normal 0.669133907537327 0.743141853069673 0.0
outer loop
vertex 88.1259483711788 25.6330130106771 -3.0
vertex 86.8155483711788 26.8129130106771 11.2
vertex 88.1259483711788 25.6330130106771 11.2
endloop
endfacet
facet normal 0.913549437934192 -0.40672770307679 0.0
outer loop
vertex 87.5532233825219 3.58410228231514 -3.0
vertex 86.8360233825219 1.97320228231514 11.2
vertex 86.8360233825219 1.97320228231514 -3.0
endloop
endfacet
facet normal 0.913549437934192 -0.40672770307679 0.0
outer loop
vertex 86.8360233825219 1.97320228231514 11.2
vertex 87.5532233825219 3.58410228231514 -3.0
vertex 87.5532233825219 3.58410228231514 11.2
endloop
endfacet
facet normal -0.49998752530769 0.866032605931608 0.0
outer loop
vertex 88.1464233825219 0.793302282315142 11.2
vertex 89.6736233825219 1.67500228231514 -3.0
vertex 88.1464233825219 0.793302282315142 -3.0
endloop
endfacet
facet normal -0.49998752530769 0.866032605931608 0.0
outer loop
vertex 89.6736233825219 1.67500228231514 -3.0
vertex 88.1464233825219 0.793302282315142 11.2
vertex 89.6736233825219 1.67500228231514 11.2
endloop
endfacet
facet normal -0.0 -0.0 1.0
outer loop
vertex 85.1401455894765 -0.85895188647673 11.2
vertex 86.8360233825219 1.97320228231514 11.2
vertex 85.1401455894765 30.1410481135233 11.2
endloop
endfacet
facet normal -0.0 -0.0 1.0
outer loop
vertex 86.8360233825219 1.97320228231514 11.2
vertex 85.1401455894765 -0.85895188647673 11.2
vertex 88.1464233825219 0.793302282315142 11.2
endloop
endfacet
facet normal -0.0 -0.0 1.0
outer loop
vertex 88.1464233825219 0.793302282315142 11.2
vertex 85.1401455894765 -0.85895188647673 11.2
vertex 91.5401455894766 -0.85895188647673 11.2
endloop
endfacet
facet normal -0.0 -0.0 1.0
outer loop
vertex 85.1401455894765 30.1410481135233 11.2
vertex 86.8360233825219 1.97320228231514 11.2
vertex 86.8155483711788 26.8129130106771 11.2
endloop
endfacet
facet normal -0.0 -0.0 1.0
outer loop
vertex 88.1464233825219 0.793302282315142 11.2
vertex 91.5401455894766 -0.85895188647673 11.2
vertex 89.6736233825219 1.67500228231514 11.2
endloop
endfacet
facet normal -0.0 -0.0 1.0
outer loop
vertex 87.5532233825219 3.58410228231514 11.2
vertex 87.1401455894765 4.64104811352328 11.2
vertex 86.8360233825219 1.97320228231514 11.2
endloop
endfacet
facet normal -0.0 -0.0 1.0
outer loop
vertex 87.1401455894765 4.64104811352328 11.2
vertex 87.5532233825219 3.58410228231514 11.2
vertex 91.5401455894766 4.64104811352328 11.2
endloop
endfacet
facet normal -0.0 -0.0 1.0
outer loop
vertex 91.5401455894766 4.64104811352328 11.2
vertex 87.5532233825219 3.58410228231514 11.2
vertex 89.3069233825219 3.39980228231514 11.2
endloop
endfacet
facet normal -0.0 -0.0 1.0
outer loop
vertex 91.5401455894766 4.64104811352328 11.2
vertex 89.3069233825219 3.39980228231514 11.2
vertex 89.6736233825219 1.67500228231514 11.2
endloop
endfacet
facet normal -0.0 -0.0 1.0
outer loop
vertex 91.5401455894766 4.64104811352328 11.2
vertex 89.6736233825219 1.67500228231514 11.2
vertex 91.5401455894766 -0.85895188647673 11.2
endloop
endfacet
facet normal -0.0 -0.0 1.0
outer loop
vertex 86.8155483711788 26.8129130106771 11.2
vertex 87.1401455894765 24.6410481135233 11.2
vertex 88.1259483711788 25.6330130106771 11.2
endloop
endfacet
facet normal -0.0 -0.0 1.0
outer loop
vertex 87.1401455894765 24.6410481135233 11.2
vertex 86.8155483711788 26.8129130106771 11.2
vertex 86.8360233825219 1.97320228231514 11.2
endloop
endfacet
facet normal -0.0 -0.0 1.0
outer loop
vertex 87.1401455894765 24.6410481135233 11.2
vertex 86.8360233825219 1.97320228231514 11.2
vertex 87.1401455894765 4.64104811352328 11.2
endloop
endfacet
facet normal -0.0 -0.0 1.0
outer loop
vertex 87.1401455894765 24.6410481135233 11.2
vertex 87.1401455894765 4.64104811352328 11.2
vertex 87.1401455894765 14.6410481135233 11.2
endloop
endfacet
facet normal -0.0 -0.0 1.0
outer loop
vertex 88.1259483711788 25.6330130106771 11.2
vertex 87.1401455894765 24.6410481135233 11.2
vertex 91.5401455894766 24.6410481135233 11.2
endloop
endfacet
facet normal -0.0 -0.0 1.0
outer loop
vertex 88.1259483711788 25.6330130106771 11.2
vertex 91.5401455894766 24.6410481135233 11.2
vertex 89.6531483711788 26.5147130106771 11.2
endloop
endfacet
facet normal -0.0 -0.0 1.0
outer loop
vertex 85.1401455894765 30.1410481135233 11.2
vertex 87.5327483711788 28.4238130106771 11.2
vertex 91.5401455894766 30.1410481135233 11.2
endloop
endfacet
facet normal -0.0 -0.0 1.0
outer loop
vertex 87.5327483711788 28.4238130106771 11.2
vertex 85.1401455894765 30.1410481135233 11.2
vertex 86.8155483711788 26.8129130106771 11.2
endloop
endfacet
facet normal -0.0 -0.0 1.0
outer loop
vertex 91.5401455894766 30.1410481135233 11.2
vertex 87.5327483711788 28.4238130106771 11.2
vertex 89.2864483711788 28.2395130106771 11.2
endloop
endfacet
facet normal -0.0 -0.0 1.0
outer loop
vertex 91.5401455894766 30.1410481135233 11.2
vertex 89.2864483711788 28.2395130106771 11.2
vertex 89.6531483711788 26.5147130106771 11.2
endloop
endfacet
facet normal -0.0 -0.0 1.0
outer loop
vertex 91.5401455894766 30.1410481135233 11.2
vertex 89.6531483711788 26.5147130106771 11.2
vertex 91.5401455894766 24.6410481135233 11.2
endloop
endfacet
facet normal 0.0 -1.0 0.0
outer loop
vertex 91.5401455894766 -0.85895188647673 11.2
vertex 85.1401455894765 -0.85895188647673 -3.0
vertex 91.5401455894766 -0.85895188647673 -3.0
endloop
endfacet
facet normal 0.0 -1.0 0.0
outer loop
vertex 85.1401455894765 -0.85895188647673 -3.0
vertex 91.5401455894766 -0.85895188647673 11.2
vertex 85.1401455894765 -0.85895188647673 11.2
endloop
endfacet
facet normal -0.104516517478152 -0.994523150848807 -0.0
outer loop
vertex 89.3069233825219 3.39980228231514 11.2
vertex 87.5532233825219 3.58410228231514 -3.0
vertex 89.3069233825219 3.39980228231514 -3.0
endloop
endfacet
facet normal -0.104516517478152 -0.994523150848807 -0.0
outer loop
vertex 87.5532233825219 3.58410228231514 -3.0
vertex 89.3069233825219 3.39980228231514 11.2
vertex 87.5532233825219 3.58410228231514 11.2
endloop
endfacet
facet normal -0.978138091571901 -0.207956422877676 -0.0
outer loop
vertex 89.3069233825219 3.39980228231514 11.2
vertex 89.6736233825219 1.67500228231514 -3.0
vertex 89.6736233825219 1.67500228231514 11.2
endloop
endfacet
facet normal -0.978138091571901 -0.207956422877676 -0.0
outer loop
vertex 89.6736233825219 1.67500228231514 -3.0
vertex 89.3069233825219 3.39980228231514 11.2
vertex 89.3069233825219 3.39980228231514 -3.0
endloop
endfacet
facet normal 0.0 1.0 0.0
outer loop
vertex 85.1401455894765 30.1410481135233 11.2
vertex 91.5401455894766 30.1410481135233 -3.0
vertex 85.1401455894765 30.1410481135233 -3.0
endloop
endfacet
facet normal 0.0 1.0 0.0
outer loop
vertex 91.5401455894766 30.1410481135233 -3.0
vertex 85.1401455894765 30.1410481135233 11.2
vertex 91.5401455894766 30.1410481135233 11.2
endloop
endfacet
facet normal 1.11903431847138e-16 1.0 -0.0
outer loop
vertex 87.1401455894765 4.64104811352328 11.2
vertex 91.5401455894766 4.64104811352328 -3.0
vertex 87.1401455894765 4.64104811352328 -3.0
endloop
endfacet
facet normal 1.11903431847138e-16 1.0 -0.0
outer loop
vertex 91.5401455894766 4.64104811352328 -3.0
vertex 87.1401455894765 4.64104811352328 11.2
vertex 91.5401455894766 4.64104811352328 11.2
endloop
endfacet
facet normal 1.0 -0.0 -0.0
outer loop
vertex 87.1401455894765 14.6410481135233 -3.0
vertex 87.1401455894765 4.64104811352328 11.2
vertex 87.1401455894765 4.64104811352328 -3.0
endloop
endfacet
facet normal 1.0 -0.0 -0.0
outer loop
vertex 87.1401455894765 4.64104811352328 11.2
vertex 87.1401455894765 14.6410481135233 -3.0
vertex 87.1401455894765 9.02502270973883 8.5
endloop
endfacet
facet normal 1.0 -0.0 -0.0
outer loop
vertex 87.1401455894765 4.64104811352328 11.2
vertex 87.1401455894765 9.02502270973883 8.5
vertex 87.1401455894765 8.9251222872342 8.74118095489748
endloop
endfacet
facet normal 1.0 -0.0 -0.0
outer loop
vertex 87.1401455894765 4.64104811352328 11.2
vertex 87.1401455894765 8.9251222872342 8.74118095489748
vertex 87.1401455894765 8.89104811352327 9.0
endloop
endfacet
facet normal 1.0 -0.0 -0.0
outer loop
vertex 87.1401455894765 9.02502270973883 8.5
vertex 87.1401455894765 14.6410481135233 -3.0
vertex 87.1401455894765 9.18394133233672 8.29289321881345
endloop
endfacet
facet normal 1.0 -0.0 -0.0
outer loop
vertex 87.1401455894765 9.18394133233672 8.29289321881345
vertex 87.1401455894765 14.6410481135233 -3.0
vertex 87.1401455894765 9.39104811352327 8.13397459621556
endloop
endfacet
facet normal 1.0 -0.0 -0.0
outer loop
vertex 87.1401455894765 9.39104811352327 8.13397459621556
vertex 87.1401455894765 14.6410481135233 -3.0
vertex 87.1401455894765 9.63222906842075 8.03407417371093
endloop
endfacet
facet normal 1.0 -0.0 -0.0
outer loop
vertex 87.1401455894765 9.63222906842075 8.03407417371093
vertex 87.1401455894765 14.6410481135233 -3.0
vertex 87.1401455894765 9.89104811352327 8.0
endloop
endfacet
facet normal 1.0 -0.0 -0.0
outer loop
vertex 87.1401455894765 9.89104811352327 8.0
vertex 87.1401455894765 14.6410481135233 -3.0
vertex 87.1401455894765 10.1498671586258 8.03407417371093
endloop
endfacet
facet normal 1.0 -0.0 -0.0
outer loop
vertex 87.1401455894765 10.1498671586258 8.03407417371093
vertex 87.1401455894765 14.6410481135233 -3.0
vertex 87.1401455894765 10.3910481135233 8.13397459621556
endloop
endfacet
facet normal 1.0 -0.0 -0.0
outer loop
vertex 87.1401455894765 10.3910481135233 8.13397459621556
vertex 87.1401455894765 14.6410481135233 -3.0
vertex 87.1401455894765 10.5981548947098 8.29289321881345
endloop
endfacet
facet normal 1.0 -0.0 -0.0
outer loop
vertex 87.1401455894765 10.5981548947098 8.29289321881345
vertex 87.1401455894765 14.6410481135233 -3.0
vertex 87.1401455894765 10.7570735173077 8.5
endloop
endfacet
facet normal 1.0 -0.0 -0.0
outer loop
vertex 87.1401455894765 10.7570735173077 8.5
vertex 87.1401455894765 14.6410481135233 -3.0
vertex 87.1401455894765 10.8569739398123 8.74118095489748
endloop
endfacet
facet normal 1.0 -0.0 -0.0
outer loop
vertex 87.1401455894765 10.8569739398123 8.74118095489748
vertex 87.1401455894765 14.6410481135233 -3.0
vertex 87.1401455894765 10.8910481135233 9.0
endloop
endfacet
facet normal 1.0 -0.0 -0.0
outer loop
vertex 87.1401455894765 4.64104811352328 11.2
vertex 87.1401455894765 9.63222906842075 9.96592582628907
vertex 87.1401455894765 14.6410481135233 11.2
endloop
endfacet
facet normal 1.0 -0.0 -0.0
outer loop
vertex 87.1401455894765 9.63222906842075 9.96592582628907
vertex 87.1401455894765 4.64104811352328 11.2
vertex 87.1401455894765 9.39104811352327 9.86602540378444
endloop
endfacet
facet normal 1.0 -0.0 -0.0
outer loop
vertex 87.1401455894765 9.39104811352327 9.86602540378444
vertex 87.1401455894765 4.64104811352328 11.2
vertex 87.1401455894765 9.18394133233672 9.70710678118654
endloop
endfacet
facet normal 1.0 -0.0 -0.0
outer loop
vertex 87.1401455894765 9.18394133233672 9.70710678118654
vertex 87.1401455894765 4.64104811352328 11.2
vertex 87.1401455894765 9.02502270973883 9.5
endloop
endfacet
facet normal 1.0 -0.0 -0.0
outer loop
vertex 87.1401455894765 9.02502270973883 9.5
vertex 87.1401455894765 4.64104811352328 11.2
vertex 87.1401455894765 8.9251222872342 9.25881904510252
endloop
endfacet
facet normal 1.0 -0.0 -0.0
outer loop
vertex 87.1401455894765 8.9251222872342 9.25881904510252
vertex 87.1401455894765 4.64104811352328 11.2
vertex 87.1401455894765 8.89104811352327 9.0
endloop
endfacet
facet normal 1.0 -0.0 -0.0
outer loop
vertex 87.1401455894765 14.6410481135233 11.2
vertex 87.1401455894765 9.63222906842075 9.96592582628907
vertex 87.1401455894765 9.89104811352327 10.0
endloop
endfacet
facet normal 1.0 -0.0 -0.0
outer loop
vertex 87.1401455894765 14.6410481135233 11.2
vertex 87.1401455894765 9.89104811352327 10.0
vertex 87.1401455894765 10.1498671586258 9.96592582628907
endloop
endfacet
facet normal 1.0 -0.0 -0.0
outer loop
vertex 87.1401455894765 14.6410481135233 11.2
vertex 87.1401455894765 10.1498671586258 9.96592582628907
vertex 87.1401455894765 10.3910481135233 9.86602540378444
endloop
endfacet
facet normal 1.0 -0.0 -0.0
outer loop
vertex 87.1401455894765 14.6410481135233 11.2
vertex 87.1401455894765 10.3910481135233 9.86602540378444
vertex 87.1401455894765 10.5981548947098 9.70710678118655
endloop
endfacet
facet normal 1.0 -0.0 -0.0
outer loop
vertex 87.1401455894765 14.6410481135233 11.2
vertex 87.1401455894765 10.5981548947098 9.70710678118655
vertex 87.1401455894765 10.7570735173077 9.5
endloop
endfacet
facet normal 1.0 -0.0 -0.0
outer loop
vertex 87.1401455894765 14.6410481135233 11.2
vertex 87.1401455894765 10.7570735173077 9.5
vertex 87.1401455894765 10.8569739398123 9.25881904510252
endloop
endfacet
facet normal 1.0 -0.0 -0.0
outer loop
vertex 87.1401455894765 14.6410481135233 11.2
vertex 87.1401455894765 10.8569739398123 9.25881904510252
vertex 87.1401455894765 10.8910481135233 9.0
endloop
endfacet
facet normal 1.0 -0.0 -0.0
outer loop
vertex 87.1401455894765 14.6410481135233 11.2
vertex 87.1401455894765 10.8910481135233 9.0
vertex 87.1401455894765 14.6410481135233 -3.0
endloop
endfacet
endsolid new effoctor
